<?xml version="1.0" encoding="UTF-8"?> <svg xmlns="http://www.w3.org/2000/svg" height="10.58mm" viewBox="0 0 117.02 30" width="41.28mm"><g fill="#fff"><path d="m21.75 3.62c-2.19-2.26-5.18-3.62-8.01-3.62-.59 0-1.17.06-1.71.18-2.92.82-4.99 3.64-5.4 7.35-.39 3.54.87 8 4.57 9.99.23.12.38.21 1.03.46.84.3 1.61.44 2.39.44-.51-.26-.94-.67-1.19-1.2-.31-.65-.62-2.03.86-3.94 1.94-2.32 4.09-3.6 6.06-3.6 2.56 0 4.44 2.12 4.78 5.41.07.64.1 1.55-.04 2.65.23-1 .4-2.13.44-3.36.2-5.45-1.95-8.85-3.78-10.75z"></path><path d="m23.47 11.54c-.79-.97-1.86-1.48-3.1-1.48-.41 0-.84.06-1.28.17-1.43.43-2.67 1.24-3.91 2.59.22-.08.47-.14.74-.14h.05c.91 0 1.61.48 2.01 1.38 1.07 2.4-.31 6.34-2.27 8.53-1.77 1.97-4.62 3.2-7.44 3.2-3.11 0-6.5-1.52-7.96-5.55.27 1.36.77 2.84 1.73 4.33 2.24 3.5 5.56 5.43 9.36 5.43 2.89 0 5.82-1.11 8.25-3.13 2.51-2.09 4.26-4.99 4.91-8.17.61-2.95.2-5.55-1.1-7.15z"></path><path d="m17.42 17.82c-.63.65-1.57 1-2.71 1-.87 0-1.83-.2-2.84-.59-.27-.11-.61-.26-.86-.39-2.69-1.45-5.35-4.91-4.73-10.27.32-2.78 1.49-5.11 3.18-6.52-4.22 2.16-8.33 7.44-9.29 13.43-.21 1.33-.23 2.68-.01 4 .27 1.61.94 3.59 2.86 5.17 1.5 1.23 3.32 1.88 5.25 1.88 2.57 0 5.13-1.13 7.01-3.09 1.41-1.47 2.3-3.27 2.59-5.21-.12.22-.27.41-.44.59zm-13.56-2.14c-.41.47-.98 1.09-1.4 1.54.17-.63.39-1.48.56-2.11-.45-.29-1.05-.67-1.51-.95.64-.11 1.25-.23 1.83-.36.16-.64.37-1.51.52-2.15.15.57.35 1.33.5 1.9.53-.14 1.03-.29 1.49-.45-.35.49-.83 1.13-1.19 1.6.14.56.32 1.3.46 1.87-.37-.27-.88-.63-1.25-.89zm4.42 5.56c-.32-.21-.74-.49-1.06-.69-.34.33-.81.77-1.16 1.1.14-.46.32-1.07.45-1.54-.37-.22-.87-.51-1.23-.74.45-.05 1.05-.14 1.51-.21.14-.47.31-1.1.44-1.57.13.43.29.99.41 1.41.45-.09.87-.19 1.27-.29-.3.35-.71.8-1.02 1.15.12.41.27.97.39 1.38zm4.29 1.25c-.2-.15-.48-.34-.69-.49-.22.26-.53.59-.76.85.09-.35.21-.81.31-1.16-.25-.15-.57-.36-.82-.51.31-.05.7-.13 1-.2.09-.35.2-.82.28-1.17l.27 1.04c.29-.08.56-.16.81-.25-.19.27-.45.62-.65.87.08.31.18.71.25 1.02z"></path><path d="m38.45 12.09c-.35-.64-.83-1.15-1.45-1.53-.62-.37-1.31-.56-2.09-.56-.65 0-1.25.14-1.79.42s-.99.65-1.34 1.11v-4.38c0-.2-.06-.37-.17-.48-.12-.12-.27-.18-.47-.18s-.35.06-.47.18c-.13.11-.19.28-.19.48v7.17c.01.8.2 1.52.58 2.15.37.64.87 1.15 1.51 1.52.63.37 1.35.56 2.15.56s1.55-.19 2.19-.56c.64-.38 1.15-.88 1.52-1.53.38-.65.56-1.38.56-2.2s-.17-1.53-.53-2.18zm-1.13 3.77c-.26.47-.62.83-1.07 1.11-.45.27-.96.41-1.53.41s-1.06-.14-1.51-.41c-.46-.27-.81-.64-1.07-1.11-.26-.46-.38-.99-.38-1.59s.13-1.11.38-1.58c.26-.47.61-.84 1.07-1.1.45-.27.95-.4 1.51-.4s1.09.14 1.53.4c.45.26.81.63 1.07 1.1s.39 1 .39 1.58-.13 1.12-.39 1.59z"></path><path d="m41.5 6.76c-.25 0-.46.08-.64.25s-.27.38-.27.64.09.47.26.64.38.26.63.26.46-.09.64-.26.27-.39.27-.64-.09-.47-.27-.64-.39-.25-.62-.25z"></path><path d="m41.5 10.08c-.19 0-.35.06-.48.18-.12.12-.18.28-.18.48v7.08c0 .19.06.35.18.48s.28.18.48.18.35-.06.47-.18.18-.28.18-.48v-7.08c0-.2-.06-.37-.18-.48s-.27-.18-.47-.18z"></path><path d="m51.96 12.08c-.37-.65-.87-1.15-1.51-1.52-.63-.37-1.36-.55-2.18-.55s-1.56.18-2.2.55-1.15.87-1.52 1.52c-.37.64-.55 1.38-.55 2.21s.19 1.55.55 2.19c.37.64.87 1.15 1.52 1.52.64.37 1.37.55 2.2.55s1.55-.19 2.19-.55c.64-.37 1.15-.88 1.52-1.52s.55-1.37.55-2.19c-.01-.83-.2-1.57-.57-2.21zm-1.1 3.8c-.25.47-.61.83-1.05 1.1-.45.27-.96.4-1.54.4s-1.08-.14-1.53-.4-.81-.63-1.07-1.1c-.26-.46-.39-.99-.39-1.59s.13-1.12.39-1.6c.26-.47.62-.84 1.07-1.1.45-.27.96-.4 1.53-.4s1.09.14 1.54.4.8.63 1.05 1.1.38 1 .38 1.6-.13 1.12-.38 1.59z"></path><path d="m62.16 6.67c-.12-.12-.28-.18-.47-.18s-.35.06-.47.18c-.13.11-.19.28-.19.48v4.39c-.35-.46-.79-.83-1.33-1.11s-1.13-.42-1.79-.42c-.78 0-1.47.19-2.09.56-.62.38-1.1.88-1.46 1.53s-.54 1.37-.54 2.18.19 1.55.56 2.2c.37.64.88 1.15 1.53 1.53.64.37 1.37.56 2.18.56s1.51-.19 2.15-.56c.63-.38 1.13-.88 1.51-1.52.37-.64.57-1.36.59-2.15v-7.19c0-.2-.06-.37-.19-.48zm-1.49 9.19c-.26.47-.61.83-1.06 1.11-.45.27-.95.41-1.52.41s-1.07-.14-1.52-.41-.81-.64-1.07-1.11c-.27-.46-.4-.99-.4-1.59s.13-1.11.4-1.58.62-.84 1.07-1.1c.45-.27.95-.4 1.52-.4s1.07.14 1.52.4.8.63 1.06 1.1.39 1 .39 1.58-.13 1.12-.39 1.59z"></path><path d="m65.24 10.08c-.19 0-.35.06-.48.18-.12.12-.18.28-.18.48v7.08c0 .19.06.35.18.48.12.12.28.18.48.18s.35-.06.47-.18.18-.28.18-.48v-7.08c0-.2-.06-.37-.18-.48-.12-.12-.27-.18-.47-.18z"></path><path d="m65.24 6.76c-.25 0-.46.08-.64.25s-.27.38-.27.64.09.47.26.64.38.26.63.26.46-.09.64-.26.27-.39.27-.64-.09-.47-.27-.64-.39-.25-.62-.25z"></path><path d="m74.83 10.14c-.15-.07-.31-.08-.48-.03-.16.05-.28.15-.35.31l-2.82 6.19-2.86-6.19c-.08-.14-.2-.24-.35-.3s-.3-.04-.45.04c-.16.08-.27.19-.33.34-.06.14-.05.29.02.43l3.35 7.11c.14.3.35.45.61.45.29 0 .5-.15.63-.45l3.33-7.11c.06-.14.07-.29.02-.44s-.16-.26-.32-.35z"></path><path d="m83.08 12c-.31-.63-.75-1.11-1.33-1.47-.58-.35-1.25-.53-2.05-.53s-1.5.18-2.11.55-1.09.87-1.43 1.51c-.35.64-.52 1.38-.52 2.22s.18 1.57.55 2.21.87 1.15 1.52 1.51c.65.37 1.39.55 2.23.55.49 0 .98-.09 1.5-.27.52-.19.95-.42 1.3-.71.13-.11.2-.25.19-.4 0-.16-.08-.31-.22-.44-.11-.09-.25-.14-.41-.13-.16 0-.29.06-.42.16-.21.19-.5.34-.87.46-.37.13-.72.19-1.07.19-.6 0-1.13-.14-1.6-.4-.46-.27-.83-.64-1.1-1.11-.2-.35-.33-.74-.38-1.17h6.09c.17 0 .32-.05.43-.16s.17-.25.17-.42c0-.8-.16-1.51-.47-2.13zm-6.19 1.66c.05-.35.15-.69.3-.99.23-.47.57-.84 1-1.11s.93-.4 1.52-.4 1.03.13 1.42.38c.39.26.7.61.91 1.06.15.33.25.68.29 1.06z"></path><path d="m90.25 10.22c-.27-.15-.67-.23-1.19-.23-.6 0-1.15.14-1.64.43-.38.22-.7.51-.97.85v-.55c0-.2-.06-.36-.17-.48s-.27-.17-.48-.17-.36.06-.48.17-.17.27-.17.48v7.11c0 .2.06.36.17.48.11.11.27.17.48.17s.36-.06.48-.17c.11-.11.17-.27.17-.48v-4.56c0-.47.14-.87.41-1.21.28-.34.65-.58 1.12-.73s1-.18 1.6-.1c.16.01.31.02.44.02s.24-.03.34-.08c.1-.06.16-.16.19-.31.07-.27-.03-.48-.3-.63z"></path><path d="m96.75 14.19c-.45-.24-1.05-.42-1.82-.55-.55-.1-.98-.22-1.29-.35s-.52-.27-.64-.44c-.12-.16-.18-.36-.18-.58 0-.33.17-.59.5-.8.33-.2.76-.31 1.28-.31.42 0 .79.06 1.12.18s.62.32.88.6c.12.13.27.21.45.25.18.03.34 0 .48-.08.14-.1.22-.23.25-.39.02-.16-.03-.31-.15-.45-.31-.39-.71-.7-1.21-.93s-1.1-.35-1.78-.35c-.54 0-1.05.09-1.51.26-.47.17-.84.44-1.13.78-.29.35-.43.78-.43 1.3 0 .57.24 1.06.71 1.47s1.23.7 2.26.87c.8.13 1.36.32 1.7.55.33.24.49.53.48.87-.01.35-.18.64-.51.88s-.84.36-1.55.36c-.48 0-.92-.08-1.32-.24s-.71-.37-.92-.62c-.12-.12-.27-.2-.44-.22-.17-.03-.34.02-.5.15-.14.12-.23.27-.25.45-.02.17.03.33.15.46.36.39.84.69 1.44.9s1.22.31 1.87.31 1.25-.11 1.74-.32c.5-.21.88-.51 1.15-.88s.41-.79.41-1.26c0-.39-.1-.74-.29-1.07-.19-.32-.51-.6-.96-.84z"></path><path d="m107.05 12.09c-.38-.64-.88-1.15-1.52-1.53-.64-.37-1.36-.56-2.15-.56s-1.54.19-2.18.56c-.64.38-1.16.88-1.53 1.53-.38.65-.56 1.38-.56 2.2s.18 1.53.54 2.18c.35.64.84 1.15 1.46 1.53.62.37 1.31.56 2.09.56s1.41-.17 2-.53c.44-.26.81-.6 1.11-1v.81c0 .2.06.35.19.47.12.11.28.17.47.17s.34-.06.47-.17c.13-.12.19-.27.19-.47v-3.55c-.01-.82-.2-1.55-.57-2.2zm-1.1 3.78c-.26.47-.61.84-1.06 1.1-.45.27-.95.4-1.52.4s-1.07-.14-1.52-.4-.81-.63-1.07-1.1c-.27-.47-.4-1-.4-1.58s.13-1.12.4-1.59.62-.83 1.07-1.11c.45-.27.95-.41 1.52-.41s1.07.14 1.52.41.8.64 1.06 1.11c.26.46.39.99.39 1.59s-.13 1.11-.39 1.58z"></path><path d="m116.82 13.57c-.13-.13-.28-.19-.47-.19h-2.29v-2.29c0-.18-.06-.34-.18-.47s-.28-.19-.48-.19-.34.06-.47.19-.19.28-.19.47v2.29h-2.29c-.18 0-.34.06-.46.19s-.18.28-.18.47.06.35.18.48c.12.12.28.18.46.18h2.29v2.3c0 .18.06.34.19.47s.28.19.47.19.35-.06.48-.19c.12-.13.18-.28.18-.47v-2.3h2.29c.18 0 .34-.06.47-.18s.19-.28.19-.48c0-.18-.06-.34-.19-.47z"></path><path d="m32.81 22.1c.05 0 .1-.02.14-.05s.06-.08.06-.13c0-.06-.02-.1-.06-.14-.04-.03-.08-.05-.14-.05h-2.07c-.05 0-.1.02-.14.05-.04.04-.06.08-.06.14v3.1c0 .05.02.1.06.14s.08.06.14.06h2.07c.05 0 .1-.02.14-.05s.06-.08.06-.14c0-.05-.02-.09-.06-.13-.04-.03-.08-.05-.14-.05h-1.87v-1.2h1.36c.06 0 .1-.02.14-.05s.05-.08.05-.13-.02-.09-.05-.13-.08-.05-.14-.05h-1.36v-1.18h1.87z"></path><path d="m35.43 22.78c-.06 0-.1.02-.14.05s-.05.08-.05.14v1.3c0 .12-.03.23-.1.32-.07.1-.15.17-.27.22s-.24.08-.38.08-.28-.03-.39-.08c-.12-.06-.21-.14-.27-.26-.07-.12-.1-.26-.1-.44v-1.14c0-.05-.02-.1-.05-.13s-.08-.05-.14-.05c-.05 0-.1.02-.13.05s-.05.08-.05.13v1.14c0 .25.05.46.14.62s.23.3.39.39c.17.09.35.13.56.13.2 0 .37-.04.53-.13.1-.06.19-.13.26-.21v.13c0 .06.02.1.05.14s.08.05.14.05.1-.02.14-.05.05-.08.05-.14v-2.06c0-.06-.02-.1-.05-.14-.04-.03-.08-.05-.14-.05z"></path><path d="m37.83 22.82c-.08-.04-.19-.07-.35-.07-.18 0-.33.04-.48.12-.11.07-.2.16-.28.26v-.17c0-.06-.02-.11-.05-.14s-.08-.05-.14-.05-.11.02-.14.05-.05.08-.05.14v2.07c0 .06.02.11.05.14s.08.05.14.05.11-.02.14-.05.05-.08.05-.14v-1.33c0-.14.04-.25.12-.35s.19-.17.33-.21.29-.05.46-.03h.13s.07 0 .1-.02.05-.05.06-.09c.02-.08 0-.14-.09-.18z"></path><path d="m40.44 23.36c-.11-.19-.25-.33-.44-.44-.19-.1-.4-.16-.63-.16s-.46.05-.64.16c-.19.11-.33.26-.44.44-.11.19-.16.4-.16.64s.05.45.16.64c.1.19.25.33.44.44s.4.16.64.16.45-.05.63-.16c.19-.11.33-.26.44-.44.1-.19.16-.4.16-.64s-.05-.46-.16-.64zm-.32 1.11c-.07.13-.17.24-.31.32s-.28.11-.44.11-.32-.04-.45-.11-.23-.19-.31-.32c-.08-.14-.11-.29-.11-.46s.04-.33.11-.46.18-.25.31-.32.28-.11.45-.11.31.04.44.11.23.19.31.32c.08.14.11.29.11.46s-.03.33-.11.46z"></path><path d="m43.48 23.37c-.1-.19-.25-.34-.44-.44-.19-.11-.39-.16-.63-.16s-.44.05-.63.16c-.18.1-.33.25-.44.44s-.16.39-.17.62v2.09c0 .05.02.1.05.14.03.03.08.05.14.05s.1-.02.14-.05c.03-.04.05-.08.05-.14v-1.28c.1.13.23.24.39.32s.33.12.52.12c.22 0 .43-.05.61-.16.17-.11.32-.26.42-.45s.15-.4.15-.63-.05-.45-.16-.64zm-.32 1.1c-.08.14-.18.25-.31.32s-.28.11-.45.11-.31-.04-.44-.11c-.13-.08-.23-.19-.31-.32-.07-.14-.11-.29-.11-.46s.04-.33.11-.46c.08-.14.18-.24.31-.32.14-.08.28-.11.44-.11s.32.04.45.11c.13.08.23.19.31.32.07.14.11.29.11.46s-.04.32-.11.46z"></path><path d="m46.27 23.34c-.09-.18-.22-.32-.39-.43-.17-.1-.37-.15-.59-.15s-.44.05-.61.16c-.18.11-.32.26-.42.44-.1.19-.15.4-.15.64s.05.45.16.64.25.33.44.44.4.16.65.16c.14 0 .28-.03.43-.08s.28-.13.38-.21c.04-.03.06-.07.06-.12 0-.04-.03-.09-.07-.13-.03-.03-.07-.04-.12-.04-.04 0-.09.02-.12.05-.07.05-.15.1-.26.13-.1.04-.21.05-.31.05-.18 0-.33-.04-.47-.12s-.24-.19-.32-.32c-.06-.1-.09-.21-.1-.34h1.76s.09-.02.13-.05c.03-.03.05-.07.05-.12 0-.23-.05-.44-.14-.62zm-1.79.48c.02-.1.04-.2.08-.28.07-.14.16-.25.29-.32.13-.08.27-.12.44-.12s.3.04.41.11c.11.08.2.18.27.31.04.09.07.2.08.31h-1.57z"></path><path d="m49.13 23.37c-.11-.19-.26-.34-.44-.44-.19-.11-.39-.16-.63-.16s-.45.05-.63.16c-.19.1-.33.26-.44.44-.11.19-.16.4-.16.64s.05.45.15.63.25.34.43.45c.18.1.38.16.61.16s.41-.05.58-.15c.13-.08.23-.19.32-.31v.25c0 .05.02.1.05.14.04.03.08.05.14.05.05 0 .1-.02.14-.05.03-.03.05-.08.05-.14v-1.03c0-.24-.06-.45-.17-.64zm-.32 1.1c-.08.14-.18.25-.31.32s-.28.11-.44.11-.31-.04-.44-.11-.23-.19-.31-.32c-.08-.14-.11-.29-.11-.46s.04-.33.11-.46c.08-.14.18-.24.31-.32s.28-.11.44-.11.31.04.44.11c.13.08.23.19.31.32.07.14.11.29.11.46s-.04.32-.11.46z"></path><path d="m51.68 22.89c-.17-.09-.35-.13-.56-.13-.19 0-.37.04-.53.13-.11.06-.19.13-.27.22v-.13c0-.06-.02-.11-.05-.14s-.08-.05-.14-.05-.1.02-.14.05-.05.08-.05.14v2.06c0 .06.02.1.05.14s.08.05.14.05.1-.02.14-.05c.03-.03.05-.08.05-.14v-1.3c0-.12.03-.23.1-.32s.15-.17.27-.22.24-.08.37-.08c.15 0 .28.03.39.08s.21.14.27.26c.07.11.1.26.1.44v1.14c0 .05.02.1.05.13.04.04.08.05.14.05.05 0 .1-.02.13-.05s.05-.08.05-.13v-1.14c0-.25-.05-.46-.14-.62s-.23-.3-.39-.39z"></path><path d="m56.43 23.63c-.12-.15-.28-.24-.48-.29.14-.07.25-.16.33-.28.08-.13.13-.26.13-.41 0-.17-.04-.33-.13-.46-.09-.14-.2-.24-.35-.32s-.32-.12-.5-.12h-1.08c-.05 0-.1.02-.14.05-.04.04-.05.08-.05.14v3.1c0 .05.02.1.06.14s.09.05.15.05h1.15c.21 0 .4-.04.57-.13.16-.09.29-.21.39-.37.09-.16.14-.34.14-.54 0-.23-.06-.41-.18-.56zm-1.88-1.53h.88c.17 0 .32.05.43.14s.17.22.17.4-.05.31-.17.4c-.11.1-.26.14-.43.14h-.88zm1.59 2.44c-.07.1-.15.18-.26.23-.1.05-.23.08-.37.08h-.97v-1.31h.97c.14 0 .27.03.37.08.11.05.19.13.26.22.06.09.09.21.09.34 0 .14-.03.26-.09.36z"></path><path d="m57.42 22.78c-.06 0-.1.02-.14.05s-.05.08-.05.14v2.06c0 .06.02.1.05.14.04.04.08.05.14.05s.1-.02.14-.05.05-.08.05-.14v-2.06c0-.06-.02-.11-.05-.14s-.08-.05-.14-.05z"></path><path d="m57.42 21.82c-.07 0-.13.02-.19.07-.05.05-.08.11-.08.19s.03.14.08.19.11.08.18.08.13-.03.19-.08c.05-.05.08-.11.08-.19s-.03-.14-.08-.19-.11-.07-.18-.07z"></path><path d="m60.53 23.36c-.1-.19-.25-.33-.44-.44-.19-.1-.39-.16-.63-.16s-.45.05-.64.16-.33.26-.44.44c-.11.19-.16.4-.16.64s.05.45.16.64.26.33.44.44c.19.11.4.16.64.16s.45-.05.64-.16.33-.26.44-.44c.11-.19.16-.4.16-.64s-.06-.46-.17-.64zm-.32 1.11c-.08.13-.17.24-.31.32-.13.08-.28.11-.45.11s-.32-.04-.45-.11-.23-.19-.31-.32c-.08-.14-.11-.29-.11-.46s.04-.33.11-.46.18-.25.31-.32.28-.11.45-.11.32.04.45.11c.13.08.23.19.31.32.07.14.11.29.11.46s-.04.33-.11.46z"></path><path d="m63.58 21.79s-.08-.05-.14-.05-.1.02-.14.05-.05.08-.05.14v1.27c-.1-.13-.23-.24-.39-.32s-.33-.12-.52-.12c-.23 0-.43.05-.61.16-.17.1-.32.26-.42.44-.1.19-.16.4-.16.63s.05.45.16.64.26.34.44.45c.19.1.4.16.63.16s.44-.05.63-.16.33-.26.44-.45c.1-.19.16-.39.17-.62v-2.08c0-.06-.02-.11-.05-.14zm-.43 2.67c-.08.14-.18.24-.31.32s-.28.11-.44.11-.31-.04-.44-.11c-.13-.08-.23-.19-.31-.32s-.11-.29-.11-.46.04-.32.11-.46.18-.25.31-.32.28-.11.44-.11.31.04.44.11.23.19.31.32c.08.14.11.29.11.46s-.03.33-.11.46z"></path><path d="m64.55 22.78c-.06 0-.1.02-.14.05s-.05.08-.05.14v2.06c0 .06.02.1.05.14s.08.05.14.05.1-.02.14-.05.05-.08.05-.14v-2.06c0-.06-.02-.11-.05-.14s-.08-.05-.14-.05z"></path><path d="m64.55 21.82c-.07 0-.13.02-.19.07-.05.05-.08.11-.08.19s.03.14.08.19.11.08.18.08.13-.03.19-.08c.05-.05.08-.11.08-.19s-.03-.14-.08-.19-.11-.07-.18-.07z"></path><path d="m67.42 22.8s-.09-.02-.14 0c-.05.01-.08.04-.1.09l-.82 1.8-.83-1.8s-.06-.07-.1-.09-.09-.01-.13.01c-.05.02-.08.06-.1.1s-.01.08 0 .12l.97 2.07c.04.09.1.13.18.13s.14-.04.18-.13l.97-2.07s.02-.08 0-.13c-.01-.04-.05-.08-.09-.1z"></path><path d="m69.9 23.34c-.09-.18-.22-.32-.39-.43-.17-.1-.37-.15-.59-.15s-.44.05-.61.16c-.18.11-.32.26-.42.44-.1.19-.15.4-.15.64s.05.45.16.64.25.33.44.44.4.16.64.16c.14 0 .29-.03.44-.08s.28-.13.38-.21c.04-.03.06-.07.06-.12 0-.04-.03-.09-.07-.13-.03-.03-.08-.04-.12-.04s-.09.02-.12.05c-.07.05-.15.1-.26.13-.1.04-.21.05-.31.05-.17 0-.33-.04-.46-.12-.14-.08-.24-.19-.32-.32-.05-.1-.08-.21-.1-.34h1.76s.09-.02.13-.05c.03-.03.05-.07.05-.12 0-.23-.05-.44-.14-.62zm-1.79.48c.02-.1.04-.2.08-.28.07-.14.16-.25.29-.32.13-.08.27-.12.44-.12s.3.04.41.11c.11.08.2.18.27.31.04.09.07.2.08.31h-1.57z"></path><path d="m72.06 22.82c-.08-.04-.19-.07-.35-.07-.18 0-.33.04-.48.12-.11.07-.2.16-.28.26v-.17c0-.06-.02-.11-.05-.14s-.08-.05-.14-.05-.11.02-.14.05-.05.08-.05.14v2.07c0 .06.02.11.05.14s.08.05.14.05.11-.02.14-.05.05-.08.05-.14v-1.33c0-.14.04-.25.12-.35s.19-.17.33-.21.29-.05.46-.03h.13s.07 0 .1-.02.05-.05.06-.09c.02-.08 0-.14-.09-.18z"></path><path d="m74.03 23.98c-.13-.07-.31-.12-.53-.16-.16-.03-.29-.06-.37-.1-.09-.04-.15-.08-.19-.13-.03-.05-.05-.1-.05-.17 0-.1.05-.17.15-.23s.22-.09.37-.09c.12 0 .23.02.33.05.1.04.18.09.25.17.04.04.08.06.13.07.05 0 .1 0 .14-.02.04-.03.07-.07.07-.11s0-.09-.04-.13c-.09-.11-.21-.2-.35-.27s-.32-.1-.52-.1c-.16 0-.3.03-.44.08s-.24.13-.33.23c-.08.1-.13.23-.13.38 0 .17.07.31.21.43s.36.2.66.25c.23.04.4.09.49.16.1.07.14.15.14.25s-.05.19-.15.26-.25.1-.45.1c-.14 0-.27-.02-.38-.07-.12-.05-.21-.11-.27-.18-.04-.04-.08-.06-.13-.06s-.1 0-.15.04c-.04.04-.07.08-.07.13s0 .1.04.13c.1.11.24.2.42.26.17.06.35.09.54.09s.36-.03.51-.09c.14-.06.26-.15.33-.25.08-.11.12-.23.12-.37 0-.11-.03-.22-.08-.31-.06-.09-.15-.17-.28-.24z"></path><path d="m75.16 22.78c-.06 0-.1.02-.14.05s-.05.08-.05.14v2.06c0 .06.02.1.05.14.04.04.08.05.14.05s.1-.02.14-.05.05-.08.05-.14v-2.06c0-.06-.02-.11-.05-.14s-.08-.05-.14-.05z"></path><path d="m75.16 21.82c-.07 0-.13.02-.19.07-.05.05-.08.11-.08.19s.03.14.08.19.11.08.18.08.13-.03.19-.08c.05-.05.08-.11.08-.19s-.03-.14-.08-.19-.11-.07-.18-.07z"></path><path d="m77.19 24.84h-.13c-.12 0-.23-.05-.31-.14s-.12-.21-.12-.35v-1.16h.46c.05 0 .09-.01.12-.04s.05-.07.05-.12-.02-.09-.05-.12-.07-.05-.12-.05h-.46v-.67c0-.06-.02-.1-.05-.14-.04-.04-.08-.05-.13-.05-.06 0-.1.02-.14.05-.03.04-.05.08-.05.14v.67h-.26c-.05 0-.09.02-.12.05s-.05.07-.05.12.02.09.05.12.07.04.12.04h.26v1.16c0 .16.04.31.1.44.07.13.17.23.29.31.12.07.26.11.41.11h.09c.06 0 .11-.02.15-.05s.06-.08.06-.14-.02-.1-.05-.14-.07-.05-.13-.05z"></path><path d="m79.84 22.8c-.11-.05-.19-.02-.24.09l-.79 1.76-.85-1.77c-.02-.05-.06-.08-.1-.1-.04-.01-.09-.01-.14 0-.05.02-.08.06-.1.1s-.01.09 0 .14l1 2.01-.44.98c-.05.11-.02.19.09.24.04.01.07.02.09.02.07 0 .11-.04.15-.12l1.42-3.14c.05-.11.02-.19-.09-.23z"></path><path d="m83.63 22.29c-.1-.17-.23-.31-.4-.4-.17-.1-.37-.15-.59-.15h-.89c-.05 0-.1.02-.14.05-.04.04-.05.08-.05.14v3.1c0 .05.02.1.05.14.04.04.08.05.14.05s.1-.02.14-.05c.04-.04.05-.08.05-.14v-1.03h.7c.22 0 .42-.05.59-.14.17-.1.3-.23.4-.4s.14-.36.14-.58c0-.23-.04-.43-.14-.59zm-.33.98c-.07.11-.16.2-.27.27s-.25.1-.39.1h-.7v-1.53h.7c.15 0 .28.04.39.1.11.07.2.16.27.27s.1.25.1.4c0 .14-.03.27-.1.39z"></path><path d="m86.34 23.37c-.11-.19-.26-.34-.44-.44-.19-.11-.4-.16-.63-.16s-.45.05-.63.16c-.19.1-.34.26-.45.44-.11.19-.16.4-.16.64s.05.45.16.63.25.34.43.45c.17.1.38.16.61.16s.41-.05.58-.15c.13-.08.23-.19.32-.31v.25c0 .05.02.1.05.14.03.03.08.05.14.05s.1-.02.14-.05.05-.08.05-.14v-1.03c0-.24-.05-.45-.16-.64zm-.32 1.1c-.08.14-.17.25-.31.32-.13.08-.28.11-.44.11s-.31-.04-.44-.11c-.13-.08-.23-.19-.32-.32-.08-.14-.11-.29-.11-.46s.04-.33.11-.46c.08-.14.19-.24.32-.32s.28-.11.44-.11.31.04.44.11c.13.08.23.19.31.32.08.14.11.29.11.46s-.04.32-.11.46z"></path><path d="m88.64 22.82c-.08-.04-.19-.07-.35-.07-.18 0-.33.04-.48.12-.11.07-.2.16-.28.26v-.17c0-.06-.02-.11-.05-.14s-.08-.05-.14-.05-.11.02-.14.05-.05.08-.05.14v2.07c0 .06.02.11.05.14s.08.05.14.05.11-.02.14-.05.05-.08.05-.14v-1.33c0-.14.04-.25.12-.35s.19-.17.33-.21.29-.05.46-.03h.13s.07 0 .1-.02.05-.05.06-.09c.02-.08 0-.14-.09-.18z"></path><path d="m90.39 24.84h-.13c-.12 0-.23-.05-.31-.14s-.12-.21-.12-.35v-1.16h.46c.05 0 .09-.01.12-.04s.05-.07.05-.12-.02-.09-.05-.12-.07-.05-.12-.05h-.46v-.67c0-.06-.02-.1-.05-.14-.04-.04-.08-.05-.13-.05-.06 0-.1.02-.14.05-.03.04-.05.08-.05.14v.67h-.26c-.05 0-.09.02-.12.05s-.05.07-.05.12.02.09.05.12.07.04.12.04h.26v1.16c0 .16.04.31.1.44.07.13.17.23.29.31.12.07.26.11.41.11h.09c.06 0 .11-.02.15-.05s.06-.08.06-.14-.02-.1-.05-.14-.07-.05-.13-.05z"></path><path d="m92.76 22.89c-.17-.09-.35-.13-.56-.13-.19 0-.37.04-.53.13-.11.06-.19.13-.27.22v-.13c0-.06-.02-.11-.05-.14s-.08-.05-.14-.05-.1.02-.14.05-.05.08-.05.14v2.06c0 .06.02.1.05.14.04.03.08.05.14.05s.1-.02.14-.05.05-.08.05-.14v-1.3c0-.12.03-.23.1-.32s.15-.17.27-.22c.11-.05.24-.08.37-.08.15 0 .28.03.39.08.11.06.21.14.27.26.07.11.1.26.1.44v1.14c0 .05.02.1.05.13.04.04.08.05.14.05.05 0 .1-.02.13-.05.04-.04.05-.08.05-.13v-1.14c0-.25-.05-.46-.14-.62-.1-.17-.23-.3-.39-.39z"></path><path d="m96.01 23.34c-.09-.18-.22-.32-.39-.43-.17-.1-.37-.15-.59-.15s-.44.05-.61.16c-.18.11-.32.26-.42.44-.1.19-.15.4-.15.64s.05.45.16.64c.1.19.25.33.44.44s.4.16.64.16c.14 0 .29-.03.44-.08s.28-.13.38-.21c.04-.03.06-.07.05-.12 0-.04-.02-.09-.06-.13-.03-.03-.08-.04-.12-.04s-.09.02-.12.05c-.07.05-.15.1-.26.13-.1.04-.21.05-.31.05-.17 0-.33-.04-.46-.12-.14-.08-.24-.19-.32-.32-.05-.1-.09-.21-.1-.34h1.76s.09-.02.13-.05c.03-.03.05-.07.05-.12 0-.23-.05-.44-.14-.62zm-1.79.48c.02-.1.04-.2.08-.28.07-.14.16-.25.29-.32.13-.08.27-.12.44-.12s.3.04.41.11c.11.08.2.18.26.31.05.09.07.2.08.31h-1.57z"></path><path d="m98.17 22.82c-.08-.04-.19-.07-.35-.07-.18 0-.33.04-.48.12-.11.07-.2.16-.28.26v-.17c0-.06-.02-.11-.05-.14s-.08-.05-.14-.05-.11.02-.14.05-.05.08-.05.14v2.07c0 .06.02.11.05.14s.08.05.14.05.11-.02.14-.05.05-.08.05-.14v-1.33c0-.14.04-.25.12-.35s.19-.17.33-.21.29-.05.46-.03h.13s.07 0 .1-.02.05-.05.06-.09c.02-.08 0-.14-.09-.18z"></path><path d="m100.14 23.98c-.13-.07-.31-.12-.53-.16-.16-.03-.29-.06-.37-.1-.09-.04-.15-.08-.19-.13-.03-.05-.05-.1-.05-.17 0-.1.05-.17.15-.23s.22-.09.37-.09c.12 0 .23.02.33.05.1.04.18.09.25.17.04.04.08.06.13.07.05 0 .1 0 .14-.02.04-.03.07-.07.07-.11s0-.09-.04-.13c-.09-.11-.21-.2-.35-.27s-.32-.1-.52-.1c-.16 0-.3.03-.44.08s-.24.13-.33.23-.12.23-.12.38c0 .17.07.31.21.43s.36.2.66.25c.23.04.4.09.49.16.1.07.14.15.14.25s-.05.19-.15.26-.25.1-.45.1c-.14 0-.27-.02-.38-.07-.12-.05-.21-.11-.27-.18-.04-.04-.08-.06-.13-.06s-.1 0-.15.04c-.04.04-.07.08-.07.13s0 .1.04.13c.1.11.24.2.42.26.17.06.35.09.54.09s.36-.03.51-.09c.14-.06.26-.15.33-.25.08-.11.12-.23.12-.37 0-.11-.03-.22-.08-.31-.06-.09-.15-.17-.28-.24z"></path><path d="m102.8 22.89c-.17-.09-.35-.13-.56-.13-.19 0-.37.04-.53.13-.11.06-.19.13-.27.22v-1.17c0-.06-.02-.11-.05-.14s-.08-.05-.14-.05-.1.02-.14.05-.05.08-.05.14v3.11c0 .06.02.1.05.14.04.03.08.05.14.05s.1-.02.14-.05.05-.08.05-.14v-1.3c0-.12.03-.23.1-.32s.15-.17.27-.22c.11-.05.24-.08.37-.08.15 0 .28.03.39.08.11.06.21.14.27.26.07.11.1.26.1.44v1.14c0 .05.02.1.05.13.04.04.08.05.14.05.05 0 .1-.02.13-.05.04-.04.05-.08.05-.13v-1.14c0-.25-.05-.46-.14-.62-.1-.17-.23-.3-.39-.39z"></path><path d="m104.25 22.78c-.06 0-.1.02-.14.05s-.05.08-.05.14v2.06c0 .06.02.1.05.14.04.04.08.05.14.05s.1-.02.14-.05.05-.08.05-.14v-2.06c0-.06-.02-.11-.05-.14s-.08-.05-.14-.05z"></path><path d="m104.25 21.82c-.07 0-.13.02-.19.07-.05.05-.08.11-.08.19s.03.14.08.19.11.08.18.08.13-.03.19-.08c.05-.05.08-.11.08-.19s-.03-.14-.08-.19-.11-.07-.18-.07z"></path><path d="m107.47 23.37c-.11-.19-.26-.34-.44-.44-.19-.11-.4-.16-.64-.16s-.44.05-.62.16c-.19.1-.33.25-.44.44s-.16.39-.17.62v2.09c0 .05.02.1.05.14.04.03.08.05.14.05s.1-.02.14-.05c.04-.04.05-.08.05-.14v-1.28c.1.13.23.24.39.32s.33.12.52.12c.22 0 .43-.05.61-.16s.32-.26.42-.45.15-.4.15-.63-.05-.45-.16-.64zm-.32 1.1c-.08.14-.18.25-.31.32s-.28.11-.45.11c-.16 0-.31-.04-.44-.11-.14-.08-.24-.19-.31-.32-.08-.14-.11-.29-.11-.46s.04-.33.11-.46c.07-.14.17-.24.31-.32.13-.08.28-.11.44-.11.17 0 .32.04.45.11.13.08.23.19.31.32s.11.29.11.46-.04.32-.11.46z"></path></g></svg> 