<svg width="511" height="414" viewBox="0 0 511 414" fill="none" xmlns="http://www.w3.org/2000/svg">
<path opacity="0.13" d="M597.163 0C597.406 0.486774 597.649 0.973547 597.893 1.46032C595.795 6.69771 588.156 8.3634 588.901 15.4749C589.02 16.6112 588.944 17.9802 588.408 18.934C586.95 21.5291 585.529 25.7367 583.497 26.1155C577.806 27.1803 572.695 29.2293 567.606 31.7362C565.195 32.9242 562.594 33.7548 560.032 34.6051C550.88 37.6429 544.095 43.2149 541.663 52.8196C540.174 58.6989 535.502 61.5268 530.974 63.3613C523.391 66.4325 517.829 71.3946 512.595 77.3469C509.8 80.5247 506.364 83.7571 502.544 85.2981C489.656 90.5005 477.069 96.2444 465.988 104.649C460.829 108.561 456.801 113.931 451.95 118.295C446.836 122.897 443.728 128.247 443.08 135.188C442.93 136.796 441.176 139.43 439.942 139.563C433.496 140.253 427.189 144.634 420.479 140.705C420.097 140.482 419.521 140.428 419.069 140.504C412.216 141.645 406.331 144.181 403.055 150.944C401.267 154.638 399.519 158.504 396.937 161.62C393.542 165.716 393.542 170.248 393.565 174.983C393.571 176.197 393.83 177.521 393.445 178.608C390.976 185.598 395.749 191.543 396.145 198.103C396.169 198.497 396.717 198.855 397.012 199.237C398.454 201.099 399.937 202.932 401.315 204.841C402.162 206.014 402.569 207.964 403.656 208.426C408.189 210.35 409.653 214.19 411.308 218.353C414.37 226.053 420.777 231.283 426.878 236.343C434.802 242.914 439.541 251.594 444.783 260.026C445.073 260.494 445.364 261.36 445.139 261.691C442.962 264.909 444.681 266.879 447.022 268.991C447.735 269.636 447.534 271.295 447.753 272.487C446.87 272.297 445.981 272.119 445.102 271.911C444.466 271.76 443.847 271.536 443.208 271.406C441.956 271.15 440.619 271.133 439.457 270.666C437.122 269.728 434.901 268.509 432.596 267.489C428.523 265.686 424.604 263.55 419.873 263.631C416.965 263.681 413.374 261.707 411.285 262.841C408.116 264.563 404.931 264.632 401.737 265.398C398.058 266.282 393.906 266.488 392.422 271.139C392.118 272.095 391.11 272.88 390.306 273.616C384.563 278.885 379.877 278.496 373.949 273.622C370.394 270.7 365.995 268.529 361.646 266.906C352.543 263.508 343.076 264.831 333.74 265.989C328.926 266.585 324.492 268.518 321.379 272.367C318.796 275.561 316.306 279.053 318.574 283.604C318.675 283.806 318.338 284.247 318.173 284.559C315.144 290.273 316.352 296.493 315.956 302.529C315.853 304.106 315.483 305.856 314.659 307.161C312.331 310.843 309.332 314.138 307.283 317.953C304.284 323.535 304.544 323.639 298.276 322.651C296.605 322.388 294.728 321.875 293.242 322.368C290.833 323.166 288.522 324.497 286.43 325.975C283.21 328.247 280.195 330.815 277.127 333.299C276.223 334.031 275.49 334.975 274.577 335.693C273.538 336.51 272.384 337.82 271.284 337.817C259.008 337.774 250.42 346.516 239.966 350.765C239.647 350.896 239.446 351.313 239.128 351.456C237.443 352.21 235.754 352.959 234.037 353.634C231.265 354.723 228.042 355.202 225.794 356.949C223.058 359.072 221.128 359.953 217.803 358.021C213.115 355.298 211.09 356.2 208.034 360.467C207.222 361.602 205.574 362.848 204.316 362.84C196.697 362.796 189.074 362.49 181.464 362.089C178.094 361.911 174.691 360.707 171.4 361.012C162.4 361.842 154.708 366.614 146.62 370.14C145.546 370.609 144.765 371.705 143.752 372.361C141.597 373.756 139.312 374.958 137.204 376.418C135.64 377.501 133.638 378.583 132.932 380.159C130.316 385.992 128.804 392.32 130.089 398.594C130.755 401.847 133.595 404.659 135.466 407.661C135.787 408.177 136.131 408.688 136.534 409.138C138.322 411.127 138.092 412.742 135.701 414C134.971 414 134.24 414 133.51 414C131.317 413.319 129.157 412.497 126.924 411.995C124.35 411.417 121.701 410.731 119.103 410.798C115.541 410.888 111.999 411.699 108.432 412.038C107.988 412.08 107.45 411.137 106.955 410.65C109.908 408.078 107.422 405.267 107.094 402.696C105.808 392.649 99.1227 385.662 92.2592 379.182C90.0793 377.124 85.8946 376.482 82.6211 376.467C78.4728 376.447 74.3353 377.845 70.1596 378.385C68.6613 378.58 66.9135 377.55 65.5505 377.965C61.8982 379.082 58.4482 380.855 54.805 382.014C52.7605 382.665 50.4924 382.606 48.3278 382.884C47.0455 383.049 45.4634 382.831 44.5386 383.504C40.7159 386.281 39.3073 386.401 34.9993 383.808C33.4614 382.881 31.8611 381.794 30.1559 381.461C22.1819 379.898 14.8104 377.084 7.90881 372.69C3.21144 369.699 -1.86623 367.194 -7.02451 365.085C-9.77022 363.963 -13.0742 364.475 -15.5993 362.14C-16.2945 361.497 -18.3314 361.614 -19.346 362.151C-21.4498 363.261 -23.1063 362.784 -24.6868 361.465C-27.9406 358.748 -30.808 355.402 -34.4162 353.321C-38.2724 351.097 -41.5018 348.167 -44.9564 345.789C-48.5433 343.32 -48.9875 341.503 -49.2324 337.9C-49.4515 334.674 -51.5081 331.609 -52.039 328.357C-52.725 324.145 -52.5303 319.797 -53.0764 315.553C-53.2559 314.157 -54.2538 312.403 -55.416 311.689C-58.0932 310.045 -61.1219 308.982 -63.9604 307.587C-64.6784 307.234 -65.3948 306.625 -65.8086 305.95C-68.3915 301.716 -70.9608 297.471 -73.3475 293.126C-73.7962 292.311 -73.7993 290.804 -73.3353 290.006C-70.6718 285.419 -72.3222 277.966 -76.8736 274.83C-78.8724 273.453 -78.7035 271.835 -76.5937 270.616C-75.9107 270.222 -75.176 269.347 -75.0832 268.614C-74.8306 266.623 -74.9265 264.589 -74.8519 262.574C-74.712 258.803 -75.2627 255.125 -78.162 252.513C-82.5901 248.527 -85.3617 243.659 -87 238.036C-87 234.628 -87 231.221 -87 227.813C-86.6273 226.662 -86.4204 225.419 -85.8485 224.377C-84.7091 222.302 -83.369 220.337 -82.1125 218.326C-80.1745 220.227 -78.1818 222.079 -76.3123 224.045C-74.5158 225.936 -73.0281 228.154 -71.0825 229.859C-68.0188 232.544 -64.6844 234.92 -61.4641 237.426C-60.7066 238.014 -60.0312 238.842 -59.1717 239.146C-52.1667 241.617 -45.0416 242.298 -38.3134 238.624C-26.0133 231.905 -17.5753 221.975 -14.1268 208.126C-13.7952 206.794 -13.0499 204.879 -12.0413 204.523C-7.85811 203.046 -6.78416 199.419 -5.35426 195.977C-4.46895 193.846 -3.7038 191.841 -1.32165 194.821C-0.965691 195.266 0.0945587 195.528 0.672607 195.355C4.81019 194.109 8.93408 192.804 12.991 191.321C13.7379 191.047 14.033 189.714 14.7617 189.171C15.7368 188.443 16.8776 187.781 18.0444 187.499C19.6599 187.108 21.3651 187.063 23.0384 186.937C24.5732 186.821 26.2176 186.419 27.6338 186.806C31.2618 187.794 34.724 189.433 38.3763 190.286C42.4424 191.237 46.6499 191.57 50.7799 192.271C51.4264 192.381 51.9816 193.018 52.5856 193.403C54.414 194.567 56.1649 195.881 58.0892 196.858C63.5273 199.619 69.1465 202.04 74.4646 205.008C76.8254 206.327 78.739 206.439 80.8839 205.143C83.7726 203.396 86.4164 200.749 89.5333 199.981C95.0475 198.622 97.8799 194.772 99.614 190.292C102.758 182.169 105.528 173.853 107.728 165.426C111.268 151.866 110.509 143.571 105.68 130.65C105.469 130.084 105.277 129.479 105.25 128.883C105.086 125.268 104.899 121.653 104.858 118.035C104.795 112.588 104.923 112.437 109.791 115.032C114.082 117.32 119.231 117.795 122.769 121.817C124.19 123.431 126.791 124.295 129.018 124.839C132.112 125.597 135.794 124.912 138.442 126.319C142.87 128.671 147.452 129.584 152.236 130.278C155.494 130.749 158.217 130.259 160.19 127.266C160.616 126.619 161.982 126.009 162.665 126.213C166.679 127.416 170.628 128.84 174.582 130.238C178.146 131.499 181.578 132.086 185.009 129.658C185.839 129.071 187.411 129.045 188.462 129.36C191.122 130.159 193.662 131.342 196.28 132.285C197.618 132.768 199.289 133.738 200.347 133.32C203.125 132.222 205.956 133.648 208.188 133.172C212.655 132.22 216.476 133.788 220.555 134.295C222.69 134.56 224.777 135.234 226.884 135.731C228.76 136.174 230.614 136.904 232.509 137.022C236.817 137.29 241.145 137.333 245.464 137.333C253.039 137.331 260.616 137.308 268.19 137.124C270.592 137.065 272.998 136.554 275.373 136.094C281.064 134.995 286.691 133.332 292.427 132.783C298.153 132.234 302.914 126.835 309.192 129.63C312.95 127.433 318.036 130.255 321.361 126.415C329.187 126.316 333.661 120.026 339.08 116.038C346.973 110.227 355.742 107.726 364.649 109.013C376.042 110.659 385.095 105.066 395.022 102.153C399.081 100.962 402.734 98.3999 406.598 96.5136C406.969 96.3326 407.543 96.6201 407.992 96.5319C410.153 96.106 412.471 95.9904 414.425 95.0914C419.113 92.9328 423.637 90.4153 428.211 88.0088C432.793 85.5977 437.34 83.1167 441.933 80.7254C443.491 79.9146 445.082 78.8985 446.76 78.6429C452.903 77.7074 457.611 75.1595 460.703 69.3745C462.218 66.5405 465.297 64.5767 467.454 62.0364C468.53 60.7707 468.921 58.9256 469.987 57.6493C471.082 56.3396 473.571 54.2677 473.822 54.4776C476.455 56.6757 479.229 55.7189 482.139 55.8817C486.177 56.1068 489.128 55.2504 492.299 52.8439C494.93 50.8497 498.588 48.3778 501.362 48.8174C506.025 49.5551 508.174 46.6558 511.188 44.7924C513.646 43.2727 514.334 39.2584 518.269 39.7695C518.48 39.7968 518.937 39.3101 518.988 39.0119C519.934 33.6711 523.343 30.9878 528.468 30.1085C528.563 30.0918 528.617 29.8849 528.718 29.856C531.448 29.0467 534.176 28.2299 536.917 27.4617C537.7 27.2426 538.671 27.3932 539.304 26.984C541.883 25.3199 544.234 23.2511 546.934 21.8379C548.586 20.9739 550.804 20.4993 552.621 20.7837C557.348 21.52 563.802 18.8747 566.427 14.9516C566.963 14.1514 568.577 13.9872 569.738 13.7133C571.187 13.3711 572.969 13.6555 574.105 12.9086C577.918 10.4002 580.749 6.35849 586.148 6.58819C591.084 6.79355 594.642 4.12389 597.163 0Z" fill="#52843E"/>
</svg>
