<svg width="511" height="298" viewBox="0 0 511 298" fill="none" xmlns="http://www.w3.org/2000/svg">
<path d="M542.425 -51C542.63 -50.5906 542.834 -50.1812 543.039 -49.7718C541.275 -45.3668 534.85 -43.9658 535.477 -37.9846C535.576 -37.0289 535.512 -35.8775 535.062 -35.0753C533.835 -32.8926 532.64 -29.3538 530.931 -29.0352C526.145 -28.1396 521.846 -26.4163 517.566 -24.3078C515.538 -23.3086 513.351 -22.6101 511.196 -21.8949C503.498 -19.3399 497.792 -14.6535 495.746 -6.57534C494.493 -1.63045 490.564 0.747971 486.756 2.29093C480.378 4.87404 475.7 9.04745 471.298 14.0537C468.948 16.7264 466.057 19.4451 462.845 20.7412C452.005 25.1167 441.419 29.9477 432.098 37.0164C427.76 40.3071 424.372 44.8233 420.292 48.4939C415.991 52.3641 413.377 56.8638 412.832 62.7017C412.705 64.054 411.23 66.27 410.192 66.3813C404.77 66.9621 399.466 70.6468 393.822 67.3421C393.501 67.154 393.016 67.1092 392.636 67.1732C386.873 68.1328 381.923 70.2655 379.168 75.9537C377.664 79.0601 376.194 82.3124 374.022 84.9326C371.167 88.378 371.167 92.1894 371.186 96.1721C371.191 97.1931 371.409 98.3062 371.085 99.2209C369.008 105.1 373.023 110.1 373.356 115.618C373.376 115.949 373.837 116.25 374.085 116.571C375.298 118.137 376.545 119.679 377.705 121.284C378.417 122.271 378.759 123.911 379.674 124.3C383.486 125.918 384.717 129.147 386.109 132.649C388.684 139.125 394.073 143.524 399.205 147.779C405.869 153.306 409.855 160.607 414.263 167.698C414.508 168.092 414.752 168.82 414.563 169.099C412.732 171.805 414.178 173.462 416.147 175.239C416.747 175.782 416.578 177.176 416.762 178.179C416.019 178.019 415.272 177.87 414.532 177.694C413.997 177.568 413.477 177.38 412.939 177.27C411.886 177.055 410.762 177.041 409.784 176.648C407.82 175.858 405.952 174.834 404.014 173.975C400.588 172.459 397.292 170.663 393.313 170.731C390.867 170.773 387.846 169.112 386.09 170.067C383.425 171.515 380.746 171.572 378.059 172.217C374.965 172.961 371.473 173.133 370.225 177.046C369.969 177.849 369.121 178.509 368.446 179.129C363.615 183.56 359.674 183.233 354.688 179.134C351.698 176.676 347.998 174.85 344.34 173.485C336.684 170.627 328.721 171.74 320.87 172.714C316.82 173.215 313.091 174.841 310.473 178.078C308.301 180.765 306.206 183.701 308.114 187.529C308.199 187.699 307.916 188.07 307.776 188.333C305.229 193.138 306.245 198.369 305.912 203.446C305.825 204.773 305.514 206.244 304.821 207.342C302.863 210.439 300.34 213.211 298.617 216.419C296.095 221.113 296.314 221.202 291.042 220.37C289.637 220.149 288.058 219.718 286.808 220.132C284.782 220.804 282.838 221.923 281.079 223.166C278.371 225.077 275.835 227.237 273.254 229.326C272.494 229.941 271.878 230.736 271.11 231.34C270.236 232.027 269.265 233.128 268.34 233.126C258.015 233.09 250.792 240.443 242 244.016C241.731 244.126 241.562 244.477 241.295 244.597C239.877 245.231 238.457 245.861 237.013 246.429C234.682 247.345 231.97 247.748 230.08 249.217C227.779 251.003 226.156 251.744 223.359 250.119C219.416 247.829 217.713 248.587 215.143 252.176C214.459 253.13 213.074 254.178 212.016 254.172C205.607 254.135 199.196 253.878 192.795 253.54C189.961 253.39 187.099 252.378 184.331 252.634C176.762 253.333 170.292 257.346 163.489 260.312C162.586 260.706 161.93 261.628 161.078 262.18C159.265 263.353 157.343 264.364 155.57 265.592C154.255 266.503 152.571 267.412 151.977 268.738C149.777 273.644 148.505 278.967 149.586 284.243C150.146 286.98 152.535 289.344 154.109 291.869C154.379 292.303 154.668 292.733 155.007 293.112C156.51 294.784 156.317 296.143 154.306 297.201C153.692 297.201 153.077 297.201 152.463 297.201C150.618 296.628 148.802 295.937 146.924 295.514C144.759 295.028 142.531 294.451 140.346 294.508C137.35 294.583 134.371 295.265 131.371 295.55C130.998 295.586 130.545 294.793 130.129 294.383C132.612 292.22 130.522 289.856 130.245 287.693C129.164 279.243 123.541 273.367 117.769 267.916C115.935 266.185 112.416 265.646 109.662 265.633C106.173 265.616 102.693 266.792 99.1814 267.246C97.9212 267.41 96.4511 266.544 95.3048 266.893C92.2329 267.832 89.3313 269.324 86.2671 270.299C84.5476 270.846 82.64 270.796 80.8194 271.031C79.7409 271.169 78.4103 270.986 77.6324 271.551C74.4173 273.887 73.2326 273.988 69.6093 271.807C68.3158 271.028 66.9699 270.113 65.5357 269.833C58.829 268.519 52.6291 266.152 46.8244 262.456C42.8736 259.941 38.603 257.834 34.2645 256.06C31.9552 255.116 29.1764 255.547 27.0526 253.583C26.4679 253.042 24.7547 253.141 23.9014 253.592C22.132 254.526 20.7387 254.125 19.4094 253.015C16.6728 250.73 14.2611 247.916 11.2264 246.165C7.98307 244.295 5.2669 241.831 2.36138 239.831C-0.655449 237.755 -1.02903 236.226 -1.23502 233.196C-1.41925 230.482 -3.149 227.904 -3.59551 225.169C-4.17252 221.626 -4.00875 217.97 -4.46806 214.4C-4.61903 213.226 -5.45832 211.751 -6.43578 211.151C-8.68753 209.768 -11.2348 208.873 -13.6222 207.7C-14.2261 207.403 -14.8287 206.892 -15.1767 206.324C-17.3491 202.763 -19.51 199.192 -21.5174 195.538C-21.8948 194.852 -21.8974 193.585 -21.5071 192.914C-19.2669 189.055 -20.6551 182.788 -24.483 180.15C-26.1642 178.992 -26.0221 177.63 -24.2476 176.606C-23.6732 176.274 -23.0552 175.539 -22.9772 174.922C-22.7648 173.247 -22.8454 171.537 -22.7827 169.841C-22.665 166.67 -23.1281 163.576 -25.5667 161.379C-29.291 158.027 -31.6221 153.933 -33 149.203C-33 146.337 -33 143.472 -33 140.606C-32.6865 139.637 -32.5125 138.592 -32.0315 137.716C-31.0732 135.971 -29.9461 134.318 -28.8893 132.626C-27.2593 134.225 -25.5833 135.782 -24.0109 137.437C-22.4999 139.027 -21.2487 140.892 -19.6123 142.327C-17.0356 144.585 -14.2312 146.583 -11.5227 148.69C-10.8855 149.185 -10.3175 149.881 -9.59462 150.137C-3.70298 152.215 2.28973 152.788 7.94853 149.698C18.2938 144.047 25.3906 135.695 28.291 124.048C28.5699 122.927 29.1968 121.316 30.0451 121.017C33.5634 119.775 34.4667 116.724 35.6693 113.829C36.4139 112.037 37.0575 110.35 39.061 112.857C39.3604 113.232 40.2521 113.452 40.7383 113.306C44.2183 112.258 47.6868 111.16 51.0989 109.913C51.7271 109.683 51.9753 108.562 52.5881 108.105C53.4082 107.492 54.3678 106.936 55.3491 106.699C56.7078 106.37 58.142 106.332 59.5494 106.226C60.8403 106.128 62.2233 105.791 63.4144 106.116C66.4658 106.947 69.3777 108.325 72.4496 109.043C75.8694 109.843 79.4082 110.123 82.8818 110.713C83.4255 110.805 83.8925 111.341 84.4004 111.664C85.9383 112.643 87.4109 113.749 89.0293 114.57C93.6032 116.892 98.3293 118.929 102.802 121.425C104.788 122.534 106.397 122.629 108.201 121.539C110.631 120.069 112.854 117.843 115.476 117.197C120.114 116.054 122.496 112.816 123.954 109.048C126.599 102.216 128.929 95.2215 130.779 88.1337C133.756 76.7291 133.118 69.7525 129.057 58.8853C128.879 58.4093 128.718 57.9001 128.695 57.3986C128.556 54.3587 128.399 51.3176 128.365 48.2752C128.312 43.6936 128.42 43.567 132.514 45.7496C136.123 47.6738 140.454 48.073 143.43 51.4558C144.624 52.8132 146.812 53.5399 148.685 53.9979C151.288 54.6351 154.384 54.0594 156.611 55.2428C160.336 57.2208 164.189 57.9884 168.213 58.5718C170.953 58.9684 173.243 58.5564 174.903 56.0386C175.261 55.4948 176.41 54.9818 176.984 55.1532C180.361 56.1652 183.682 57.3628 187.007 58.5385C190.005 59.5992 192.891 60.093 195.777 58.0511C196.475 57.5572 197.798 57.5355 198.682 57.8003C200.918 58.472 203.055 59.4674 205.257 60.2606C206.382 60.6662 207.787 61.4824 208.678 61.1306C211.014 60.2069 213.395 61.4069 215.272 61.0065C219.029 60.2056 222.243 61.5247 225.673 61.9507C227.47 62.1733 229.225 62.7401 230.997 63.1585C232.574 63.5308 234.134 64.1449 235.728 64.2447C239.351 64.4698 242.991 64.5057 246.623 64.5057C252.995 64.5044 259.368 64.4852 265.738 64.3304C267.758 64.2805 269.782 63.8506 271.779 63.4642C276.565 62.5392 281.298 61.1408 286.122 60.679C290.938 60.2171 294.943 55.6765 300.223 58.0268C303.384 56.1793 307.661 58.5526 310.458 55.3234C317.04 55.2402 320.803 49.9499 325.36 46.5953C331.999 41.708 339.375 39.6047 346.866 40.687C356.449 42.0714 364.062 37.367 372.412 34.9169C375.825 33.9152 378.898 31.7607 382.148 30.1742C382.46 30.0219 382.942 30.2638 383.32 30.1896C385.138 29.8313 387.088 29.7341 388.73 28.978C392.674 27.1625 396.478 25.0451 400.326 23.0211C404.179 20.9932 408.003 18.9065 411.867 16.8953C413.177 16.2134 414.516 15.3587 415.927 15.1438C421.093 14.3569 425.053 12.214 427.654 7.34838C428.928 4.96486 431.517 3.31317 433.332 1.17657C434.236 0.112106 434.565 -1.43982 435.462 -2.51323C436.383 -3.6148 438.476 -5.35735 438.687 -5.18079C440.902 -3.33206 443.236 -4.1368 445.683 -3.9999C449.079 -3.81055 451.561 -4.53085 454.228 -6.55486C456.44 -8.23215 459.517 -10.3112 461.851 -9.94144C465.772 -9.32093 467.58 -11.7595 470.114 -13.3267C472.182 -14.6049 472.76 -17.9812 476.07 -17.5513C476.248 -17.5283 476.632 -17.9377 476.675 -18.1885C477.471 -22.6804 480.338 -24.9373 484.648 -25.6768C484.728 -25.6909 484.774 -25.8649 484.858 -25.8892C487.155 -26.5698 489.449 -27.2569 491.754 -27.903C492.413 -28.0872 493.229 -27.9605 493.762 -28.3047C495.932 -29.7044 497.908 -31.4444 500.179 -32.6329C501.569 -33.3596 503.434 -33.7588 504.963 -33.5195C508.938 -32.9003 514.366 -35.1252 516.575 -38.4248C517.025 -39.0977 518.382 -39.2359 519.359 -39.4662C520.578 -39.7541 522.076 -39.5148 523.032 -40.143C526.239 -42.2527 528.62 -45.6521 533.161 -45.4589C537.312 -45.2862 540.305 -47.5315 542.425 -51Z" fill="#52843E" fill-opacity="0.13"/>
</svg>
