<svg xmlns="http://www.w3.org/2000/svg" width="16.734" height="14.199" viewBox="0 0 16.734 14.199">
  <g id="icon-eye-hidden" transform="translate(-992.595 -596.14)">
    <path id="Path_47581" data-name="Path 47581" d="M23.963,25.5A9.85,9.85,0,0,0,16.2,29.7a3.121,3.121,0,0,0,0,3.406,9.848,9.848,0,0,0,7.762,4.2,9.849,9.849,0,0,0,7.762-4.2,3.121,3.121,0,0,0,0-3.406,9.847,9.847,0,0,0-7.762-4.2Zm0,1.147A8.737,8.737,0,0,1,30.8,30.383a1.995,1.995,0,0,1,0,2.046,8.731,8.731,0,0,1-6.836,3.731,8.739,8.739,0,0,1-6.837-3.731,1.995,1.995,0,0,1,0-2.046,8.735,8.735,0,0,1,6.837-3.732Zm-.009,1.941a2.818,2.818,0,1,0,.008,0h-.007l0,0Zm0,1.147h0a1.663,1.663,0,1,1-.006,0Z" transform="translate(977 571.842)" fill="#6f99ae" stroke="#6f99ae" stroke-width="0.2"/>
    <line id="Line_3" data-name="Line 3" x2="10.109" y2="13.479" transform="translate(995.846 596.5)" fill="none" stroke="#6f99ae" stroke-width="1.2"/>
  </g>
</svg>
