<svg width="448" height="481" viewBox="0 0 448 481" fill="none" xmlns="http://www.w3.org/2000/svg">
<path d="M397.671 95.8281C399.498 98.0072 401.351 99.0999 403.156 99.0755C405.397 99.0454 406.822 97.2726 406.836 97.2549L406.894 97.1812H413.375C413.551 93.1967 419.092 90.7266 419.332 90.6216C421.089 89.6744 422.106 88.6372 422.258 87.6297C422.388 86.7648 421.852 86.2096 421.829 86.186L421.789 86.1261C420.912 84.0801 419.637 82.8101 418 82.3512C414.771 81.4474 411.156 83.99 411.12 84.0156C407.754 86.7086 404.641 84.5547 404.041 84.0871L399.917 86.1492L401.412 90.8204L401.136 90.8097C399.93 90.7646 399.013 91.0945 398.416 91.7944C397.265 93.143 397.609 95.4689 397.671 95.8281Z" fill="#52843E" fill-opacity="0.13"/>
<path d="M364.816 209.663C365.836 209.925 367.12 209.277 368.632 207.734L369.561 202.59L371.541 202.411V196.42L369.966 193.095C369.292 193.094 365.568 193.273 363.16 197.885V207.799C363.221 207.995 363.681 209.371 364.816 209.663Z" fill="#52843E" fill-opacity="0.13"/>
<path d="M392.495 226.515C392.389 226.906 392.59 227.434 393.074 228.039L393.103 228.075L394.372 234.056L396.587 235.164V238.115L401.5 242.151C402.111 241.593 404.748 239.348 406.922 239.977C408.095 240.315 408.917 241.425 409.368 243.275L409.373 243.321V244.406H417.07C417.362 243.32 419.077 236.112 414.062 233.649L406.977 233.276V227.591L402.294 226.724C401.862 227.089 399.669 228.86 398.448 228.306C397.957 228.083 397.694 227.538 397.664 226.684L392.951 225.986C392.848 226.036 392.58 226.198 392.495 226.515Z" fill="#52843E" fill-opacity="0.13"/>
<path d="M392.543 336.972L394.569 334.025C394.965 332.266 394.785 331.031 394.034 330.356C392.771 329.218 390.247 329.969 389.916 330.075L383.253 336.018V344.846L388.964 344.144L392.903 342.562L392.543 336.972Z" fill="#52843E" fill-opacity="0.13"/>
<path d="M391.29 365.694H394.907L398.215 363.408L398.584 356.013H401.886L402.765 349.159L399.409 346.157L394.303 345.146L392.386 348.585V354.993L389.237 359.154L391.29 363.696V365.694Z" fill="#52843E" fill-opacity="0.13"/>
<path d="M374.993 345.716C373.694 344.831 372.055 345.185 371.816 345.243L366.056 349.203C364.978 352.889 368.253 354.477 368.81 354.717L375.603 351.678L376.653 349.055C376.48 347.473 375.922 346.349 374.993 345.716Z" fill="#52843E" fill-opacity="0.13"/>
<path d="M333.563 219.747L333.65 219.749L333.706 219.815C333.744 219.86 337.482 224.221 341.308 221.786L341.371 221.76C341.388 221.756 343.078 221.375 343.785 220.075C344.196 219.318 344.199 218.389 343.796 217.313C343.636 217.074 341.713 214.306 338.866 214.471L338.662 214.483L338.661 214.278C338.661 214.238 338.633 210.284 336.4 208.689C335.304 207.906 333.841 207.811 332.051 208.408L331.298 209.914L331.168 209.904C331.157 209.903 330.817 209.877 330.323 209.877C329.254 209.877 327.464 209.998 326.738 210.759C326.492 211.016 326.395 211.323 326.443 211.695L326.445 211.71L326.445 211.724C326.438 212.045 326.356 219.571 333.563 219.747Z" fill="#52843E" fill-opacity="0.13"/>
<path d="M354.471 212.821L358.937 208.713V200.694C358.451 200.444 356.217 199.399 353.733 199.846C353.322 200.177 349.49 203.395 349.825 207.812L349.805 213.853L354.471 212.821Z" fill="#52843E" fill-opacity="0.13"/>
<path d="M430.013 349.952L430.015 353.2L431.685 354.742L430.899 357.432L428.737 358.693V363.138H436.251L438.626 354.735H443.328V350.023L438.88 346.531C438.152 346.469 430.51 345.92 430.013 349.952Z" fill="#52843E" fill-opacity="0.13"/>
<path d="M472.486 140.834L468.078 145.243H464.947L462.719 140.043C461.662 138.934 460.727 138.454 459.935 138.616C459.034 138.801 458.587 139.786 458.51 139.972V143.782H449.456L448.026 141.995C444.926 143.29 442.984 147.284 442.965 147.325C441.796 149.998 441.667 152.316 442.585 154.209C443.908 156.936 447.012 157.901 447.372 158.005L454.734 157.107L457.286 153.278L461.175 152.5L465.035 161.875C468.545 162.801 469.965 162.298 470.538 161.709C471.234 160.992 470.921 159.912 470.917 159.901L470.909 159.845V156.74C469.992 151.808 471.443 150.106 471.506 150.036L476.783 144.212C477.484 142.612 477.558 141.496 477.002 140.895C475.938 139.742 472.877 140.705 472.486 140.834Z" fill="#52843E" fill-opacity="0.13"/>
<path d="M430.683 415.555L426.734 422.913C426.917 424.02 427.438 424.804 428.283 425.242C431.05 426.677 436.48 424.159 437.155 423.835L439.102 418.435L435.954 414.149L430.683 415.555Z" fill="#52843E" fill-opacity="0.13"/>
<path d="M438.129 328.442C442.408 329.072 443.793 328.451 444.2 327.817C444.612 327.175 444.094 326.363 444.089 326.356L444.029 326.263L444.078 326.163C444.489 325.342 444.551 324.532 444.26 323.754C443.518 321.766 440.736 320.595 440.707 320.583L440.65 320.56L439.674 318.999V314.023H432.733V309.639H430.359V306.514L422.144 305.64L421.07 318.709L425 324.606L435.204 325.699L438.129 328.442Z" fill="#52843E" fill-opacity="0.13"/>
<path d="M411.722 369.03L410.887 367.36H403.034L395.168 373.285L396.168 385.586L403.353 384.882L411.003 376.945L411.722 369.03Z" fill="#52843E" fill-opacity="0.13"/>
<path d="M411.785 418.276L413.239 413.551H421.042V407.545H411.946C406.602 409.025 406.439 416.253 406.448 417.415L411.785 418.276Z" fill="#52843E" fill-opacity="0.13"/>
<path d="M399.497 410.2L400.373 403.709H393.847V406.4L387.82 408.226V415.785L391.467 421.084L399.497 410.2Z" fill="#52843E" fill-opacity="0.13"/>
<path d="M424.695 380.642L419.248 378.913L417.051 384.36C417.509 387.537 417.214 389.576 416.172 390.421C415.59 390.894 414.944 390.85 414.62 390.784L413.591 395.069L415.883 398.066C417.581 398.934 418.997 399.094 420.093 398.541C421.76 397.7 422.137 395.47 422.14 395.448L422.155 395.357L424.695 393.905V380.642Z" fill="#52843E" fill-opacity="0.13"/>
<path d="M40.0268 203.604H35.1038L33.0057 207.013C33.0979 207.57 33.9218 211.591 38.5881 213.08H43.2961V206.344H40.3004L40.0268 203.604Z" fill="#52843E" fill-opacity="0.13"/>
<path d="M83.9607 308.703L96.9775 308.712C96.9953 308.718 98.7693 309.257 100.503 308.122C102.299 306.948 103.421 304.474 103.838 300.767C103.067 300.197 98.095 296.407 98.4472 293.735L93.2588 293.468L90.1491 289.51V284.642L84.6999 282.45V276.485H75.0859C74.66 276.976 71.8662 280.519 74.0771 286.523C74.1718 286.668 74.6327 287.443 74.2164 288.212C73.6455 289.267 71.7161 289.747 68.4828 289.639C68.14 289.892 66.1449 291.462 65.9535 293.822C65.8113 295.565 66.6687 297.345 68.5014 299.114H74.9999C75.0615 299.11 76.7548 299.032 77.7714 300.348C78.6528 301.487 78.7301 303.284 78.0029 305.69H83.9615V308.703H83.9607Z" fill="#52843E" fill-opacity="0.13"/>
<path d="M25.3857 180.039L25.3253 180.032L25.2794 179.992C24.3592 179.195 23.9821 178.362 24.1583 177.517C24.6395 175.209 29.1598 173.636 29.9089 173.39C31.1537 169.226 28.3127 166.312 28.2833 166.283C24.0789 163.131 19.2605 166.275 19.2121 166.307L19.0931 166.386L18.9823 166.296C13.1651 161.537 8.88002 166.227 8.83744 166.275L8.7684 166.352L8.66546 166.338C4.58752 165.755 1.89865 166.2 0.887849 167.623C-0.122955 169.047 0.812607 171.046 0.911001 171.247L8.80561 180.991C18.2708 183.847 20.748 189.464 20.9233 189.891L24.2194 194.578C25.9078 199.403 31.6552 198.047 32.6106 197.784V189.71C32.876 180.943 25.4605 180.046 25.3857 180.039Z" fill="#52843E" fill-opacity="0.13"/>
<path d="M456.984 372.113L454.751 377.651L453.166 381.754L445.48 384.133C445.204 384.652 443.454 388.149 444.437 391.59C444.448 391.643 444.629 392.505 445.565 392.927C446.44 393.322 448.17 393.392 451.442 391.487L454.496 388.672H458.409L464.515 381.526V375.752C464.516 375.736 464.537 374.968 463.77 374.152C462.952 373.282 461.112 372.228 456.984 372.113Z" fill="#52843E" fill-opacity="0.13"/>
<path d="M377.575 298.775L377.591 298.844C377.763 303.832 383.147 307.562 383.512 307.809L390.796 310.358C401.922 312.268 402.966 310.482 402.975 310.464L402.995 310.409L403.039 310.384L406.977 307.52V300.545L404.465 296.059L386.649 282.787H379.267L375.796 272.375H373.749L372.637 259.961C372.948 256.673 372.047 255.732 371.854 255.571H359.9L357.895 248.827L348.456 249.734L345.703 246.614L331.104 245.519L328.067 242.861V236.866L325.251 235.458C318.715 231.396 314.879 236.633 314.719 236.858L314.66 236.94H311.973L308.887 234.652V228.756C307.452 225.991 301.627 225.255 301.568 225.248L292.652 224V225.98H289.546V227.215L289.401 227.253C283.957 228.658 284.065 235.214 284.067 235.28L284.072 235.479H278.77V240.381L288.865 240.021L292.177 242.413L294.979 243.16L295.014 243.253C296.396 246.881 306.338 252.303 306.951 252.634L309.347 253.002L315.354 258.099L321.08 257.545L321.838 259.441L325.324 261.275L326.407 265.97L329.427 266.147L338.01 272.722L349.19 273.088L350.282 274.727L360.585 274.543L360.953 278.407L366.893 279.307L374.306 286.535L374.303 286.621C374.124 290.55 377.541 298.693 377.575 298.775Z" fill="#52843E" fill-opacity="0.13"/>
<path d="M462.944 332.445L459.021 331.375H447.375L443.714 332.072V333.556L443.014 338.316H446.756L447.489 340.126C452.518 340.381 456.463 345.429 456.963 346.096L461.609 346.848L462.149 339.84L466.085 337.246L462.944 332.445Z" fill="#52843E" fill-opacity="0.13"/>
<path d="M80.0156 265.699L88.3344 267.389L92.8567 260.394C92.4892 259.733 90.6388 256.223 91.3416 253.602C91.5896 252.675 92.1324 251.962 92.956 251.482C93.2619 251.106 96.6887 246.806 95.4782 244.577C94.8382 243.398 92.9799 242.973 89.9537 243.314C89.802 243.928 89.0599 246.311 86.7006 246.345C86.4517 246.487 85.1205 247.293 84.8141 248.416C84.6798 248.907 84.7624 249.402 85.0589 249.887L85.1461 250.03L80.0908 254.217C79.8159 254.869 76.5313 262.891 80.0156 265.699Z" fill="#52843E" fill-opacity="0.13"/>
<path d="M147.065 276.488L148.375 271.049L152.2 271.653L151.637 278.409C151.637 278.432 151.624 282.146 154.201 284.657C155.884 286.298 158.287 287.08 161.351 286.979C161.896 286.454 165.997 282.644 169.195 283.679L177.326 283.86L182.987 280.208H189.135L189.871 278.736L196.577 279.295L207.589 281.038L207.623 281.059C207.645 281.072 209.924 282.42 218.865 283.314L218.948 283.322L220.778 285.702L224.019 286.214L228.76 273.997H236.115L244.58 285.704L247.961 279.654L251.734 279.842C251.81 279.852 253.153 280.079 253.548 283.197L262.913 287.879H268.801L268.859 287.946C268.894 287.985 272.465 291.942 285.367 294.092L289.648 295.221C289.73 295.279 291.678 296.68 291.678 298.599C291.678 299.734 290.994 300.793 289.648 301.747L289.597 301.783H276.448L272.193 304.974V306.246L277.548 310.529H280.32L282.912 314.23C283.166 314.372 284.87 315.17 286.633 312.444L286.683 312.368L291.678 311.784V314.443H307.015L314.866 309.435L320.528 309.253C321.039 308.924 325.163 306.4 328.712 308.175L328.78 308.209L328.807 308.28C328.873 308.457 330.418 312.578 330.287 314.568L333.84 318.4L340.172 319.666C340.279 319.706 347.41 322.715 351.42 331.577C352.179 331.878 357.928 334.22 359.427 336.657C360.004 336.701 362.723 336.978 363.8 338.304C364.087 338.331 365.19 338.368 366.137 337.54C367.243 336.573 367.771 334.804 367.705 332.282L367.704 332.247L367.715 332.214L370.237 324.828L365.703 319.387L364.61 309.548L360.771 306.623L360.213 300.299L360.219 300.271C360.23 300.219 361.351 295.141 364.766 292.198C364.639 291.495 363.798 287.478 361.126 286.988L349.897 287.356L347.521 283.882H340.399L338.031 280.603L328.339 281.426L324.308 274.737L319.557 274.188L316.67 269.316L310.58 271.715L309.452 266.078L303.529 261.411L293.325 260.855L293.363 260.64C293.368 260.611 293.789 257.665 288.194 255.742L288.145 255.717L284.998 253.496L283.409 250.141L277.439 252.424C277.251 252.82 276.331 254.604 274.961 254.723C274.136 254.796 273.331 254.252 272.569 253.109L272.542 253.047L271.46 248.54L268.267 245.701L263.218 245.341L252.247 243.878L247.316 243.12L247.501 240.719C246.691 240.452 243.521 239.311 243.56 237.845C243.585 236.912 244.853 236.135 247.438 235.471C247.825 235.193 251.489 232.661 254.005 235.101L256.585 235.445C257.128 234.907 260.63 231.755 264.721 235.236L269.415 232.901L271.841 232.554L272.747 228.751L275.3 227.657L276.536 221.654C275.496 220.717 269.431 215.199 269.431 213.912C269.431 212.656 268.708 204.332 268.701 204.248L268.695 204.173L271.726 200.194L279.036 200.757L282.924 205.385L285.087 208.448L289.492 209.733L291.142 213.401L295.432 215.367L300.634 215.905C301.118 215.616 304.838 213.299 305.782 209.679C306.283 207.76 305.927 205.783 304.725 203.803L297.846 196.925L295.079 196.556L290.884 189.624L282.611 189.256L282.585 189.102C282.569 189.004 280.865 179.345 272.87 177.568L272.728 177.537L272.365 171.545H270.714L270.529 164.671L268.443 162.412H264.58L260.203 154.752L256.795 155.11L256.74 155.079C256.26 154.801 244.955 148.195 244.771 141.948L244.406 134.28L244.588 129.514L244.588 124.492L246.778 122.85L246.41 107.395L252.523 107.766L256.357 100.463L262.422 100.647L267.66 95.4089C267.684 95.382 268.399 94.6254 269.417 94.8094C270.454 94.9975 271.384 96.0811 272.177 98.0303L272.191 98.0957L272.374 102.662C272.365 102.757 272.161 104.25 270.473 105.563L270.403 105.598C270.378 105.604 267.882 106.27 266.995 107.934C266.627 108.624 266.585 109.401 266.872 110.243C267.156 110.573 269.703 113.6 271.084 117.4C271.094 117.411 273.628 121.629 278.547 120.927L278.609 120.918L278.665 120.948C278.73 120.982 285.238 124.396 288.621 124.396H288.683L297.762 130.881L297.944 137.274C298.662 137.788 303.63 141.397 304.506 143.324L304.522 143.383L305.238 150.192L309.382 151.273L309.423 151.335C309.475 151.414 314.802 159.213 328.164 156.924C328.409 156.667 329.698 155.212 329.683 153.111C329.67 151.299 328.716 149.495 326.848 147.747L313.642 136.926L313.47 134.862L310.277 135.395L307.429 131.756L306.323 126.779L306.335 126.733C306.348 126.683 306.674 125.49 307.87 125.003C308.954 124.563 310.365 124.852 312.065 125.864L321.578 126.962L328.152 132.258C328.78 132.321 333.597 132.998 338.637 139.08L344.667 146.571C344.707 146.615 349.524 151.868 352.732 151.014C353.962 150.687 354.818 149.478 355.278 147.421C355.124 146.646 352.531 134.39 342.604 129.514L336.027 126.225C336 126.214 332.613 124.636 334.1 119.061L334.128 119C334.155 118.962 336.863 115.24 342.976 119.13L349.877 124.034L356.312 124.217L358.154 126.981L363.438 128.448L367.229 130.976L371.803 131.158L378.557 136.452L387.898 136.272C387.992 136.144 388.195 135.794 388.119 135.225C387.989 134.256 387.052 132.637 383.324 130.42L383.261 130.382L383.239 130.312C383.206 130.211 379.869 120.19 370.067 119.121L353.05 118.75C352.716 118.658 344.861 116.453 345.42 111.054L345.43 111.009L347.151 106.19L342.838 106.729L343.429 100.943C343.442 100.915 344.785 98.0837 344.065 96.3399C343.836 95.7851 343.413 95.3952 342.808 95.1819L342.738 95.1385C342.679 95.0818 336.88 89.4718 334.728 88.0368L334.681 88.0058L334.658 87.9545C334.629 87.89 333.965 86.3587 335.043 84.6956C336.213 82.8914 339.661 80.7404 349.448 80.7404L349.496 80.7466L358.081 82.9386C358.217 82.9882 369.779 87.2571 375.84 83.8704C375.945 83.81 386.587 77.589 389.633 68.452L389.674 68.3305L398.939 67.6037V65.7441L403.249 66.1361L407.48 71.2868C407.862 71.5101 412.183 73.9393 414.506 70.9515L414.572 70.8668L418.271 71.2562L418.312 71.372C418.61 72.2215 419.636 74.4284 420.79 74.4362C421.603 74.4437 422.465 73.3184 423.244 71.1868L423.293 71.0549L433.782 71.4228C434.303 71.071 438.743 67.9481 438.577 63.9549L438.567 63.7349L442.894 64.1111L447.613 59.0365C447.688 58.9864 449.468 57.8214 451.289 58.4655C452.559 58.9145 453.51 60.1246 454.116 62.0627L454.129 62.1061L453.033 69.0502C453.079 69.2024 453.303 69.8258 453.91 70.0044C454.482 70.1731 455.561 69.9949 457.451 68.1912C457.499 68.1548 458.095 67.7517 459.01 68.0113C460.307 68.3793 461.529 69.8341 462.641 72.3365L473.172 72.1579C473.372 71.7817 474.102 70.5886 475.375 70.4629C476.596 70.343 477.916 71.2459 479.295 73.1493L482.885 77.6369L498.588 77.8171L501.502 73.993L501.584 73.9839C501.618 73.9802 505.033 73.6433 506.533 77.2065L508.282 79.8235L516.576 79.463L520.104 79.1099C520.291 78.6936 521.036 77.2706 522.656 76.8551C524.31 76.431 526.305 77.2008 528.583 79.1438L528.651 79.2017V82.9596L533.327 83.6525L536.849 80.4833V76.8266L545.434 69.5199V65.3113L549.165 62.5133C549.169 62.5079 549.619 62.0796 549.613 61.2425C549.608 60.4818 549.207 59.2175 547.324 57.5147L547.27 57.465L546.344 48.7676L548.547 41.4237L549.69 39.2764H552.729L559.101 37.8199L562.944 37.0877L567.44 35.8285L570.199 32.7006H573.381V28.7562L566.814 19.8177L566.807 19.7697L565.538 10.8808C565.29 10.6282 563.907 9.30241 562.112 9.28092C560.912 9.27471 559.789 9.82001 558.737 10.9255L558.645 11.0226L554.413 9.22717L553.689 6.21461L547.739 5.31336L541.35 0.20187C540.554 0.122494 531.542 -0.711781 528.619 1.71663C528.081 2.16353 527.784 2.70222 527.737 3.3178L527.554 10.2496C527.559 10.295 528.135 16.8845 531.634 18.2843L531.76 18.3347L531.571 24.0192L530.309 25.4616L531.059 29.404L529.708 29.597L528.805 33.0255L528.73 33.0652C528.488 33.1938 522.743 36.191 518.138 33.7965L518.066 33.7589L517.527 31.963C516.745 31.8055 511.75 31.0304 508.155 35.9314L508.1 36.0067L503.385 36.1881L502.837 37.6512L495.525 37.8385L491.276 35.2518C491.18 35.1976 488.796 33.8788 486.374 35.6094L486.318 35.6491L483.305 35.4717L482.932 36.965L479.238 36.0414L477.424 39.488L471.534 39.1201L468.252 42.038H462.762L461.473 39.4608L458.635 38.9601L458.28 40.2028L448.707 40.7659L445.702 35.4829C445.701 35.4829 445.356 34.5345 441.136 34.3658L429.314 33.8114L427.852 29.6078C427.195 29.5776 424.211 29.6107 423.43 32.5774L423.406 32.6716L420.49 33.8379L413.502 29.9762L410.178 29.607L400.856 19.0053L397.379 18.3095L394.106 22.127H390.965L389.32 18.1057L380.561 17.9271L369.771 25.7407L368.47 18.6795L364.724 19.1905C364.228 19.9628 360.041 26.3856 355.425 30.6604L355.367 30.7141L348.769 30.5256L348.721 30.4094C348.712 30.3875 348.469 29.843 347.59 29.5065C346.489 29.0852 344.322 28.979 340.25 30.8596L338.767 32.5282L332.579 33.2785L328.922 29.9869L321.632 30.5202C321.257 31.3388 318.674 35.9901 309.397 33.6287L305.703 33.2789C305.197 33.9764 301.915 37.9989 295.008 35.8334L290.518 36.9108L283.264 40.9007L281.748 42.6064L277.011 41.46L272.301 38.5612L261.171 37.4842C260.639 38.999 256.437 50.747 252.959 54.3979L252.907 54.4529L252.831 54.4574C252.743 54.4628 243.962 55.0453 241.847 58.9236L241.813 58.986L241.746 59.0116C241.697 59.0302 236.855 60.827 232.083 56.9933C231.525 56.799 223.379 54.0552 218.024 56.9913L217.911 57.0529L213.49 53.5529L198.226 55.3699C198.143 55.3897 187.961 57.7908 187.253 64.5138L187.246 64.5767L181.666 70.7147H176.546L171.264 75.996L163.094 77.6671L158.682 74.9096L157.158 74.7405L149.675 80.3985L129.822 79.4795L129.777 79.4485C129.714 79.4055 123.394 75.1609 116.996 78.0044C116.97 78.0226 112.169 80.9996 112.041 84.9449C111.97 87.1339 113.341 89.2337 116.115 91.1862C116.158 91.2152 120.729 94.3662 121.138 99.7663C121.465 104.093 119.106 108.621 114.126 113.223L114.091 113.249C114.056 113.269 110.525 115.286 104.892 116.195C104.863 116.205 99.5325 117.861 97.9301 122.796C97.9119 123.328 97.5861 130.941 93.8848 137.11C93.8013 137.213 87.2668 145.014 85.6359 146.646C85.5309 146.731 83.4266 148.372 81.2838 147.932C80.1928 147.709 79.2978 146.984 78.621 145.78L72.4979 145.255L71.2118 150.768L71.0174 150.714C70.9918 150.707 68.4332 150.022 66.5988 151.419C65.3301 152.385 64.6864 154.113 64.6864 156.556V156.624L64.6438 156.677C64.5983 156.733 60.1094 162.403 59.5716 171.363L59.5687 171.414L55.3618 177.816L53.527 188.825L53.4493 188.871C53.4282 188.883 51.3599 190.123 50.8195 192.44C50.4508 194.022 50.8654 195.74 52.0519 197.548C52.0921 197.597 57.2006 203.906 64.0042 206.055L64.0584 206.082L67.9462 208.876C68.0189 208.993 75.2355 220.482 79.8869 223.033H83.5617L94.0927 231.93L101.787 226.204C101.911 225.965 102.529 224.888 103.621 224.798C104.592 224.716 105.615 225.442 106.665 226.952C106.709 227.013 111.195 233.214 115.033 231.993L115.069 231.981L115.106 231.984C115.153 231.988 119.765 232.318 121.145 230.419L121.202 230.342L121.297 230.339C121.405 230.339 123.958 230.292 125.521 232.241C126.76 233.785 127.001 236.115 126.239 239.165L126.224 239.223L122.836 242.234H119.925L117.91 239.487L105.943 238.58C105.926 238.58 103.308 238.504 101.91 239.855C101.33 240.414 101.036 241.149 101.036 242.04L100.497 250.501L105.53 252.659L109.984 258.226L110.164 262.011L118.52 266.189L119.812 268.587L123.509 271.916L122.955 280.412C122.954 280.455 122.834 285.203 127.006 286.966C127.811 286.996 142.354 287.307 147.065 276.488Z" fill="#52843E" fill-opacity="0.13"/>
<path d="M452.039 407.545L447.733 415.62V421.223H452.921L458.295 413.879L457.239 407.545H452.039Z" fill="#52843E" fill-opacity="0.13"/>
<path d="M96.1155 259.159L95.8443 265.26L98.7643 268.426H105.219V260.742C104.817 260.251 101.681 256.736 96.1155 259.159Z" fill="#52843E" fill-opacity="0.13"/>
<path d="M114.535 268.814H109.443V274.181H114.535V268.814Z" fill="#52843E" fill-opacity="0.13"/>
<path d="M95.8147 272.079C93.0221 271.404 91.1679 271.543 90.4481 272.482C89.4998 273.719 90.6858 276.009 90.7813 276.187L96.0549 283.262C97.8826 284.153 99.2444 284.281 100.103 283.641C101.572 282.545 101.18 279.517 101.119 279.109L95.8147 272.079Z" fill="#52843E" fill-opacity="0.13"/>
<path d="M109.16 328.531L98.1599 326.33L93.7872 317.859H86.9745V327.803C86.2229 334.577 88.9605 340.95 89.371 341.857H101.321C100.095 337.287 103.123 336.126 103.155 336.115L103.221 336.104H109.141C112.059 331.401 109.515 328.852 109.16 328.531Z" fill="#52843E" fill-opacity="0.13"/>
<path d="M272.882 440.378L269.853 448.216L272.742 450.924V454.086L271.098 454.451V459.716L273.015 462.505H278.508C281.94 459.728 281.167 457.203 281.132 457.097L281.049 456.843L285.324 456.843V450.901L274.872 439.549L272.882 440.378Z" fill="#52843E" fill-opacity="0.13"/>
<path d="M303.225 326.239V320.598H298.288L297.433 326.239H303.225Z" fill="#52843E" fill-opacity="0.13"/>
<path d="M290.523 376.289H293.909V368.639H286.948L285.756 373.406L287.615 373.744L290.523 376.289Z" fill="#52843E" fill-opacity="0.13"/>
<path d="M282.459 365.751L286.603 366.911V361.971H283.298L282.459 365.751Z" fill="#52843E" fill-opacity="0.13"/>
<path d="M317.108 363.524H315.544L312.438 366.082H304.187L301.172 367.323L299.057 370.496C299.177 371.076 300.134 374.973 304.361 376.289H311.979L318.842 371.811V366.082H317.107V363.524H317.108Z" fill="#52843E" fill-opacity="0.13"/>
<path d="M322.768 343.425L322.066 338.704H316.488L314.032 342.192L315.28 351.994H321.856V349.735H324.048V347.267H322.384L322.768 343.425Z" fill="#52843E" fill-opacity="0.13"/>
<path d="M336.652 332.472H329.88L329.153 336.109L327.358 336.289V338.934H329.099L330.743 341.583H335.021L335.204 338.934H338.114V335.029H336.652V332.472Z" fill="#52843E" fill-opacity="0.13"/>
<path d="M314.939 352.382L314.927 352.288C314.094 351.544 309.087 345.473 308.259 344.467L300.128 344.345C295.305 345.089 294.324 342.321 294.285 342.203L292.481 334.99L288.084 333.708L288.067 333.584C287.09 326.749 285.367 323.531 285.043 322.973H280.654L278.279 318.589H272.642L267.892 312.927H264.268L258.605 308.908H255.298C252.871 312.369 250.029 311.095 250 311.082L249.947 311.057L247.418 306.902L240.162 307.083L240.111 307.049C238.063 305.684 232.94 301.572 232.307 301.062C230.353 301.311 228.164 301.746 227.977 302.027C227.918 302.207 227.773 302.222 227.731 302.222C227.599 302.222 227.326 302.222 226.555 299.934L222.744 299.241L220.007 301.796L216.15 301.217L216.11 301.112C213.809 295.096 202.519 294.845 202.405 294.843L202.305 294.842L202.248 294.759C199.949 291.399 195.84 290.646 195.799 290.639L195.639 290.611V288.597L191.409 287.716L186.807 286.831L185.917 288.61L185.825 288.629C174.775 290.946 173.2 295.992 173.185 296.043L173.145 296.182L168.114 296.183L164.319 298.11C160.642 300.871 155.418 298.401 155.197 298.294C152.654 296.366 150.455 295.76 148.628 296.472C145.196 297.81 144.157 303.395 144.146 303.451L144.149 309.24L143.992 309.27C140.34 309.965 139.588 315.622 139.581 315.679L139.561 315.838L136.63 316.022L136.257 318.071L131.804 317.285C128.109 315.185 126.627 315.307 126.035 315.779C125.236 316.415 125.687 317.959 125.692 317.974L125.7 318.03V325.251L130.267 329.452V332.266H133.809L139.654 338.316H144.118L144.147 338.476C144.663 341.422 158.183 349.087 158.824 349.449L164.781 350.938L164.79 351.079C165.145 356.576 170.848 360.024 170.906 360.058L170.961 360.09L170.986 360.148C176.451 373.019 162.424 381.606 161.292 382.272C159.748 387.881 162.695 390.927 162.724 390.957L168.067 396.3L168.981 402.698L172.959 407.037C174.117 408.655 175.277 409.443 176.405 409.397C177.996 409.333 179.033 407.633 179.044 407.617L179.082 407.552L179.154 407.531C184.689 405.871 187.285 408.744 187.393 408.868L187.43 408.934C188.39 411.813 194.874 414.028 196.066 414.413L197.079 410.867L195.275 408.702L195.091 401.168L193.975 396.892L199.731 390.022L199.772 390.004C206.042 387.238 212.537 394.728 212.601 394.804L212.65 394.862L212.648 394.937C212.308 404.447 217.125 406.933 217.603 407.155L223.018 406.781L226.16 420.826C228.23 431.693 233.968 435.375 234.438 435.66L242.562 436.719L241.857 428.614C240.593 427.004 240.147 425.699 240.532 424.735C240.879 423.865 241.79 423.553 242.191 423.455C241.37 418.059 242.158 415.66 242.969 414.597C243.568 413.814 244.189 413.737 244.215 413.734L247.34 413.213L247.702 406.698L247.779 406.645C251.467 404.063 262.108 407.213 262.559 407.348C269.153 409.729 274.164 422.801 274.375 423.357L274.391 423.4L274.021 426.916C274.187 430.371 277.364 431.359 277.685 431.45C277.897 431.44 278.11 431.435 278.322 431.435C284.813 431.435 291.18 436.14 291.954 436.731L296.456 435.518L295.925 427.907L287.181 420.802L285.689 416.698L286.058 406.351L288.996 403.597L289.507 401.383L282.581 394.275L282.759 390.192H278.853L276.55 387.504L277.09 382.1L272.917 380.83L271.814 369.614L268.244 364.973L263.681 364.426L261.037 361.187L260.314 358.477L255.381 350.794C254.629 348.815 254.563 347.173 255.183 345.917C255.859 344.548 257.098 344.163 257.15 344.147L257.199 344.139L268.098 343.763L267.978 344.044C266.958 346.423 271.513 349.438 271.56 349.468L271.606 349.498L274.12 354.885L283.099 352.73C287.585 351.981 288.575 353.847 288.615 353.927L288.635 353.996L289.182 359.841C289.018 362.175 295.046 365.563 295.615 365.876H298.147L298.676 363.252C301.261 357.343 312.466 358.694 312.943 358.754L313.041 358.766L314.129 360.761H317.048L316.203 357.719C315.858 355.316 315.337 352.737 315.03 352.381L314.939 352.382Z" fill="#52843E" fill-opacity="0.13"/>
<path d="M315.249 329.09H309.458V333.546H314.577L315.249 329.09Z" fill="#52843E" fill-opacity="0.13"/>
</svg>
