<svg width="463" height="326" viewBox="0 0 463 326" fill="none" xmlns="http://www.w3.org/2000/svg">
<path d="M259.912 13.4965C261.104 14.9177 262.313 15.6303 263.49 15.6144C264.951 15.5947 265.881 14.4386 265.89 14.427L265.928 14.379H270.154C270.269 11.7804 273.883 10.1694 274.039 10.1009C275.185 9.48325 275.848 8.80677 275.948 8.14971C276.033 7.58566 275.683 7.22356 275.668 7.20819L275.642 7.16911C275.069 5.83476 274.238 5.00649 273.17 4.70721C271.065 4.11782 268.707 5.77598 268.683 5.7927C266.488 7.549 264.458 6.14428 264.067 5.83934L261.377 7.1842L262.352 10.2306L262.172 10.2236C261.385 10.1942 260.788 10.4094 260.399 10.8659C259.648 11.7454 259.872 13.2622 259.912 13.4965Z" fill="#52843E" fill-opacity="0.13"/>
<path d="M238.485 87.7367C239.151 87.9076 239.988 87.4846 240.974 86.4786L241.58 83.124L242.871 83.0067V79.0999L241.844 76.9316C241.405 76.9306 238.976 77.0473 237.405 80.0555V86.5209C237.445 86.649 237.745 87.5463 238.485 87.7367Z" fill="#52843E" fill-opacity="0.13"/>
<path d="M256.537 98.7269C256.468 98.9823 256.599 99.3263 256.915 99.721L256.933 99.7445L257.761 103.645L259.205 104.368V106.292L262.41 108.924C262.808 108.561 264.528 107.097 265.946 107.507C266.711 107.727 267.247 108.451 267.541 109.658L267.544 109.688V110.395H272.564C272.754 109.687 273.873 104.986 270.603 103.38L265.982 103.136V99.4288L262.928 98.8634C262.646 99.1015 261.216 100.256 260.419 99.8952C260.099 99.7499 259.927 99.3942 259.908 98.8372L256.834 98.3818C256.767 98.415 256.592 98.5207 256.537 98.7269Z" fill="#52843E" fill-opacity="0.13"/>
<path d="M437.272 227.184L440.042 226.848L443.899 223.693V220.65L443.17 219.948H439.934C437.47 220.721 437.273 222.584 437.271 222.603L437.261 222.718H436.378V225.615L437.272 225.794L437.272 227.184Z" fill="#52843E" fill-opacity="0.13"/>
<path d="M256.568 170.765L257.889 168.842C258.148 167.695 258.03 166.89 257.541 166.449C256.717 165.708 255.071 166.197 254.855 166.266L250.509 170.142V175.899L254.234 175.442L256.803 174.41L256.568 170.765Z" fill="#52843E" fill-opacity="0.13"/>
<path d="M255.751 189.496H258.11L260.267 188.005L260.508 183.183H262.661L263.234 178.713L261.046 176.755L257.716 176.095L256.466 178.338V182.517L254.412 185.231L255.751 188.193V189.496Z" fill="#52843E" fill-opacity="0.13"/>
<path d="M245.122 176.467C244.275 175.89 243.206 176.121 243.051 176.159L239.294 178.741C238.591 181.145 240.727 182.181 241.09 182.337L245.52 180.355L246.205 178.645C246.092 177.613 245.728 176.88 245.122 176.467Z" fill="#52843E" fill-opacity="0.13"/>
<path d="M322.567 194.551V192.131H320.441L320.203 190.583H317.662L317.095 192.283L315.898 194.422L313.885 193.73V195.666L309.113 197.456L308.355 205.964L310.287 206.412H314.228V205.34H317.968L320.304 200.514L320.316 197.312L321.286 195.249L322.567 194.551Z" fill="#52843E" fill-opacity="0.13"/>
<path d="M218.103 94.3134L218.159 94.3148L218.196 94.3582C218.221 94.387 220.659 97.2315 223.154 95.6434L223.195 95.6264C223.206 95.624 224.308 95.3754 224.769 94.5275C225.037 94.0338 225.04 93.4277 224.777 92.7259C224.672 92.5706 223.418 90.7649 221.561 90.8725L221.428 90.8803L221.428 90.7466C221.428 90.7207 221.409 88.1421 219.953 87.1019C219.238 86.5912 218.284 86.5295 217.117 86.9183L216.626 87.901L216.541 87.894C216.534 87.8935 216.312 87.8765 215.99 87.8765C215.293 87.8765 214.125 87.9558 213.652 88.4516C213.492 88.6196 213.428 88.8194 213.459 89.0625L213.461 89.072L213.461 89.0814C213.456 89.2906 213.403 94.1988 218.103 94.3134Z" fill="#52843E" fill-opacity="0.13"/>
<path d="M231.739 89.7964L234.651 87.117V81.8874C234.334 81.7246 232.877 81.0427 231.258 81.3344C230.989 81.5504 228.49 83.6488 228.709 86.5297L228.696 90.4697L231.739 89.7964Z" fill="#52843E" fill-opacity="0.13"/>
<path d="M391.362 213.013L389.2 214.801L390.297 218.159L391.391 219.892L393.496 220.416L393.073 219.26L395.317 216.6L398.956 217.579L399.416 215.201L402.344 212.765H405.249L410.411 213.663L411.114 211.907L415.144 211.147L416.064 205.102L409.005 204.408L406.27 208.571H399.59L396.259 212.556L391.362 213.013Z" fill="#52843E" fill-opacity="0.13"/>
<path d="M281.005 179.23L281.006 181.347L282.096 182.353L281.583 184.107L280.173 184.93V187.828H285.073L286.622 182.349H289.689V179.276L286.788 176.998C286.313 176.958 281.329 176.6 281.005 179.23Z" fill="#52843E" fill-opacity="0.13"/>
<path d="M308.705 42.8484L305.83 45.7236H303.788L302.335 42.3323C301.645 41.6092 301.036 41.2962 300.519 41.4019C299.932 41.5227 299.64 42.1652 299.59 42.2859V44.7708H293.685L292.753 43.6055C290.731 44.4502 289.464 47.055 289.452 47.0817C288.689 48.825 288.605 50.3368 289.204 51.5711C290.067 53.3501 292.091 53.9791 292.326 54.0468L297.128 53.4611L298.792 50.9642L301.328 50.457L303.845 56.5707C306.134 57.1749 307.061 56.8465 307.434 56.4623C307.888 55.995 307.684 55.2908 307.682 55.2835L307.676 55.2471V53.222C307.078 50.0051 308.025 48.8951 308.065 48.8496L311.507 45.0517C311.964 44.008 312.013 43.28 311.65 42.888C310.956 42.136 308.96 42.7642 308.705 42.8484Z" fill="#52843E" fill-opacity="0.13"/>
<path d="M315.317 179.151C315.772 178.066 315.837 177.113 315.507 176.318C315.107 175.351 314.237 174.924 314.09 174.858H309.597V176.934L309.497 176.955C308.092 177.251 307.14 177.87 306.667 178.795C305.953 180.193 306.549 181.893 306.696 182.267H307.326V182.519H304.832V184.89L309.547 186.731L315.317 179.151Z" fill="#52843E" fill-opacity="0.13"/>
<path d="M281.442 222.014L278.867 226.813C278.986 227.535 279.325 228.046 279.877 228.332C281.681 229.268 285.222 227.625 285.662 227.414L286.933 223.892L284.879 221.097L281.442 222.014Z" fill="#52843E" fill-opacity="0.13"/>
<path d="M311.608 221.78V217.982H309.344V212.502H306.428L304.832 214.212V219.466L307.493 221.78H311.608Z" fill="#52843E" fill-opacity="0.13"/>
<path d="M286.298 165.201C289.089 165.612 289.992 165.207 290.257 164.793C290.526 164.375 290.189 163.846 290.185 163.841L290.146 163.78L290.178 163.715C290.446 163.18 290.486 162.651 290.297 162.144C289.813 160.847 287.998 160.084 287.979 160.076L287.942 160.061L287.306 159.043V155.797H282.779V152.938H281.231V150.901L275.873 150.331L275.172 158.854L277.736 162.7L284.391 163.412L286.298 165.201Z" fill="#52843E" fill-opacity="0.13"/>
<path d="M269.076 191.672L268.532 190.583H263.41L258.281 194.446L258.932 202.469L263.618 202.01L268.607 196.834L269.076 191.672Z" fill="#52843E" fill-opacity="0.13"/>
<path d="M269.117 223.789L270.065 220.708H275.155V216.791H269.222C265.737 217.755 265.631 222.47 265.637 223.228L269.117 223.789Z" fill="#52843E" fill-opacity="0.13"/>
<path d="M261.103 218.521L261.675 214.289H257.419V216.043L253.488 217.234V222.164L255.867 225.62L261.103 218.521Z" fill="#52843E" fill-opacity="0.13"/>
<path d="M277.537 199.245L273.984 198.117L272.551 201.67C272.85 203.742 272.658 205.072 271.979 205.623C271.599 205.931 271.178 205.902 270.966 205.86L270.295 208.654L271.79 210.609C272.897 211.175 273.821 211.279 274.535 210.918C275.622 210.37 275.869 208.916 275.871 208.901L275.881 208.842L277.537 207.895V199.245Z" fill="#52843E" fill-opacity="0.13"/>
<path d="M327.569 241.198H330.898C334.224 240.384 335.189 236.45 335.198 236.411L335.994 233.111H330.384L327.114 237.9L327.569 241.198Z" fill="#52843E" fill-opacity="0.13"/>
<path d="M384.647 197.478H387.513L387.871 195.572H388.921V192.362C388.921 192.148 388.989 192.009 389.121 191.948C389.31 191.861 389.571 191.989 389.755 192.11V190.583H385.385L381.788 192.439V195.686L384.647 195.566V197.478Z" fill="#52843E" fill-opacity="0.13"/>
<path d="M340.451 141.005V141.964H343.422C345.02 141.75 347.388 139.383 347.703 139.061V134.732L349.086 134.292C350.919 133.143 351.886 131.849 351.961 130.447C352.081 128.18 349.8 126.364 349.777 126.346L349.721 126.303L350.1 123.023H352.111V119.818L347.862 119.703L346.273 120.629V116.247H343.528L343.293 117.663L341.347 117.922L340.381 116.837L334.988 116.251C333.304 117.14 332.312 118.2 332.039 119.403C331.712 120.84 332.554 121.99 332.563 122.002L335.09 124.768V126.649L339.381 129.033L339.257 132.379L336.043 135.355V138.708L338.116 141.127L340.451 141.005Z" fill="#52843E" fill-opacity="0.13"/>
<path d="M26.6662 83.7847H23.4556L22.0873 86.0082C22.1474 86.3717 22.6848 88.994 25.728 89.9652H28.7984V85.5717H26.8447L26.6662 83.7847Z" fill="#52843E" fill-opacity="0.13"/>
<path d="M55.3188 152.328L63.808 152.334C63.8196 152.338 64.9766 152.689 66.1074 151.949C67.2786 151.183 68.0103 149.57 68.2821 147.152C67.7795 146.781 64.5368 144.309 64.7665 142.567L61.3828 142.392L59.3547 139.811V136.636L55.8009 135.207V131.316H49.5309C49.2532 131.636 47.4311 133.947 48.873 137.863C48.9347 137.957 49.2354 138.463 48.9639 138.964C48.5915 139.653 47.3332 139.966 45.2245 139.895C45.001 140.06 43.6998 141.084 43.575 142.623C43.4822 143.76 44.0414 144.921 45.2366 146.074H49.4748C49.515 146.072 50.6193 146.021 51.2823 146.879C51.8571 147.622 51.9076 148.794 51.4333 150.363H55.3193V152.328H55.3188Z" fill="#52843E" fill-opacity="0.13"/>
<path d="M17.1178 68.4163L17.0785 68.4119L17.0485 68.3861C16.4484 67.866 16.2025 67.3227 16.3173 66.7718C16.6312 65.2663 19.5792 64.2409 20.0677 64.0805C20.8796 61.3644 19.0267 59.4641 19.0076 59.4449C16.2656 57.3899 13.1231 59.4398 13.0916 59.4608L13.014 59.5126L12.9417 59.4536C9.14788 56.3497 6.35327 59.4085 6.3255 59.4398L6.28047 59.4905L6.21334 59.4811C3.55381 59.1012 1.8002 59.391 1.14098 60.3193C0.48176 61.2476 1.09191 62.5515 1.15608 62.6825L6.30474 69.0372C12.4777 70.9003 14.0932 74.5633 14.2076 74.8418L16.3572 77.8985C17.4584 81.045 21.2066 80.1612 21.8297 79.9897V74.7237C22.0028 69.0059 17.1666 68.4214 17.1178 68.4163Z" fill="#52843E" fill-opacity="0.13"/>
<path d="M329.252 215.05V217.58L330.251 219.133L333.476 217.981L336.505 215.884V211.381H332.99L329.252 215.05Z" fill="#52843E" fill-opacity="0.13"/>
<path d="M358.181 227.036H354.27V232.207L358.031 235.028C358.039 235.034 358.618 235.472 359.25 235.229C359.961 234.957 360.5 233.926 360.809 232.247L360.807 229.905C360.812 229.806 360.882 227.605 358.181 227.036Z" fill="#52843E" fill-opacity="0.13"/>
<path d="M340.908 212.549C341.747 213.118 343.129 212.394 343.332 212.281L349.93 202.031L348.494 200.668H344.573L340.327 209.317C340.07 211.026 340.265 212.113 340.908 212.549Z" fill="#52843E" fill-opacity="0.13"/>
<path d="M374.496 93.8579C374.201 93.3362 371.525 88.6683 368.979 86.1045L364.933 85.8664L362.952 84.1325V81.9739L363.019 81.9383C363.037 81.9289 364.83 80.9677 364.931 79.4158C365.003 78.2958 364.195 77.1326 362.529 75.9587L358.146 73.5909C357.957 73.5408 355.71 72.9797 354.908 74.3698L353.742 76.825L349.529 76.3434C349.277 76.5152 347.796 77.6009 348.306 79.0294L348.341 79.1278L348.251 79.1807C348.231 79.1925 346.291 80.3352 345.335 81.0413V81.6997L339.455 81.6943C339.444 81.6911 338.337 81.3748 337.23 82.0637C336.153 82.7348 335.432 84.0999 335.088 86.1212L335.09 89.1358L337.754 91.2203L342.841 91.8118L344.239 91.811L346.927 91.11L350.989 86.5879H354.858C354.908 86.5952 355.156 86.6491 355.336 86.9697C355.562 87.3728 355.683 88.2391 354.976 90.0765L354.965 90.1056L354.941 90.1261C354.913 90.1512 352.062 92.6271 348.656 94.0526C348.602 94.3624 348.408 95.7121 348.931 96.5024C349.126 96.7981 349.405 96.9842 349.761 97.0551L349.801 97.0632L350.983 98.363H355.938V99.5542H366.117L366.155 99.6014C366.967 100.609 368.029 101.6 368.329 101.446C368.401 101.409 368.604 101.175 368.198 99.7143L368.192 99.6928L368.453 96.4598L373.707 96.3401L374.496 93.8579Z" fill="#52843E" fill-opacity="0.13"/>
<path d="M354.937 167.088C353.852 168.15 351.194 167.22 350.904 167.114H343.492L340.789 171.491L340.15 172.282C338.248 173.267 337.636 174.152 337.459 174.72C337.308 175.203 337.456 175.503 337.458 175.506L338.26 177.226H344.049C344.987 174.764 346.797 175.145 347.012 175.201H354.784L357.405 170.555H363.309V164.375H359.302L354.937 167.088Z" fill="#52843E" fill-opacity="0.13"/>
<path d="M298.595 193.682L297.139 197.294L296.105 199.97L291.092 201.522C290.912 201.86 289.771 204.141 290.412 206.385C290.419 206.419 290.537 206.981 291.148 207.257C291.718 207.514 292.846 207.56 294.98 206.317L296.972 204.482H299.524L303.507 199.821V196.056C303.507 196.045 303.52 195.544 303.021 195.012C302.487 194.445 301.287 193.757 298.595 193.682Z" fill="#52843E" fill-opacity="0.13"/>
<path d="M311.86 230.181V235.028L309.001 234.789V236.977H311.929L311.122 238.782L310.399 239.359V240.762L311.86 241.358V244.175H313.595L316.738 241.615L316.96 239.945L315.723 238.888L315.301 236.396L318.636 237.117V234.937L316.284 232.173C313.116 229.467 312.042 230.04 311.86 230.181Z" fill="#52843E" fill-opacity="0.13"/>
<path d="M246.806 145.853L246.816 145.898C246.929 149.152 250.44 151.584 250.678 151.745L255.428 153.407C262.685 154.653 263.366 153.488 263.372 153.477L263.385 153.44L263.413 153.424L265.982 151.556V147.008L264.343 144.082L252.724 135.426H247.909L245.646 128.636H244.311L243.586 120.54C243.788 118.395 243.201 117.782 243.075 117.676H235.279L233.971 113.278L227.816 113.87L226.02 111.835L216.499 111.121L214.518 109.388V105.477L212.682 104.559C208.419 101.91 205.917 105.326 205.813 105.473L205.775 105.526H204.022L202.01 104.034V100.188C201.074 98.3857 197.275 97.9055 197.237 97.9009L191.421 97.0869V98.3784H189.396V99.1838L189.302 99.2083C185.751 100.124 185.821 104.4 185.823 104.443L185.826 104.573H182.368V107.77L188.952 107.535L191.112 109.096L192.939 109.583L192.962 109.643C193.863 112.009 200.347 115.545 200.747 115.761L202.31 116.002L206.228 119.326L209.962 118.964L210.456 120.2L212.729 121.397L213.436 124.458L215.405 124.574L221.003 128.862L228.294 129.101L229.007 130.17L235.726 130.05L235.966 132.57L239.84 133.157L244.675 137.87L244.672 137.927C244.556 140.489 246.784 145.8 246.806 145.853Z" fill="#52843E" fill-opacity="0.13"/>
<path d="M302.482 167.812L299.923 167.114H292.328L289.941 167.569V168.536L289.484 171.641H291.924L292.402 172.822C295.682 172.987 298.255 176.28 298.581 176.715L301.611 177.205L301.963 172.634L304.53 170.943L302.482 167.812Z" fill="#52843E" fill-opacity="0.13"/>
<path d="M52.746 124.282L58.1713 125.384L61.1207 120.822C60.881 120.391 59.6742 118.102 60.1325 116.392C60.2943 115.788 60.6483 115.323 61.1854 115.01C61.3849 114.765 63.6198 111.96 62.8303 110.507C62.413 109.738 61.201 109.461 59.2274 109.683C59.1285 110.084 58.6445 111.638 57.1058 111.66C56.9435 111.753 56.0753 112.278 55.8755 113.011C55.7879 113.331 55.8418 113.654 56.0351 113.97L56.092 114.063L52.7951 116.794C52.6158 117.219 50.4737 122.45 52.746 124.282Z" fill="#52843E" fill-opacity="0.13"/>
<path d="M96.4737 131.318L97.3278 127.771L99.8224 128.165L99.4551 132.571C99.4554 132.586 99.4471 135.008 101.127 136.646C102.225 137.716 103.793 138.226 105.79 138.16C106.146 137.818 108.82 135.333 110.906 136.008L116.209 136.126L119.901 133.744H123.91L124.39 132.784L128.764 133.149L135.946 134.286L135.968 134.299C135.982 134.308 137.469 135.187 143.3 135.77L143.354 135.775L144.547 137.327L146.661 137.661L149.753 129.694H154.55L160.071 137.329L162.275 133.383L164.736 133.506C164.785 133.512 165.661 133.66 165.919 135.694L172.027 138.747H175.866L175.904 138.791C175.927 138.817 178.256 141.397 186.67 142.799L189.462 143.535C189.516 143.573 190.786 144.487 190.786 145.739C190.786 146.479 190.341 147.169 189.462 147.792L189.429 147.815H180.854L178.079 149.896V150.725L181.571 153.519H183.379L185.069 155.933C185.235 156.025 186.346 156.546 187.496 154.768L187.529 154.718L190.786 154.337V156.072H200.789L205.909 152.806L209.602 152.687C209.935 152.472 212.624 150.826 214.939 151.984L214.983 152.006L215.001 152.052C215.044 152.168 216.052 154.855 215.966 156.153L218.283 158.652L222.413 159.478C222.483 159.504 227.134 161.466 229.749 167.246C230.244 167.442 233.993 168.97 234.971 170.559C235.347 170.588 237.12 170.768 237.822 171.633C238.009 171.65 238.729 171.675 239.346 171.135C240.068 170.504 240.412 169.35 240.369 167.706L240.368 167.683L240.376 167.661L242.021 162.844L239.063 159.296L238.351 152.879L235.847 150.972L235.483 146.847L235.487 146.829C235.494 146.795 236.225 143.483 238.453 141.564C238.37 141.105 237.821 138.486 236.078 138.166L228.756 138.406L227.206 136.141H222.561L221.017 134.002L214.696 134.539L212.067 130.176L208.968 129.819L207.085 126.641L203.114 128.205L202.378 124.529L198.515 121.485L191.861 121.123L191.886 120.982C191.889 120.964 192.163 119.043 188.514 117.788L188.482 117.772L186.43 116.323L185.394 114.136L181.5 115.624C181.378 115.883 180.778 117.046 179.884 117.124C179.346 117.172 178.821 116.816 178.324 116.071L178.306 116.031L177.601 113.091L175.518 111.24L172.225 111.005L165.07 110.051L161.855 109.556L161.975 107.99C161.447 107.816 159.38 107.072 159.405 106.116C159.422 105.508 160.249 105.001 161.934 104.568C162.186 104.386 164.576 102.736 166.217 104.327L167.9 104.551C168.254 104.2 170.538 102.145 173.206 104.415L176.267 102.892L177.849 102.665L178.44 100.185L180.105 99.4718L180.912 95.5569C180.233 94.946 176.278 91.3471 176.278 90.508C176.278 89.6889 175.806 84.2599 175.802 84.2051L175.797 84.1566L177.775 81.5615L182.542 81.9282L185.077 84.9469L186.488 86.9442L189.361 87.7822L190.437 90.1748L193.235 91.4565L196.627 91.8076C196.943 91.6194 199.369 90.1082 199.985 87.7474C200.311 86.4958 200.079 85.2065 199.296 83.915L194.809 79.4291L193.005 79.1886L190.268 74.6676L184.873 74.4279L184.856 74.3271C184.846 74.2637 183.735 67.9641 178.521 66.8055L178.428 66.7847L178.191 62.8771H177.115L176.993 58.3939L175.633 56.9207H173.114L170.259 51.9252L168.037 52.159L168.001 52.1384C167.688 51.957 160.315 47.6488 160.195 43.5748L159.957 38.5736L160.076 35.4654L160.076 32.1906L161.504 31.1197L161.264 21.0405L165.25 21.2821L167.751 16.5193L171.706 16.6392L175.123 13.2232C175.138 13.2056 175.604 12.7122 176.268 12.8322C176.945 12.9549 177.551 13.6616 178.068 14.9328L178.078 14.9754L178.197 17.9536C178.191 18.0154 178.058 18.9893 176.957 19.8453L176.911 19.868C176.895 19.8723 175.267 20.3066 174.689 21.3918C174.449 21.8418 174.422 22.3487 174.609 22.8979C174.794 23.1131 176.455 25.0872 177.356 27.565C177.362 27.5723 179.015 30.3235 182.223 29.8657L182.263 29.8598L182.3 29.8789C182.342 29.9013 186.587 32.1278 188.793 32.1278H188.833L194.754 36.3573L194.873 40.5267C195.341 40.8619 198.581 43.2154 199.152 44.4721L199.163 44.5109L199.63 48.951L202.333 49.6561L202.359 49.6965C202.394 49.748 205.868 54.8346 214.582 53.3415C214.741 53.1741 215.582 52.2255 215.573 50.8548C215.564 49.6736 214.942 48.4967 213.723 47.3567L205.111 40.2997L204.999 38.9535L202.916 39.3008L201.059 36.9279L200.337 33.6816L200.345 33.652C200.354 33.6191 200.567 32.8412 201.347 32.5239C202.053 32.2365 202.974 32.4252 204.083 33.0855L210.287 33.8013L214.574 37.2549C214.983 37.2964 218.125 37.7378 221.412 41.7044L225.344 46.59C225.371 46.6188 228.512 50.044 230.605 49.4875C231.406 49.274 231.965 48.4856 232.265 47.144C232.164 46.6387 230.473 38.6459 223.999 35.4654L219.71 33.3209C219.692 33.3133 217.483 32.2845 218.453 28.6484L218.471 28.6085C218.489 28.5837 220.255 26.1566 224.242 28.6937L228.743 31.8916L232.939 32.0113L234.14 33.8135L237.586 34.7706L240.059 36.4188L243.042 36.538L247.446 39.9902L253.538 39.8732C253.6 39.7896 253.732 39.5612 253.683 39.19C253.598 38.5585 252.987 37.5022 250.556 36.0564L250.514 36.0319L250.5 35.9863C250.479 35.9203 248.302 29.3847 241.91 28.6875L230.812 28.4454C230.594 28.3858 225.471 26.9473 225.835 23.4264L225.842 23.397L226.964 20.2546L224.152 20.6062L224.537 16.8326C224.546 16.814 225.422 14.9676 224.952 13.8304C224.803 13.4685 224.527 13.2143 224.132 13.0751L224.086 13.0468C224.048 13.0099 220.266 9.35117 218.862 8.41532L218.832 8.3951L218.817 8.36166C218.798 8.3196 218.365 7.32093 219.068 6.23625C219.831 5.05963 222.08 3.6568 228.463 3.6568L228.494 3.66084L234.093 5.09036C234.182 5.12272 241.722 7.90681 245.675 5.69809C245.743 5.65872 252.684 1.60149 254.67 -4.35738L254.697 -4.43665L260.739 -4.91063V-6.12339L263.55 -5.86779L266.31 -2.50859C266.558 -2.363 269.376 -0.778717 270.892 -2.72726L270.935 -2.78252L273.347 -2.52855L273.374 -2.45305C273.568 -1.89899 274.237 -0.459751 274.99 -0.454628C275.52 -0.449776 276.082 -1.18369 276.591 -2.57384L276.622 -2.65985L283.463 -2.41989C283.803 -2.64933 286.698 -4.68605 286.59 -7.2903L286.584 -7.43373L289.405 -7.18838L292.483 -10.498C292.532 -10.5306 293.693 -11.2904 294.881 -10.8703C295.709 -10.5775 296.329 -9.78833 296.724 -8.52435L296.733 -8.49604L296.018 -3.96724C296.048 -3.86802 296.194 -3.46143 296.59 -3.34495C296.963 -3.23495 297.667 -3.35116 298.899 -4.52751C298.931 -4.55124 299.319 -4.81411 299.916 -4.64479C300.762 -4.40483 301.559 -3.45604 302.284 -1.82403L309.152 -1.94051C309.283 -2.18586 309.759 -2.96399 310.589 -3.04595C311.385 -3.12414 312.246 -2.53529 313.145 -1.29396L315.487 1.63276L325.728 1.75032L327.628 -0.743668L327.682 -0.749599C327.704 -0.752026 329.931 -0.971764 330.909 1.35209L332.05 3.05878L337.459 2.82368L339.76 2.59342C339.882 2.32191 340.368 1.39388 341.425 1.12291C342.503 0.846283 343.804 1.34832 345.29 2.61553L345.334 2.65327V5.10411L348.384 5.556L350.681 3.48909V1.10431L356.279 -3.66095V-6.40568L358.713 -8.23046C358.715 -8.23397 359.009 -8.51329 359.005 -9.05927C359.002 -9.55537 358.74 -10.3799 357.512 -11.4904L357.477 -11.5228L356.873 -17.195L358.31 -21.9846L359.055 -23.385H361.037L365.193 -24.3348L367.699 -24.8123L370.631 -25.6336L372.431 -27.6735H374.506V-30.246L370.223 -36.0754L370.219 -36.1067L369.391 -41.9038C369.229 -42.0685 368.327 -42.9332 367.156 -42.9472C366.374 -42.9513 365.642 -42.5956 364.955 -41.8747L364.895 -41.8113L362.135 -42.9823L361.664 -44.947L357.783 -45.5348L353.616 -48.8683C353.097 -48.9201 347.22 -49.4642 345.314 -47.8805C344.962 -47.589 344.769 -47.2377 344.738 -46.8362L344.619 -42.3155C344.622 -42.2858 344.998 -37.9884 347.28 -37.0754L347.362 -37.0426L347.238 -33.3353L346.415 -32.3946L346.905 -29.8235L346.023 -29.6976L345.435 -27.4616L345.386 -27.4357C345.228 -27.3519 341.481 -25.3971 338.478 -26.9588L338.431 -26.9833L338.079 -28.1545C337.569 -28.2573 334.311 -28.7628 331.967 -25.5665L331.931 -25.5174L328.856 -25.399L328.499 -24.4449L323.73 -24.3227L320.959 -26.0097C320.896 -26.045 319.342 -26.9051 317.762 -25.7765L317.726 -25.7506L315.761 -25.8663L315.517 -24.8924L313.109 -25.4947L311.925 -23.2469L308.084 -23.4869L305.943 -21.5839H302.363L301.522 -23.2647L299.672 -23.5912L299.44 -22.7808L293.197 -22.4135L291.237 -25.859C291.236 -25.859 291.012 -26.4775 288.259 -26.5875L280.549 -26.9491L279.595 -29.6906C279.167 -29.7103 277.221 -29.6887 276.712 -27.7539L276.696 -27.6924L274.794 -26.9318L270.237 -29.4503L268.069 -29.6911L261.99 -36.6052L259.722 -37.059L257.588 -34.5693H255.539L254.466 -37.1919L248.754 -37.3084L241.717 -32.2126L240.868 -36.8177L238.425 -36.4844C238.101 -35.9808 235.371 -31.792 232.361 -29.0041L232.323 -28.9691L228.02 -29.092L227.988 -29.1678C227.983 -29.1821 227.824 -29.5372 227.251 -29.7566C226.533 -30.0314 225.12 -30.1007 222.464 -28.8742L221.497 -27.786L217.461 -27.2966L215.076 -29.4433L210.322 -29.0955C210.077 -28.5617 208.393 -25.5282 202.343 -27.0682L199.934 -27.2963C199.603 -26.8415 197.463 -24.2181 192.958 -25.6304L190.03 -24.9277L185.299 -22.3256L184.31 -21.2132L181.221 -21.9608L178.149 -23.8514L170.891 -24.5538C170.544 -23.5659 167.803 -15.9041 165.535 -13.5231L165.501 -13.4872L165.452 -13.4843C165.394 -13.4808 159.667 -13.1009 158.288 -10.5716L158.266 -10.5309L158.222 -10.5141C158.19 -10.502 155.032 -9.33024 151.92 -11.8304C151.556 -11.9571 146.244 -13.7466 142.751 -11.8318L142.678 -11.7916L139.794 -14.0742L129.839 -12.8892C129.785 -12.8763 123.145 -11.3103 122.683 -6.92577L122.679 -6.88479L119.04 -2.88175H115.701L112.256 0.562641L106.927 1.65244L104.05 -0.145916L103.056 -0.256191L98.1758 3.43383L85.2284 2.83445L85.1987 2.81424C85.1575 2.7862 81.0358 0.0180092 76.8632 1.87245C76.8462 1.88432 73.7154 3.82585 73.632 6.39883C73.5857 7.82646 74.4795 9.19587 76.2889 10.4693C76.3172 10.4882 79.2978 12.5432 79.5645 16.065C79.7783 18.8871 78.2396 21.8399 74.9915 24.8413L74.9691 24.8578C74.9462 24.871 72.6431 26.1867 68.9695 26.7794C68.9509 26.7861 65.4742 27.8657 64.4291 31.0844C64.4173 31.4311 64.2048 36.3962 61.7909 40.4194C61.7364 40.4868 57.4748 45.5746 56.4112 46.6385C56.3427 46.694 54.9703 47.7644 53.5729 47.4775C52.8614 47.3317 52.2776 46.8593 51.8363 46.0736L47.8429 45.7315L47.0041 49.3269L46.8774 49.2918C46.8607 49.2872 45.192 48.8407 43.9957 49.7512C43.1683 50.3813 42.7485 51.5083 42.7485 53.1015V53.146L42.7207 53.1808C42.691 53.2175 39.7635 56.9148 39.4127 62.7585L39.4108 62.7919L36.6672 66.9673L35.4706 74.1467L35.4199 74.1766C35.4062 74.1847 34.0573 74.9936 33.7049 76.5045C33.4644 77.5361 33.7348 78.6566 34.5086 79.8357C34.5348 79.8675 37.8665 83.9824 42.3036 85.3836L42.3389 85.4012L44.8744 87.2238C44.9219 87.2995 49.6283 94.7926 52.6618 96.4564H55.0585L61.9265 102.259L66.9447 98.5244C67.0256 98.3685 67.4284 97.6659 68.1404 97.6071C68.774 97.554 69.4408 98.0275 70.1259 99.0124C70.1542 99.052 73.0799 103.096 75.583 102.3L75.6065 102.292L75.631 102.294C75.6612 102.296 78.6691 102.512 79.5696 101.273L79.6063 101.223L79.6683 101.221C79.7389 101.221 81.4036 101.191 82.423 102.461C83.2311 103.468 83.3885 104.988 82.8913 106.977L82.8819 107.015L80.6724 108.979H78.7737L77.4596 107.187L69.6552 106.596C69.6436 106.596 67.9363 106.546 67.0245 107.427C66.6467 107.792 66.455 108.271 66.455 108.852L66.1032 114.37L69.3858 115.778L72.2902 119.408L72.4077 121.877L77.8573 124.601L78.6998 126.166L81.1113 128.336L80.75 133.877C80.7489 133.905 80.6707 137.002 83.3917 138.152C83.9167 138.171 93.4014 138.374 96.4737 131.318Z" fill="#52843E" fill-opacity="0.13"/>
<path d="M295.37 216.791L292.561 222.057V225.711H295.945L299.45 220.921L298.761 216.791H295.37Z" fill="#52843E" fill-opacity="0.13"/>
<path d="M63.2458 120.017L63.069 123.996L64.9733 126.061H69.1829V121.049C68.9208 120.729 66.8755 118.436 63.2458 120.017Z" fill="#52843E" fill-opacity="0.13"/>
<path d="M75.2587 126.313H71.9373V129.814H75.2587V126.313Z" fill="#52843E" fill-opacity="0.13"/>
<path d="M63.0495 128.443C61.2283 128.003 60.019 128.093 59.5496 128.706C58.9311 129.512 59.7046 131.006 59.7669 131.122L63.2062 135.736C64.3982 136.317 65.2863 136.401 65.8463 135.983C66.8043 135.269 66.5487 133.294 66.509 133.028L63.0495 128.443Z" fill="#52843E" fill-opacity="0.13"/>
<path d="M71.7532 165.259L64.5791 163.824L61.7274 158.299H57.2843V164.784C56.7941 169.202 58.5795 173.358 58.8473 173.95H66.6409C65.8415 170.969 67.8162 170.213 67.8367 170.205L67.8798 170.198H71.741C73.6435 167.131 71.9848 165.468 71.7532 165.259Z" fill="#52843E" fill-opacity="0.13"/>
<path d="M324.712 18.4691L320.959 19.1725L320.332 18.0428C319.558 17.4367 318.778 17.1986 318.013 17.3361C316.581 17.5934 315.662 19.0819 315.653 19.097L315.614 19.1628L315.537 19.1574C312.48 18.9385 311.811 20.5252 311.741 20.7201V23.542L316.831 23.1869L317.191 24.5043H320.281C323.81 22.7312 324.637 20.6131 324.712 20.4039V18.4691Z" fill="#52843E" fill-opacity="0.13"/>
<path d="M178.528 238.203L176.553 243.315L178.437 245.081V247.143L177.365 247.382V250.815L178.615 252.634H182.197C184.435 250.823 183.932 249.176 183.909 249.107L183.855 248.942L186.643 248.941V245.066L179.826 237.663L178.528 238.203Z" fill="#52843E" fill-opacity="0.13"/>
<path d="M418.71 232.012L418.704 231.972V229.507H414.489V230.669H412.612V234.116C412.613 234.185 412.634 235.797 414.115 236.309H415.946L415.916 236.46C415.81 236.988 415.769 237.525 415.822 237.653H422.992V236.614L423.87 236.346L423.454 233.688C422.528 233.518 418.978 232.816 418.71 232.012Z" fill="#52843E" fill-opacity="0.13"/>
<path d="M305.922 289.185C305.302 288.814 304.704 288.627 304.134 288.627C303.873 288.627 303.619 288.667 303.371 288.745C302.21 289.111 301.49 290.248 301.234 290.721C304.59 290.241 305.91 290.134 306.456 290.138L305.922 289.185Z" fill="#52843E" fill-opacity="0.13"/>
<path d="M198.317 163.765V160.086H195.097L194.54 163.765H198.317Z" fill="#52843E" fill-opacity="0.13"/>
<path d="M449.277 234.869H446.663L442.567 238.43L438.554 239.5L435.401 243.008L435.76 246.42L434.936 246.969L434.342 249.852L435.932 250.47V252.405L433.087 254.627L434.295 259.801L435.217 259.709V260.64C439.025 261.474 441.18 259.634 441.484 259.35C441.405 257.085 441.691 255.652 442.314 255.202C442.57 255.017 442.805 255.056 442.882 255.076H445.953L450.376 252.185V248.732H454.527L454.439 245.831L456.325 244.933L456.589 242.293L456.606 242.268C458.786 238.866 458.643 236.468 458.641 236.444L458.634 236.346L460.519 235.722L460.609 231.756H462.393V229.517L455.829 230.031C453.375 230.183 451.743 231.132 451.533 231.26L449.277 234.869Z" fill="#52843E" fill-opacity="0.13"/>
<path d="M451.329 307.685C449.837 313.053 447.889 314.225 447.434 314.431L447.674 317.55L446.355 317.79V319.732L447.666 320.09V326L453.226 325.319C452.959 323.932 453.149 322.872 453.791 322.167C454.717 321.15 456.256 321.222 456.558 321.247C458.16 320.085 458.569 319.266 458.629 318.781C458.665 318.488 458.573 318.317 458.537 318.263C457.456 317.767 456.834 317.205 456.688 316.592C456.562 316.069 456.84 315.715 456.852 315.7L456.885 315.67C459.025 314.387 459.505 313.393 459.564 313.253V310.935L457.243 307.685H451.329Z" fill="#52843E" fill-opacity="0.13"/>
<path d="M359.739 292.342C359.333 290.769 358.864 290.378 358.543 290.327C358.037 290.248 357.59 290.942 357.586 290.949L356.558 293.561C356.637 293.636 356.569 293.893 356.05 295.448C355.677 296.567 355.165 297.183 354.529 297.28C353.592 297.423 352.729 296.385 352.533 296.131L346.083 296.248L340.364 300.174C334.148 302.207 330.721 296.84 330.688 296.785L330.665 296.748L331.38 289.831C330.922 288.861 330.392 288.352 329.807 288.317C328.749 288.254 327.814 289.741 327.804 289.756L327.766 289.818L323.048 289.697H312.94L309.924 290.394C309.424 291.77 308.891 292.497 308.338 292.555C307.867 292.603 307.588 292.158 307.576 292.138L306.59 290.378C306.016 290.336 302.944 290.73 301.031 291.006L301.009 291.009L297.771 290.352C294.739 289.445 294.465 287.754 294.455 287.682L294.454 283.9C292.065 281.201 289.962 282.25 289.873 282.297C286.887 283.218 287.197 286.783 287.2 286.819L287.213 286.957H279.681V285.445C278.504 283.973 277.418 283.256 276.448 283.314C275.524 283.37 275.036 284.149 275.031 284.156L274.998 284.192L269.484 288.268L264.692 288.148C262.374 288.733 260.609 290.246 260.591 290.262L260.561 290.288L260.521 290.292C257.789 290.544 255.66 290.034 254.193 288.778C252.654 287.46 252.35 285.753 252.294 285.289L249.031 285.282C247.984 284.91 247.407 284.393 247.318 283.743C247.157 282.576 248.638 281.409 248.947 281.179V275.366C244.775 273.993 243.26 277.462 243.124 277.801V280.159L239.192 280.397V281.102L239.085 281.118C231.117 282.307 228.697 278.945 228.598 278.801L228.576 278.769V273.397C227.832 271.783 227.019 270.961 226.159 270.954C226.155 270.954 226.151 270.954 226.147 270.954C224.737 270.954 223.598 273.138 223.468 273.399V279.087C223.468 280.244 223.278 280.831 222.871 280.935C222.021 281.153 220.683 278.782 220.498 278.446C219.371 277.216 218.482 276.688 217.929 276.917C217.07 277.273 217.153 279.299 217.154 279.319L217.028 285.615L216.813 285.364C215.045 283.301 214.145 283.034 213.764 283.058C213.593 283.07 213.502 283.14 213.464 283.179L213.824 289.898L212.728 290.263C211.217 296.981 214.559 301.963 214.948 302.513H217.855V301.127L223.294 300.764C225.57 298.97 227.976 299.926 228.254 300.047L235.138 300.165C240.24 300.165 244.646 303.311 245.067 303.622L251.091 303.853V302.529L255.131 301.953L260.164 301.593L260.185 301.599C263.067 302.375 264.801 305.609 265.105 306.219L269.675 305.047L269.7 305.051C272.209 305.409 278.777 310.92 279.056 311.155L279.089 311.183L279.694 314.205L280.383 316.963H284.096C292.54 316.493 301.812 311.467 301.905 311.417L301.933 311.401H316.737L329.546 310.889C332.339 307.93 337.331 310.218 337.735 310.411L347.03 310.687C350.77 311.756 351.878 311.393 352.206 311.081C352.399 310.897 352.355 310.694 352.353 310.686L352.308 310.492L352.502 310.532C353.882 310.831 354.906 310.685 355.547 310.1C356.45 309.274 356.284 307.827 356.282 307.812L356.276 307.767L359.142 303.229L359.506 298.135L362.252 298.254L362.936 292.323L359.765 292.44L359.739 292.342Z" fill="#52843E" fill-opacity="0.13"/>
<path d="M190.033 196.406H192.242V191.417H187.702L186.924 194.526L188.137 194.746L190.033 196.406Z" fill="#52843E" fill-opacity="0.13"/>
<path d="M431.397 233.707L429.499 235.95V239.262H431.901L434.071 236.393V234.596L433.586 233.707H431.397Z" fill="#52843E" fill-opacity="0.13"/>
<path d="M184.774 189.533L187.477 190.29V187.068H185.322L184.774 189.533Z" fill="#52843E" fill-opacity="0.13"/>
<path d="M207.371 188.081H206.351L204.326 189.749H198.945L196.978 190.559L195.599 192.628C195.677 193.006 196.301 195.547 199.058 196.406H204.026L208.502 193.486V189.749H207.371V188.081H207.371Z" fill="#52843E" fill-opacity="0.13"/>
<path d="M211.063 174.973L210.605 171.894H206.967L205.365 174.168L206.179 180.561H210.468V179.088H211.898V177.478H210.812L211.063 174.973Z" fill="#52843E" fill-opacity="0.13"/>
<path d="M391.185 274.873L387.617 274.194L385.63 277.13V282.505H387.854L391.185 278.21V274.873Z" fill="#52843E" fill-opacity="0.13"/>
<path d="M220.118 167.829H215.701L215.227 170.201L214.056 170.318V172.044H215.192L216.264 173.771H219.054L219.173 172.044H221.071V169.497H220.118V167.829Z" fill="#52843E" fill-opacity="0.13"/>
<path d="M392.152 283.115V285.111L389.415 286.936L387.422 288.322L387.765 292.958H391.883L396.456 288.209V284.541L395.702 283.115H392.152Z" fill="#52843E" fill-opacity="0.13"/>
<path d="M407.537 263.727C405.762 265.603 402.957 268.631 402.784 268.986L402.693 275.959L401.355 276.048V281.544L402.756 281.806L403.217 283.282C404.581 284.774 406.564 284.35 406.999 284.234V274.285H408.964V268.835H411.466V264.877L410.973 263.727L407.537 263.727Z" fill="#52843E" fill-opacity="0.13"/>
<path d="M377.631 232.628C377.343 233.095 377.297 233.588 377.492 234.134L377.502 234.161L376.668 241.311C376.724 241.484 377.115 242.569 378.035 242.796C378.861 243 379.884 242.481 381.077 241.253L384.395 232.96V230.648L383.874 230.039C383.27 230.121 378.767 230.791 377.631 232.628Z" fill="#52843E" fill-opacity="0.13"/>
<path d="M205.957 180.814L205.949 180.753C205.406 180.268 202.14 176.309 201.6 175.653L196.298 175.573C193.152 176.058 192.513 174.253 192.487 174.176L191.31 169.472L188.443 168.636L188.431 168.555C187.795 164.097 186.671 161.998 186.46 161.635H183.597L182.048 158.776H178.372L175.274 155.083H172.91L169.217 152.462H167.06C165.478 154.719 163.624 153.888 163.605 153.88L163.571 153.863L161.921 151.154L157.189 151.272L157.156 151.249C155.82 150.359 152.479 147.678 152.066 147.345C150.792 147.507 149.364 147.791 149.242 147.974C149.204 148.092 149.11 148.101 149.082 148.101C148.996 148.101 148.818 148.101 148.315 146.609L145.83 146.157L144.045 147.824L141.529 147.446L141.503 147.377C140.003 143.454 132.639 143.29 132.565 143.289L132.5 143.288L132.463 143.234C130.964 141.043 128.284 140.552 128.257 140.547L128.152 140.529V139.215L125.394 138.641L122.392 138.063L121.812 139.224L121.752 139.236C114.546 140.747 113.518 144.038 113.509 144.071L113.482 144.163L110.201 144.163L107.727 145.419C105.328 147.22 101.921 145.609 101.777 145.54C100.119 144.283 98.6844 143.887 97.4932 144.351C95.2551 145.224 94.577 148.866 94.5703 148.903L94.5722 152.678L94.4697 152.698C92.0879 153.151 91.5977 156.841 91.5931 156.878L91.5799 156.982L89.6683 157.101L89.4251 158.438L86.521 157.925C84.1112 156.556 83.1446 156.635 82.7585 156.943C82.2376 157.358 82.5318 158.364 82.535 158.374L82.5404 158.411V163.12L85.5186 165.86V167.696H87.8284L91.6406 171.641H94.5519L94.5705 171.745C94.907 173.667 103.725 178.666 104.143 178.901L108.028 179.873L108.033 179.965C108.265 183.55 111.985 185.798 112.022 185.82L112.058 185.841L112.074 185.879C115.639 194.274 106.49 199.873 105.752 200.308C104.745 203.966 106.667 205.953 106.686 205.972L110.171 209.457L110.767 213.629L113.361 216.459C114.116 217.514 114.873 218.028 115.609 217.998C116.646 217.957 117.323 216.848 117.329 216.837L117.354 216.795L117.401 216.781C121.011 215.698 122.704 217.572 122.774 217.653L122.799 217.696C123.425 219.574 127.653 221.018 128.431 221.269L129.092 218.957L127.915 217.545L127.795 212.631L127.068 209.842L130.821 205.362L130.848 205.35C134.937 203.547 139.173 208.432 139.215 208.481L139.247 208.519L139.245 208.568C139.024 214.77 142.165 216.391 142.477 216.536L146.009 216.292L148.057 225.452C149.408 232.539 153.149 234.94 153.456 235.126L158.755 235.817L158.295 230.531C157.47 229.481 157.179 228.63 157.43 228.001C157.657 227.434 158.251 227.23 158.512 227.167C157.977 223.647 158.491 222.083 159.02 221.39C159.41 220.879 159.816 220.829 159.833 220.827L161.871 220.487L162.106 216.238L162.157 216.203C164.562 214.52 171.502 216.574 171.796 216.662C176.096 218.215 179.365 226.74 179.502 227.102L179.512 227.13L179.271 229.424C179.38 231.677 181.451 232.321 181.661 232.381C181.799 232.374 181.938 232.371 182.076 232.371C186.31 232.371 190.462 235.439 190.967 235.824L193.903 235.034L193.557 230.07L187.854 225.436L186.88 222.759L187.121 216.012L189.037 214.216L189.371 212.772L184.854 208.136L184.97 205.473H182.423L180.92 203.72L181.273 200.196L178.551 199.367L177.832 192.053L175.504 189.026L172.528 188.669L170.803 186.557L170.332 184.789L167.114 179.779C166.625 178.488 166.581 177.417 166.986 176.598C167.426 175.705 168.234 175.454 168.268 175.444L168.3 175.439L175.408 175.194L175.33 175.376C174.665 176.928 177.636 178.894 177.666 178.914L177.696 178.934L179.335 182.447L185.192 181.041C188.117 180.553 188.763 181.77 188.789 181.822L188.802 181.867L189.159 185.679C189.052 187.201 192.983 189.41 193.354 189.615H195.005L195.35 187.904C197.037 184.05 204.344 184.931 204.655 184.97L204.719 184.978L205.429 186.279H207.332L206.781 184.295C206.556 182.728 206.216 181.046 206.016 180.814L205.957 180.814Z" fill="#52843E" fill-opacity="0.13"/>
<path d="M367.055 214.909L363.8 219.327V223.885C365.449 225.805 367.422 224.977 367.828 224.776L367.471 221.185L369.502 219.931C369.377 216.067 367.472 215.079 367.055 214.909Z" fill="#52843E" fill-opacity="0.13"/>
<path d="M407.267 225.156V223.011C407.139 222.788 406.249 221.369 404.565 221.79C404.5 221.799 399.632 222.439 398.467 227.394L398.808 231.001L402.524 229.807C402.647 229.31 403.504 226.488 407.267 225.156Z" fill="#52843E" fill-opacity="0.13"/>
<path d="M378.302 166.905C378.32 166.925 380.077 168.905 381.212 168.572C381.683 168.434 381.993 167.895 382.133 166.969L382.14 166.923L382.175 166.893C382.197 166.874 382.72 166.428 383.266 166.668C383.896 166.946 384.241 168.014 384.29 169.844V170.674H387.135V169.845L390.471 169.725V165.541L393.823 165.799V167.516L395.355 166.902V164.622C395.33 164.524 395.24 164.088 395.493 163.688C395.706 163.351 396.096 163.136 396.653 163.051L399.762 163.05V161.055C399.686 160.867 399.053 159.501 396.797 159.609L394.71 159.378L393.767 160.796L389.748 161.047L389.756 160.905C389.757 160.88 389.84 158.388 385.018 157.466L377.066 158.531L370.326 163.734C370.267 163.881 369.944 164.98 372.648 166.862H378.264L378.302 166.905Z" fill="#52843E" fill-opacity="0.13"/>
<path d="M206.159 165.624H202.382V168.53H205.721L206.159 165.624Z" fill="#52843E" fill-opacity="0.13"/>
</svg>
