<svg width="20" height="18" viewBox="0 0 20 18" fill="none" xmlns="http://www.w3.org/2000/svg">
<path d="M15 13.25C14.5858 13.25 14.25 13.5858 14.25 14C14.25 14.4142 14.5858 14.75 15 14.75V13.25ZM15.01 14.75C15.4242 14.75 15.76 14.4142 15.76 14C15.76 13.5858 15.4242 13.25 15.01 13.25V14.75ZM15.4 10.25H14.65V11.75H15.4V10.25ZM4.6 11.75H5.35V10.25H4.6V11.75ZM2.23463 16.8478L1.94762 17.5407L1.94762 17.5407L2.23463 16.8478ZM1.15224 15.7654L0.459331 16.0524L0.459331 16.0524L1.15224 15.7654ZM18.8478 15.7654L19.5407 16.0524L19.5407 16.0524L18.8478 15.7654ZM17.7654 16.8478L18.0524 17.5407L18.0524 17.5407L17.7654 16.8478ZM18.8478 12.2346L19.5407 11.9476L19.5407 11.9476L18.8478 12.2346ZM17.7654 11.1522L17.4784 11.8452L17.4784 11.8452L17.7654 11.1522ZM1.15224 12.2346L0.459331 11.9476L0.459331 11.9476L1.15224 12.2346ZM2.23463 11.1522L1.94762 10.4593L1.94762 10.4593L2.23463 11.1522ZM10 12L9.46967 12.5303H10.5303L10 12ZM10.75 1V0.25H9.25V1H10.75ZM7.53033 8.46967L7 7.93934L5.93934 9L6.46967 9.53033L7.53033 8.46967ZM13.5303 9.53033L14.0607 9L13 7.93934L12.4697 8.46967L13.5303 9.53033ZM15 14.75H15.01V13.25H15V14.75ZM16 16.25H4V17.75H16V16.25ZM15.4 11.75H16V10.25H15.4V11.75ZM4 11.75H4.6V10.25H4V11.75ZM4 16.25C3.5238 16.25 3.20421 16.2496 2.95674 16.2327C2.71601 16.2163 2.5988 16.1868 2.52165 16.1548L1.94762 17.5407C2.23801 17.661 2.53754 17.7076 2.85464 17.7292C3.165 17.7504 3.54432 17.75 4 17.75V16.25ZM0.25 14C0.25 14.4557 0.249594 14.835 0.27077 15.1454C0.292405 15.4625 0.339048 15.762 0.459331 16.0524L1.84515 15.4784C1.81319 15.4012 1.78372 15.284 1.76729 15.0433C1.75041 14.7958 1.75 14.4762 1.75 14H0.25ZM2.52165 16.1548C2.21536 16.028 1.97202 15.7846 1.84515 15.4784L0.459331 16.0524C0.73844 16.7262 1.27379 17.2616 1.94762 17.5407L2.52165 16.1548ZM18.25 14C18.25 14.4762 18.2496 14.7958 18.2327 15.0433C18.2163 15.284 18.1868 15.4012 18.1548 15.4784L19.5407 16.0524C19.661 15.762 19.7076 15.4625 19.7292 15.1454C19.7504 14.835 19.75 14.4557 19.75 14H18.25ZM16 17.75C16.4557 17.75 16.835 17.7504 17.1454 17.7292C17.4625 17.7076 17.762 17.661 18.0524 17.5407L17.4784 16.1548C17.4012 16.1868 17.284 16.2163 17.0433 16.2327C16.7958 16.2496 16.4762 16.25 16 16.25V17.75ZM18.1548 15.4784C18.028 15.7846 17.7846 16.028 17.4784 16.1548L18.0524 17.5407C18.7262 17.2616 19.2616 16.7262 19.5407 16.0524L18.1548 15.4784ZM19.75 14C19.75 13.5443 19.7504 13.165 19.7292 12.8546C19.7076 12.5375 19.661 12.238 19.5407 11.9476L18.1548 12.5216C18.1868 12.5988 18.2163 12.716 18.2327 12.9567C18.2496 13.2042 18.25 13.5238 18.25 14H19.75ZM16 11.75C16.4762 11.75 16.7958 11.7504 17.0433 11.7673C17.284 11.7837 17.4012 11.8132 17.4784 11.8452L18.0524 10.4593C17.762 10.339 17.4625 10.2924 17.1454 10.2708C16.835 10.2496 16.4557 10.25 16 10.25V11.75ZM19.5407 11.9476C19.2616 11.2738 18.7262 10.7384 18.0524 10.4593L17.4784 11.8452C17.7846 11.972 18.028 12.2154 18.1548 12.5216L19.5407 11.9476ZM1.75 14C1.75 13.5238 1.75041 13.2042 1.76729 12.9567C1.78372 12.716 1.81319 12.5988 1.84515 12.5216L0.459331 11.9476C0.339048 12.238 0.292405 12.5375 0.27077 12.8546C0.249594 13.165 0.25 13.5443 0.25 14H1.75ZM4 10.25C3.54432 10.25 3.165 10.2496 2.85464 10.2708C2.53754 10.2924 2.23801 10.339 1.94762 10.4593L2.52165 11.8452C2.5988 11.8132 2.71601 11.7837 2.95674 11.7673C3.20421 11.7504 3.5238 11.75 4 11.75V10.25ZM1.84515 12.5216C1.97202 12.2154 2.21536 11.972 2.52165 11.8452L1.94762 10.4593C1.27379 10.7384 0.73844 11.2738 0.459331 11.9476L1.84515 12.5216ZM10.75 12V1H9.25V12H10.75ZM6.46967 9.53033L9.46967 12.5303L10.5303 11.4697L7.53033 8.46967L6.46967 9.53033ZM10.5303 12.5303L13.5303 9.53033L12.4697 8.46967L9.46967 11.4697L10.5303 12.5303Z" fill="#FBFDFF"/>
</svg>
