<svg xmlns="http://www.w3.org/2000/svg" width="16.228" height="11.799" viewBox="0 0 16.228 11.799">
  <path id="link-alt-1-svgrepo-com" d="M7.748,15.006a2.688,2.688,0,0,1-.481.378,2.349,2.349,0,0,1-2.349,0,5.889,5.889,0,0,1-1.04-.927,5.884,5.884,0,0,1-.927-1.04,2.349,2.349,0,0,1,0-2.349,5.888,5.888,0,0,1,.927-1.04L6.092,7.813a5.886,5.886,0,0,1,1.04-.927,2.349,2.349,0,0,1,2.349,0,5.888,5.888,0,0,1,1.04.927,5.887,5.887,0,0,1,.927,1.04,2.349,2.349,0,0,1,0,2.349,2.684,2.684,0,0,1-.378.481m-2.2-2.2a2.684,2.684,0,0,0-.378.481,2.349,2.349,0,0,0,0,2.349,5.883,5.883,0,0,0,.927,1.04,5.889,5.889,0,0,0,1.04.927,2.349,2.349,0,0,0,2.349,0,5.886,5.886,0,0,0,1.04-.927l2.215-2.215a5.884,5.884,0,0,0,.927-1.04,2.349,2.349,0,0,0,0-2.349,5.883,5.883,0,0,0-.927-1.04,5.888,5.888,0,0,0-1.04-.927,2.349,2.349,0,0,0-2.349,0,2.686,2.686,0,0,0-.482.378" transform="translate(-1.854 -4.682)" fill="none" stroke="#fff" stroke-linecap="round" stroke-width="1.5"/>
</svg>
