<svg id="linkedIn-social_media" data-name="linkedIn-social media" xmlns="http://www.w3.org/2000/svg" width="37" height="37" viewBox="0 0 37 37">
  <g id="Ellipse_10" data-name="Ellipse 10" fill="none" stroke="#fff" stroke-width="1" opacity="0.7">
    <circle cx="18.5" cy="18.5" r="18.5" stroke="none"/>
    <circle cx="18.5" cy="18.5" r="18" fill="none"/>
  </g>
  <path id="Icon_awesome-linkedin-in" data-name="Icon awesome-linkedin-in" d="M3.387,15.13H.25V5.029H3.387ZM1.817,3.651A1.825,1.825,0,1,1,3.633,1.817,1.832,1.832,0,0,1,1.817,3.651ZM15.126,15.13H12V10.213c0-1.172-.024-2.675-1.631-2.675-1.631,0-1.881,1.273-1.881,2.59v5H5.351V5.029H8.36V6.407H8.4a3.3,3.3,0,0,1,2.968-1.631c3.174,0,3.758,2.09,3.758,4.806V15.13Z" transform="translate(10.935 10.658)" fill="#fff"/>
</svg>
