<svg xmlns="http://www.w3.org/2000/svg" width="68.09" height="63.769" viewBox="0 0 68.09 63.769">
  <path id="Living_documents" data-name="Living documents" d="M67.584,20.309H63.038v-9.1c0-1.864-1.074-3.324-2.446-3.324H31.312c-1.371,0-2.446,1.46-2.446,3.324v.749H16.989c-1.394,0-2.446,1.736-2.446,4.037v4.441H8.193A3.2,3.2,0,0,0,5,23.629V66.024a4.875,4.875,0,0,0,4.806,4.93H62.79a4.847,4.847,0,0,0,4.724-4.033h.07a5.039,5.039,0,0,0,4.806-5.234V25.543A5.04,5.04,0,0,0,67.584,20.309Zm-36.924-9.1c0-.952.453-1.53.652-1.53H60.589c.2,0,.652.578.652,1.53V27.486H59.72V18.774a2.448,2.448,0,0,0-2.446-2.446H48.715v-.332c0-2.3-1.048-4.037-2.446-4.037H30.66ZM48.715,27.486V18.122h8.559a.653.653,0,0,1,.652.652v8.713ZM16.336,15.995a3.019,3.019,0,0,1,.674-2.246H46.245a2.993,2.993,0,0,1,.674,2.246V27.486H27.983l-5.548-5.872a3.175,3.175,0,0,0-2.471-1.179H16.336ZM62.79,69.158H9.806A3.08,3.08,0,0,1,6.8,66.024V23.629a1.4,1.4,0,0,1,1.4-1.4H19.961a1.4,1.4,0,0,1,1.1.533c.016.02.032.039.049.058L26.947,29a.9.9,0,0,0,.651.282H62.791A3.079,3.079,0,0,1,65.8,32.416V66.024a3.079,3.079,0,0,1-3.01,3.137ZM70.6,61.685a3.253,3.253,0,0,1-3,3.443V32.416a4.884,4.884,0,0,0-4.558-4.923V22.1h4.546A3.252,3.252,0,0,1,70.6,25.543ZM30.17,56.144H12.087a2.1,2.1,0,0,0-2.1,2.1v3.215a2.1,2.1,0,0,0,2.1,2.1H30.17a2.1,2.1,0,0,0,2.1-2.1V58.252a2.1,2.1,0,0,0-2.1-2.1Zm.308,5.316a.313.313,0,0,1-.308.309H12.087a.313.313,0,0,1-.308-.309V58.252a.313.313,0,0,1,.308-.309H30.17a.313.313,0,0,1,.308.309ZM24.857,18.139a.9.9,0,0,1,.9-.9h16.4a.9.9,0,1,1,0,1.8h-16.4a.9.9,0,0,1-.9-.9Zm18.2,5.125a.9.9,0,0,1-.9.9H28.946a.9.9,0,1,1,0-1.793H42.158a.9.9,0,0,1,.9.895Z" transform="translate(-4.649 -7.535)" fill="#fff" stroke="#fff" stroke-width="0.7"/>
</svg>
