<svg xmlns="http://www.w3.org/2000/svg" width="11.219" height="14.26" viewBox="0 0 11.219 14.26">
  <g id="location-svgrepo-com_3_" data-name="location-svgrepo-com (3)" transform="translate(-159.9 -63.9)">
    <path id="Path_47494" data-name="Path 47494" d="M170.018,69.51a4.508,4.508,0,0,0-9.016,0c0,1.849,1.48,4.26,4.508,7.147C168.538,73.769,170.018,71.359,170.018,69.51Zm-4.508,8.515Q160,73.017,160,69.51a5.51,5.51,0,1,1,11.02,0Q171.02,73.016,165.51,78.025Z" fill="#fff" stroke="#fff" stroke-width="0.2"/>
    <path id="Path_47495" data-name="Path 47495" d="M354.5,260.007a1.5,1.5,0,1,0-1.5-1.5A1.5,1.5,0,0,0,354.5,260.007Zm0,1a2.5,2.5,0,1,1,2.5-2.5A2.5,2.5,0,0,1,354.5,261.009Z" transform="translate(-188.995 -188.995)" fill="#fff" stroke="#fff" stroke-width="0.2"/>
  </g>
</svg>
