<svg width="511" height="505" viewBox="0 0 511 505" fill="none" xmlns="http://www.w3.org/2000/svg">
<g opacity="0.13">
<path d="M619.342 51.8223C616.063 50.2223 619.511 45.6733 619.229 45.3291C618.36 44.2679 616.613 42.6696 615.897 42.9632C613.078 44.1208 611.719 42.3129 609.929 40.9702C609.099 40.3481 607.768 39.7294 606.89 39.9612C604.289 40.6486 602.136 40.0483 599.943 38.7127C599.073 38.1834 597.911 37.9862 596.865 37.9271C595.008 37.8223 593.139 37.9228 591.276 37.9679C590.172 37.995 588.629 37.6353 588.043 38.2155C585.51 40.7213 581.263 37.4272 579.201 41.0115C576.348 39.1918 573.251 39.2465 570.079 39.7924C569.943 39.8151 569.767 39.5542 569.599 39.4398C566.962 37.6584 564.406 37.6737 562.203 40.0741C560.662 41.7525 559.338 41.4105 557.728 40.2443C556.526 39.3738 555.186 38.317 553.812 38.151C551.669 37.8916 549.415 38.1472 547.26 38.5009C544.809 38.9039 541.677 38.4009 541.106 42.1472C541.057 42.4708 540.45 42.7634 540.051 42.9687C538.268 43.8878 536.486 44.8177 534.658 45.6393C534.004 45.9333 533.114 46.2291 532.506 46.0185C529.152 44.8556 526.49 46.1981 524.222 48.3791C524.208 48.3935 524.194 48.4169 524.18 48.4331C521.631 48.5488 519.091 49.0575 516.507 49.7633C516.041 49.2297 515.556 48.7155 515.107 48.2353C514.691 47.7896 512.736 48.2456 511.882 48.848C511.208 49.3252 510.558 49.8383 509.917 50.3618C509.492 50.1721 509.118 50.01 508.872 49.9148C507.695 49.4519 506.689 49.0911 505.451 48.7764C505.067 48.6785 504.682 48.6147 504.296 48.5391C504.202 48.0963 504.048 47.6561 503.833 47.237C503.492 46.5756 501.206 46.4663 500.004 46.8047C498.314 47.2798 496.994 47.9211 495.977 45.8141C495.801 45.4498 494.649 45.5376 493.943 45.4493C491.694 45.1678 488.762 46.9031 487.644 43.1953C487.524 42.7986 486.2 42.4918 485.499 42.592C482.976 42.9488 480.57 44.5312 477.881 42.8815C477.461 42.6236 476.278 43.4638 475.527 43.9271C474.756 44.4026 474.157 45.1882 473.356 45.5753C469.327 47.5209 469.249 47.5437 471.804 51.293C472.748 52.6786 472.253 53.299 470.948 53.1141C469.335 52.8856 467.79 52.1692 465.835 51.5423C469.052 49.2088 466.777 47.388 465.899 45.5251C464.95 43.5134 463.638 42.4837 461.31 43.8955C460.592 44.3313 459.067 42.5558 459.339 41.7526C459.565 41.0841 460.081 40.3624 459.964 39.7625C459.763 38.7367 459.409 37.357 458.665 36.9404C458.057 36.6001 456.53 37.1848 455.863 37.829C454.793 38.8611 452.44 38.0299 452.466 36.513C451.494 36.6388 450.502 36.6813 449.556 36.9113C448.299 37.2173 446.544 36.923 446.522 39.0487C446.521 39.0846 445.953 39.2402 445.779 39.1326C442.67 37.2062 440.12 39.9755 437.336 40.39C435.138 40.7176 433.758 41.3199 432.265 39.2107C430.652 36.9317 428.583 36.6682 426.226 38.4734C425.252 39.2183 423.945 39.6823 422.721 39.9149C419.573 40.5127 417.644 42.7131 417.265 45.8921C417.113 47.1641 416.477 48.6422 415.57 49.5148C411.186 53.7301 405.999 55.3654 399.961 53.8062C398.337 53.3871 396.954 53.3654 397.811 55.8112C398.001 56.3511 397.675 57.0716 397.587 57.7096C397.03 57.369 396.316 57.1505 395.939 56.6678C394.068 54.2692 392.286 51.7983 390.466 49.359C389.25 47.7288 387.553 47.1627 385.968 48.3701C384.884 49.1961 383.901 50.701 383.746 52.0052C383.646 52.8484 385.155 53.8551 385.885 54.8316C386.472 55.6134 387.157 56.4016 387.437 57.2994C387.596 57.8057 387.027 58.5401 386.786 59.1725C385.893 58.7785 384.959 58.4539 384.123 57.9638C383.616 57.667 383.25 57.1228 382.837 56.6755C381.655 55.395 380.568 53.8983 378.502 55.3399C378.341 55.4527 377.542 54.9946 377.328 54.6324C376.084 52.5196 373.215 51.2803 371.65 52.8419C368.151 56.3335 363.668 56 359.451 56.7244C353.844 57.6869 353.422 58.7018 354.288 64.216C354.817 67.5884 354.07 71.1765 353.72 74.6509C353.672 75.124 352.618 75.77 351.988 75.8217C351.485 75.8636 350.409 75.0337 350.459 74.7391C350.98 71.6755 348.301 70.643 346.905 68.8003C346.42 68.1584 345.619 67.1052 345.833 66.6888C347.354 63.7345 345.186 62.0557 343.689 60.2866C341.637 57.8619 338.799 58.2837 337.249 61.0858C336.864 61.7844 336.716 62.612 336.429 63.3693C335.391 66.1021 336.015 69.5554 332.863 71.4222C332.571 71.5958 332.704 72.9449 333.001 73.5782C334.195 76.1206 335.531 78.5968 337.158 81.767C332.569 81.1782 331.675 84.204 330.025 86.274C327.813 89.0509 326.619 92.5361 325.665 95.6562C325.497 96.206 323.869 96.2574 322.961 96.6457C320.937 97.5094 318.806 98.2554 320.617 101.257C321.003 101.897 320.517 103.366 320 104.178C319.137 105.532 317.8 106.581 316.903 107.918C316.322 108.785 315.558 110.364 315.926 110.897C318.338 114.381 315.79 116.398 313.846 118.492C313.28 119.1 311.538 119.55 311.153 119.192C310.417 118.509 310.134 117.22 309.913 116.133C309.713 115.145 309.781 114.087 309.846 113.068C309.899 112.264 310.178 111.479 310.267 110.675C310.419 109.304 310.937 107.773 310.523 106.58C309.678 104.148 307.873 102.143 308.55 99.1535C308.924 97.5053 308.581 92.2979 310.236 90.2318C310.678 89.6818 311.02 88.6104 310.772 88.073C310.524 87.5365 309.409 86.9922 308.792 87.1041C305.07 87.7816 305.522 85.4832 306.159 83.366C306.923 80.8295 305.642 79.8531 303.548 79.7049C301.718 79.5749 300.642 79.277 300.979 77.0764C301.053 76.5934 300.112 75.5113 299.59 75.4791C298.707 75.4242 297.563 75.7521 296.94 76.3497C296.263 76.9978 296.163 78.2083 295.611 79.0411C295.152 79.734 294.198 80.8475 293.819 80.7202C291.716 80.0116 290.367 80.6582 289.212 82.4121C288.991 82.7479 288.111 82.74 287.537 82.735C284.117 82.7076 283.128 83.646 283.023 87.1021C282.95 89.5189 281.449 90.5814 279.149 89.7195C278.216 89.3688 277.408 88.6951 276.523 88.208C274.305 86.9887 273.445 87.7032 272.685 90.0653C271.573 93.5242 270.395 97.1284 268.399 100.103C264.293 106.22 259.657 111.982 255.15 117.821C254.645 118.475 253.547 119.054 252.745 119.027C250.619 118.956 248.494 118.235 246.388 118.314C241.919 118.479 240.433 116.923 241.433 112.492C242.686 106.943 243.941 101.392 245.331 95.8752C246.147 92.6391 246.046 89.6582 243.933 86.9218C242.747 85.3853 243.237 84.156 244.63 83.009C246.67 81.3317 248.585 79.4994 250.651 77.8553C253.834 75.3234 253.72 71.5226 252.698 68.6654C252.034 66.8092 248.594 65.7281 246.21 64.7626C243.625 63.7147 240.837 63.1468 238.111 62.476C235.986 61.9531 233.826 61.3289 231.67 61.2902C230.796 61.2747 229.374 62.5539 229.121 63.4907C228.595 65.4431 228.292 67.0275 225.668 66.5856C225.07 66.4845 223.988 67.1027 223.747 67.6577C223.517 68.1873 223.869 69.3841 224.36 69.7311C225.718 70.6928 227.264 71.3994 228.77 72.1384C229.847 72.6668 230.978 73.0835 232.085 73.549C231.375 74.6892 230.703 75.8552 229.947 76.9636C229.182 78.0849 227.682 79.1403 227.668 80.2394C227.645 82.0689 227.13 82.1334 225.597 82.1029C224.153 82.0745 222.592 82.4301 221.293 83.0548C220.731 83.3243 220.231 84.8976 220.506 85.5321C221.808 88.5417 223.387 91.4306 224.908 94.4446C223.227 94.4089 221.497 94.1899 219.829 94.4233C219.12 94.5229 217.912 95.9943 218.001 96.1261C220.499 99.8626 217.712 100.578 215.095 101.472C214.647 101.625 214.107 102.023 213.952 102.436C212.482 106.339 208.777 107.616 205.699 109.666C202.774 111.616 200.045 114.202 196.425 110.911C196.172 110.681 195.512 110.899 195.041 110.91C195.101 111.378 195.075 111.877 195.233 112.309C195.877 114.075 196.679 115.79 197.225 117.585C197.709 119.178 198.646 119.988 199.591 118.355C201.739 114.639 205.308 115.486 208.512 115.129C209.077 115.066 209.708 115.589 210.309 115.84C209.936 116.256 209.637 116.8 209.177 117.066C206.249 118.758 205.455 121.198 206.514 124.325C207.246 126.486 206.848 128.216 204.998 129.744C204.429 130.215 204.098 131.598 204.346 132.329C205.617 136.075 206.748 139.944 208.633 143.384C210.57 146.92 213.361 148.313 216.307 146.206C216.942 145.751 217.791 145.525 218.577 145.367C221.479 144.786 222.286 143.035 221.879 140.239C221.496 137.605 224.446 133.502 227.039 132.83C227.545 132.698 228.335 132.796 228.702 133.119C232.191 136.174 235.741 139.176 239.008 142.457C240.556 144.013 243.469 143.565 244.117 146.212C247.331 145.61 247.177 147.642 247.062 149.824C247.025 150.545 247.349 151.58 247.87 151.935C248.239 152.186 249.247 151.585 249.921 151.266C250.37 151.053 250.713 150.449 251.145 150.403C251.992 150.312 252.868 150.488 253.731 150.553C253.63 151.507 253.881 152.976 253.368 153.327C250.975 154.964 252.101 156.328 253.366 157.831C253.932 158.503 254.493 159.194 254.949 159.942C255.716 161.206 256.124 162.84 257.177 163.743C258.872 165.199 258.941 166.1 257.236 167.546C255.711 168.838 254.157 170.282 253.17 171.98C251.409 175.01 253.004 177.952 254.384 180.614C255.611 182.984 257.157 180.344 258.588 180.447C258.889 180.469 259.231 180.323 259.492 180.421C262.662 181.617 264.574 179.967 266.433 177.671C267.004 176.965 268.695 176.335 269.366 176.674C274.912 179.475 274.876 179.547 279.59 175.809C279.749 175.682 279.88 175.498 280.059 175.424C280.497 175.239 280.955 175.101 281.405 174.944C281.521 175.393 281.836 175.903 281.723 176.284C280.684 179.769 282.432 180.452 285.352 179.959C286.043 179.842 286.708 179.555 287.385 179.346C287.424 179.781 287.462 180.218 287.5 180.652C286.682 181.164 285.776 181.579 285.065 182.211C284.028 183.135 282.714 184.075 282.305 185.276C281.981 186.228 282.506 187.921 283.263 188.668C284.071 189.466 285.593 189.54 286.803 189.93C287.046 188.986 287.238 188.026 287.553 187.106C287.749 186.534 288.132 186.027 288.431 185.491C288.983 185.964 289.822 186.335 290.037 186.931C290.86 189.204 291.753 191.123 294.49 191.829C295.337 192.047 295.825 193.874 296.33 195.029C296.439 195.276 295.723 196.166 295.687 196.148C294.738 195.68 293.676 195.286 292.939 194.568C290.237 191.934 289.493 191.861 286.598 194.355C285.829 195.019 285.061 195.686 284.301 196.36C281.524 198.827 281.572 200.3 284.703 202.168C286.264 203.1 287.348 203.926 286.507 205.99C286.327 206.43 286.967 207.427 287.48 207.888C289.026 209.274 290.848 210.373 292.286 211.852C295.247 214.899 296.271 215.042 299.063 211.801C300.243 210.433 300.951 210.687 301.926 211.846C303.299 213.479 304.771 215.03 306.126 216.677C306.739 217.421 307.738 218.915 307.605 219.038C306.346 220.205 304.971 221.32 303.453 222.114C301.593 223.09 299.477 223.589 297.66 224.625C297.091 224.949 296.746 226.459 296.975 227.226C297.455 228.84 303.588 231.437 305.098 230.991C304.803 234.697 305.372 238.219 307.589 241.352C309.006 243.355 310.67 243.938 312.68 242.128C314.248 240.717 315.973 240.117 317.976 241.15C321.043 242.732 324.159 244.232 327.123 245.99C328.347 246.717 329.055 248.361 330.299 249.001C332.923 250.348 334.718 252.689 335.773 254.984C336.559 256.692 336.912 257.354 338.679 257.211C339.345 257.157 340.104 257.361 340.714 257.665C343.781 259.191 347.725 258.545 350.225 261.497C350.378 261.677 350.902 261.783 351.084 261.664C354.382 259.508 358.282 259.411 361.893 258.335C363.538 257.845 364.808 256.184 366.34 255.196C367.595 254.387 368.986 253.788 370.317 253.095C369.616 254.555 368.875 255.997 368.233 257.483C367.936 258.171 367.475 259.139 367.74 259.623C368.019 260.129 369.067 260.374 369.8 260.423C370.466 260.467 371.286 260.266 371.821 259.876C375.715 257.033 379.992 257.522 384.372 258.15C388.388 258.725 392.464 259.503 396.472 259.314C400.549 259.121 404.57 260.025 408.829 258.579C412.124 257.46 416.248 258.631 419.983 258.998C423.832 259.378 425.344 258.716 427.384 255.248C427.569 254.934 427.913 254.714 428.184 254.451C429.727 256.829 432.196 253.231 433.908 255.328C434.193 255.678 435.66 255.562 436.164 255.152C439.423 252.496 443.483 253.111 447.168 252.214C449.779 251.58 451.221 252.08 451.926 254.987C452.609 257.805 453.502 257.775 456.084 256.214C457.249 255.509 459.066 254.849 460.168 255.268C463.694 256.612 466.466 255.535 469.221 253.511C470.773 252.37 472.4 251.331 474.031 250.303C476.873 248.511 479.742 246.763 481.981 245.38C483.239 247.266 483.913 249.515 485.292 250.098C488.706 251.542 492.254 251.446 495.139 248.374C496.101 247.35 497.264 246.43 498.498 245.763C502.333 243.689 504.895 238.845 510.392 240.254C510.88 240.378 511.569 239.576 512.206 239.298C512.93 238.981 513.868 238.355 514.424 238.58C517.626 239.87 520.013 238.534 522.353 236.575C522.852 236.157 523.652 235.94 524.326 235.913C527.035 235.806 529.379 233.27 532.358 234.743C532.694 234.909 533.443 234.317 533.966 234.017C535.902 232.907 537.829 231.781 539.749 230.642C543.965 228.144 543.951 228.143 542.377 223.526C542.231 223.097 542.161 222.427 542.393 222.149C542.596 221.905 543.39 221.861 543.717 222.062C545.669 223.259 547.082 222.261 548.711 221.229C551.125 219.698 553.31 217.93 556.637 217.955C560.58 217.985 564.537 217.01 568.48 216.413C570.673 216.08 572.626 215.418 573.124 212.778C573.219 212.275 574.041 211.899 574.549 211.489C575.588 210.649 576.616 209.791 577.699 209.01C578.386 208.514 579.141 208.096 579.904 207.722C580.959 207.205 582.2 206.954 583.101 206.254C587.112 203.144 590.99 199.863 595.009 196.764C596.007 195.994 597.704 194.917 598.468 195.278C601.068 196.503 602.948 195.59 604.942 194.165C605.401 193.836 606.111 193.864 606.694 193.695C611.659 192.258 616.621 190.815 621.584 189.374L641.749 171.676C643.726 168.656 645.9 165.744 647.611 162.58C648.811 160.363 649.933 157.842 650.108 155.388C650.449 150.597 650.103 145.758 650.041 140.938C649.769 140.898 646.123 137.823 643.979 138.582C640.426 139.842 636.429 140.755 635.666 145.538C635.59 146.02 634.35 146.716 633.731 146.64C631.248 146.338 629.606 147.159 628.037 149.182C625.46 152.505 624.51 152.225 621.895 149.069C620.968 147.951 619.201 147.527 617.796 146.776C618.577 146.09 619.671 144.939 620.951 144.056C622.531 142.967 623.39 141.498 622.251 139.974C621.348 138.767 619.744 137.904 618.277 137.375C617.541 137.11 616.418 137.943 615.463 138.256C614.659 138.519 613.221 139.09 613.136 138.935C612.521 137.818 612.035 136.569 611.865 135.314C611.828 135.045 613.348 134.699 613.974 134.176C615.227 133.131 616.701 132.129 617.456 130.764C618.545 128.794 619.405 127.942 621.639 129.325C623.624 130.552 629.43 129.383 631.077 127.703C631.363 127.412 631.631 126.786 631.509 126.467C630.755 124.509 629.925 122.577 629.031 120.678C628.799 120.185 628.122 119.419 627.86 119.496C625.188 120.276 624.687 118.072 623.586 116.603C622.248 114.818 619.414 111.164 619.857 111.937C620.694 111.401 621.574 110.92 622.363 110.319C624.49 108.697 626.379 108.711 628.683 110.321C630.827 111.82 633.445 112.627 635.801 113.843C636.372 114.138 636.681 114.901 637.201 115.343C638.01 116.03 639.088 117.319 639.717 117.144C642.498 116.373 643.524 118.334 644.866 119.914C645.918 121.153 647.053 122.335 647.984 123.66C649.193 125.38 650.276 126.533 652.251 124.469C652.599 124.104 653.815 124.478 654.597 124.656C654.939 124.734 655.149 125.295 655.5 125.437C656.818 125.972 658.171 126.426 659.51 126.909C659.877 125.701 660.754 124.359 660.48 123.321C660.126 121.977 659.088 120.435 657.905 119.799C656.826 119.219 656.923 118.896 656.633 117.861C655.75 114.701 654.27 111.69 652.795 108.733C652.563 108.266 651.156 108.229 650.3 108.259C647.373 108.36 646.607 107.606 647.579 104.975C648.221 103.237 648.264 101.91 646.748 100.649C645.196 99.3559 644.307 100.847 643.055 101.173C641.319 101.624 639.344 101.18 637.48 101.023C637.414 101.017 637.208 99.8338 637.46 99.4757C637.974 98.745 639.004 98.3179 639.363 97.5518C639.781 96.6591 639.708 95.5363 639.849 94.5121C638.985 94.4404 638.086 94.489 637.268 94.2574C636.621 94.0748 635.67 93.6483 635.545 93.1559C634.762 90.0605 636.669 88.0863 639.812 88.5513C641.417 88.7882 643.023 89.0675 644.639 89.1944C646.304 89.3254 647.47 88.719 647.232 86.7681C647.029 85.1057 646.76 83.4517 646.52 81.7932C645.067 82.2962 643.645 82.9643 642.151 83.2566C640.53 83.5733 638.674 83.9906 637.257 83.4626C636.585 83.2127 636.485 80.8648 636.497 79.4702C636.513 77.346 636.952 75.2268 637.004 73.1003C637.024 72.3058 636.462 71.4969 636.165 70.6952C635.493 71.0565 634.698 71.291 634.173 71.8023C632.72 73.2163 631.523 74.9261 629.948 76.1711C628.739 77.1257 627.349 78.8463 625.463 77.1652C622.845 74.8315 622.417 72.8817 623.915 70.7117C624.6 69.7176 625.384 68.746 625.839 67.6468C626.8 65.323 627.167 63.0029 625.338 60.7845C624.068 59.2453 623.571 57.687 625.601 56.1017C626.364 55.5069 626.554 54.1789 627.004 53.1866L624.991 50.8922C623.098 51.0066 621.742 52.9931 619.342 51.8223Z" fill="#52843E"/>
<path d="M-21.9171 71.8287C-21.6137 71.8412 -21.2847 71.779 -21.0121 71.8777C-18.8898 72.6434 -15.9806 74.8854 -17.3221 69.6516C-17.4406 69.1911 -15.789 68.1168 -14.8226 67.5712C-12.9395 66.5084 -10.7667 65.8758 -9.05712 64.6036C-5.56311 62.0002 -2.30678 59.0797 1.06736 56.3127C3.59609 54.2388 4.35251 54.5248 5.05853 57.6152C5.26436 58.518 5.78809 59.3497 6.16571 60.2133C6.98446 59.6671 8.04393 59.295 8.58238 58.5469C12.4682 53.1488 13.155 53.3151 17.6822 58.7834C18.813 60.1489 20.1712 61.3266 21.9158 62.2648C21.4147 60.5884 20.8614 58.9257 20.4418 57.2286C20.3107 56.6979 20.3768 55.9875 20.6338 55.5118C22.0864 52.8222 28.2853 51.2304 30.8597 52.9176C32.1693 53.7762 33.1287 54.4148 34.3067 52.6237C35.4869 50.8273 37.1135 50.8973 38.7065 52.3388C39.6824 53.2215 40.7066 54.0534 41.7528 54.8525C43.2775 56.0159 44.5965 56.0262 46.4265 54.9356C48.1207 53.9271 50.3989 53.5012 52.4183 53.5103C58.5666 53.5383 60.7101 51.7803 61.2351 45.7824C61.3497 44.4783 61.5833 43.1594 61.9706 41.9118C62.6542 39.7095 64.3485 38.8783 66.215 40.144C69.1728 42.1506 72.1859 41.4009 75.3133 41.1915C77.004 41.0784 78.838 41.4751 80.4404 42.0818C82.8748 43.0029 84.4884 42.0701 86.1915 39.1691C87.9007 36.2576 89.7872 33.3055 92.1864 30.9818C94.8403 28.4092 96.2693 28.8875 98.7973 31.6313C100.908 33.9202 102.367 36.5863 106.316 37.0839C109.133 37.4394 111.054 37.2324 112.791 35.3597C114.653 33.3539 116.429 32.1518 119.345 33.4292C121.261 34.2679 123.455 34.6125 125.561 34.8244C126.918 34.9615 128.549 34.8202 129.685 34.1624C131.544 33.0853 132.388 34.324 133.269 35.2969C134.956 37.1641 136.457 38.0171 138.98 36.3577C140.264 35.5132 142.286 35.7566 143.981 35.5817C146.289 35.345 146.614 37.2125 147.467 38.7056C147.8 39.29 149.146 39.5613 150.015 39.5306C154.725 39.3631 156.207 41.4563 154.121 45.7601C152.96 48.1572 151.325 50.329 150.201 52.7403C149.703 53.8079 149.581 55.3276 149.924 56.4482C150.458 58.1906 150.286 59.1057 148.407 59.5765C145.884 60.2088 145.112 61.9003 145.515 64.4372C145.662 65.3613 145.415 66.7477 144.792 67.3283C141.14 70.7343 137.369 74.0155 133.546 77.2303C131.852 78.6548 129.892 79.7612 128.151 81.1367C127.413 81.7206 126.834 82.5704 126.355 83.3997C125.649 84.6194 125.311 86.1071 124.435 87.1635C122.391 89.63 121.789 91.9583 123.573 94.9245C124.066 95.7443 123.589 97.7396 122.853 98.5738C121.653 99.9305 121.586 100.825 122.584 102.251C124.489 104.974 124.065 106.22 120.847 106.919C118.346 107.463 117.306 108.714 117.073 111.259C116.964 112.454 115.772 113.569 115.007 114.676C113.786 116.443 112.565 118.216 111.236 119.903C110.51 120.826 109.618 122.217 108.709 122.291C104.985 122.599 103.094 125.323 100.976 127.697C100.464 128.272 100.497 129.661 100.758 130.532C101.328 132.427 101.106 133.935 99.4338 135.083C97.8167 136.193 97.6085 137.593 97.7237 139.542C97.8167 141.112 96.8703 142.899 95.9147 144.26C95.6835 144.59 93.4437 143.86 92.3999 143.19C90.6396 142.065 89.4527 142.804 88.4629 144.068C86.6711 146.354 84.908 146.556 82.4849 144.854C80.1866 143.239 77.647 143.477 75.4677 145.369C72.401 148.032 69.1138 150.515 66.4329 153.529C62.8312 157.577 58.2949 158.203 53.3844 158.411C52.1847 158.461 51.0124 159.281 49.8373 159.769C49.6625 159.842 49.5607 160.119 49.3883 160.167C46.2888 161.013 43.9649 162.195 45.8739 166.123C46.2455 166.885 40.5856 170.719 39.4851 170.713C38.6419 170.709 37.7906 171.104 36.9561 171.065C36.1502 171.026 34.8236 170.855 34.6527 170.399C33.7674 168.015 32.4179 168.486 30.9289 169.565C28.7749 171.124 26.5704 170.819 24.2665 169.995C22.6972 169.433 22.1524 168.759 23.1236 167.088C23.5636 166.332 23.5352 164.391 23.221 164.268C21.9269 163.764 20.0247 163.103 19.1107 163.689C16.8736 165.126 14.7543 165.697 12.2172 165.013C11.7802 164.894 10.9734 164.953 10.8046 165.223C9.17928 167.828 6.73766 168.468 3.8837 168.515C3.29252 168.525 2.1411 169.577 2.22275 169.912C2.91419 172.757 0.531654 173.582 -0.940197 174.923C-2.66171 176.489 -4.58636 177.83 -6.36174 179.34C-8.98058 181.567 -14.5949 182.656 -17.2014 180.73C-18.3016 179.917 -18.8919 177.413 -18.5842 175.909C-17.9788 172.959 -19.7439 171.616 -21.4189 170.037C-22.0701 169.422 -22.8299 168.924 -23.4965 168.325C-25.7805 166.269 -26.7239 164.239 -23.4661 162.152C-22.9251 161.806 -22.5317 161.047 -22.3327 160.397C-22.1135 159.684 -22.1987 158.878 -22.1506 158.112C-22.9519 158.322 -23.8238 158.4 -24.5354 158.779C-25.2319 159.149 -25.7886 159.803 -26.3667 160.373C-27.9924 161.975 -29.006 161.851 -29.7683 159.513C-30.0031 158.793 -31.2259 157.914 -31.9855 157.924C-36.4146 157.983 -38.6798 154.825 -36.9388 150.734C-36.6624 150.084 -36.3096 149.45 -35.8936 148.882C-34.4323 146.888 -35.151 145.497 -37.281 145.071C-39.4003 144.648 -40.5896 143.821 -40.6003 141.54C-40.6071 139.958 -41.491 139.543 -43.0503 139.807C-47.0601 140.49 -50.988 141.271 -53.8741 144.505C-57.226 140.686 -60.5779 136.867 -63.9298 133.048C-64.8195 130.732 -64.048 128.907 -62.2762 127.355C-58.7697 124.285 -55.3526 121.107 -51.7443 118.159C-49.7381 116.52 -49.0962 114.723 -49.1324 112.128C-49.2308 105.073 -48.458 98.2139 -41.748 93.8343C-41.4134 93.6166 -41.1533 93.2852 -40.8612 93.0036C-38.3801 90.6096 -35.8931 88.2223 -33.4229 85.8177C-31.1334 83.5886 -29.9292 79.7783 -25.6118 80.4953C-25.4159 80.5278 -25.1647 80.113 -24.9149 79.9411C-22.2872 78.1302 -22.9624 75.5467 -23.2934 73.0434C-22.8337 72.6331 -22.3754 72.2309 -21.9171 71.8287Z" fill="#52843E"/>
<path d="M160.556 79.4196C160.121 77.4199 159.089 76.4533 156.96 76.4946C156.125 76.5105 155.277 75.8233 154.435 75.4569C154.941 74.5771 155.263 73.4792 155.992 72.865C157.443 71.6435 158.939 70.857 158.853 68.3831C158.774 66.0942 160.381 65.729 162.319 67.1092C163.025 67.6116 164.015 67.713 164.876 67.9987C164.793 67.1435 164.902 66.2117 164.597 65.4447C163.046 61.5529 163.112 61.4303 167.401 61.7629C171.149 62.0539 171.151 61.9991 169.958 58.3512C169.707 57.5859 169.643 56.3575 170.081 55.8784C170.543 55.3737 171.745 55.2837 172.555 55.4211C173.736 55.6223 174.831 56.4201 176.005 56.5344C177.204 56.6503 178.797 56.6668 179.62 55.9949C182.676 53.5042 185.756 53.8633 188.994 55.2931C190.932 56.1495 192.809 57.1522 194.781 57.9198C199.898 59.914 201.856 66.9947 198.211 71.0375C195.909 73.5899 193.238 75.8059 190.879 78.3105C189.25 80.0416 187.888 82.0241 186.366 83.8604C185.861 84.4711 185.299 85.3464 184.644 85.4702C181.35 86.0892 180.102 88.4221 179.213 91.2592C178.955 92.0841 178.35 93.1789 177.66 93.4067C176.328 93.8465 174.822 93.7556 173.389 93.8855C173.544 92.7613 173.598 91.6099 173.889 90.5216C174.063 89.8678 174.62 89.3189 174.978 88.7085C175.376 88.0314 176.169 87.2387 176.039 86.6685C175.724 85.2968 175.035 83.9899 174.333 82.7504C174.217 82.5476 173.188 82.6714 172.71 82.9057C171.53 83.4833 170.462 84.2915 169.282 84.8663C166.984 85.9849 164.732 86.0803 162.931 83.9412C161.155 81.8306 160.31 82.8639 159.639 84.7871C159.539 85.074 159.455 85.3674 159.384 85.6634C158.935 87.5246 158.3 89.4925 155.949 89.1205C153.64 88.7558 153.99 86.6028 154.014 84.9202C154.08 80.1499 155.421 79.0238 160.556 79.4196Z" fill="#52843E"/>
</g>
</svg>
