<svg width="511" height="640" viewBox="0 0 511 640" fill="none" xmlns="http://www.w3.org/2000/svg">
<path opacity="0.13" d="M798.744 442.908C795.323 439.839 801.069 435.517 800.846 435.002C800.16 433.417 798.594 430.878 797.625 430.987C793.81 431.417 792.787 428.759 791.081 426.515C790.29 425.475 788.891 424.266 787.747 424.244C784.358 424.18 781.957 422.71 779.76 420.336C778.889 419.395 777.549 418.755 776.302 418.323C774.089 417.556 771.79 417.033 769.516 416.445C768.17 416.098 766.424 415.13 765.514 415.631C761.581 417.793 757.571 412.338 753.837 415.969C751.008 412.781 747.237 411.779 743.205 411.347C743.033 411.328 742.909 410.951 742.745 410.754C740.165 407.687 737.063 406.824 733.566 408.973C731.12 410.475 729.633 409.604 728.085 407.636C726.929 406.167 725.67 404.424 724.062 403.749C721.555 402.696 718.737 402.229 716.003 401.914C712.895 401.557 709.273 399.868 707.29 404.21C707.119 404.585 706.283 404.73 705.728 404.841C703.251 405.34 700.772 405.853 698.274 406.218C697.379 406.348 696.199 406.4 695.536 405.935C691.872 403.369 688.184 404.078 684.685 405.939C684.662 405.951 684.638 405.975 684.615 405.99C681.487 405.251 678.234 404.992 674.86 404.956C674.479 404.148 674.069 403.358 673.691 402.622C673.34 401.938 670.815 401.817 669.572 402.252C668.59 402.598 667.626 402.995 666.669 403.409C666.219 403.032 665.822 402.707 665.557 402.507C664.291 401.54 663.196 400.756 661.805 399.948C661.374 399.697 660.929 399.487 660.487 399.262C660.525 398.693 660.492 398.107 660.375 397.525C660.19 396.606 657.458 395.685 655.885 395.681C653.674 395.674 651.854 395.996 651.347 393.092C651.259 392.59 649.834 392.299 649.009 391.949C646.382 390.832 642.23 391.924 642.155 387.046C642.146 386.524 640.648 385.696 639.763 385.575C636.583 385.137 633.123 386.225 630.434 383.299C630.013 382.842 628.291 383.452 627.221 383.754C626.123 384.065 625.127 384.81 624.023 385.003C618.47 385.971 618.368 385.972 620.171 391.395C620.837 393.4 620.023 393.981 618.506 393.307C616.63 392.473 615.005 391.073 612.853 389.639C617.555 387.921 615.426 384.93 615.005 382.371C614.548 379.606 613.315 377.906 610.006 378.814C608.986 379.094 607.751 376.418 608.358 375.538C608.863 374.806 609.737 374.11 609.801 373.342C609.912 372.03 609.959 370.237 609.201 369.475C608.581 368.853 606.53 369.035 605.5 369.586C603.847 370.468 601.282 368.649 601.836 366.82C600.616 366.637 599.4 366.347 598.174 366.299C596.545 366.236 594.521 365.275 593.761 367.843C593.748 367.886 593.006 367.879 592.832 367.688C589.73 364.282 585.685 366.758 582.169 366.301C579.392 365.939 577.513 366.193 576.432 363.123C575.263 359.806 572.848 358.773 569.369 360.148C567.932 360.714 566.189 360.826 564.626 360.686C560.605 360.324 557.509 362.325 555.954 366.046C555.332 367.535 554.051 369.106 552.65 369.851C545.886 373.447 539.038 373.639 532.259 369.668C530.436 368.601 528.768 368.097 528.963 371.356C529.007 372.076 528.364 372.836 528.038 373.579C527.48 372.974 526.69 372.463 526.4 371.749C524.959 368.197 523.653 364.589 522.289 361.006C521.378 358.612 519.517 357.341 517.18 358.257C515.582 358.884 513.872 360.369 513.235 361.895C512.823 362.882 514.304 364.622 514.852 366.057C515.293 367.207 515.851 368.398 515.882 369.582C515.899 370.251 514.957 370.944 514.447 371.627C513.5 370.842 512.48 370.127 511.637 369.244C511.124 368.71 510.868 367.924 510.523 367.24C509.533 365.281 508.732 363.093 505.731 364.127C505.497 364.208 504.686 363.378 504.553 362.865C503.774 359.877 500.725 357.386 498.29 358.738C492.847 361.762 487.531 359.812 482.172 359.236C475.047 358.469 474.185 359.553 473.333 366.532C472.811 370.801 470.669 374.89 469.047 378.979C468.826 379.536 467.326 379.955 466.544 379.801C465.921 379.678 464.903 378.301 465.066 377.962C466.753 374.43 463.863 372.255 462.808 369.541C462.44 368.596 461.833 367.044 462.236 366.613C465.098 363.558 463.05 360.777 461.846 358.117C460.196 354.472 456.613 354.004 453.768 356.865C453.06 357.578 452.596 358.53 451.987 359.349C449.788 362.302 449.353 366.701 444.891 367.876C444.477 367.986 444.172 369.666 444.314 370.536C444.884 374.028 445.649 377.489 446.526 381.89C441.17 379.595 439.043 382.953 436.331 384.892C432.692 387.493 430.044 391.304 427.814 394.756C427.42 395.364 425.43 394.865 424.195 395.022C421.445 395.371 418.606 395.54 419.766 399.801C420.012 400.709 418.918 402.321 418.011 403.127C416.498 404.471 414.517 405.28 412.969 406.591C411.966 407.441 410.496 409.09 410.758 409.864C412.479 414.916 408.697 416.482 405.62 418.348C404.724 418.89 402.458 418.835 402.115 418.268C401.459 417.187 401.56 415.527 401.668 414.133C401.765 412.868 402.213 411.609 402.644 410.397C402.984 409.442 403.593 408.586 403.978 407.643C404.635 406.035 405.79 404.358 405.7 402.77C405.516 399.533 404.019 396.48 405.871 393.092C406.892 391.224 408.272 384.796 410.99 382.864C411.715 382.349 412.499 381.17 412.383 380.433C412.268 379.697 411.105 378.653 410.319 378.576C405.576 378.114 406.916 375.485 408.417 373.139C410.217 370.329 409.002 368.705 406.516 367.803C404.344 367.015 403.143 366.283 404.31 363.733C404.567 363.173 403.799 361.537 403.178 361.319C402.127 360.948 400.628 360.95 399.667 361.46C398.623 362.011 398.084 363.443 397.128 364.262C396.334 364.944 394.793 365.963 394.378 365.679C392.075 364.095 390.218 364.413 388.214 366.14C387.83 366.471 386.766 366.158 386.072 365.954C381.938 364.741 380.417 365.537 379.098 369.688C378.176 372.591 375.991 373.361 373.502 371.524C372.492 370.777 371.746 369.682 370.841 368.787C368.574 366.545 367.285 367.114 365.55 369.714C363.01 373.521 360.341 377.482 356.896 380.398C349.813 386.393 342.209 391.776 334.735 397.296C333.897 397.915 332.367 398.237 331.406 397.928C328.854 397.109 326.528 395.503 323.949 394.872C318.477 393.531 317.213 391.134 319.952 386.111C323.385 379.82 326.819 373.526 330.406 367.321C332.51 363.682 333.415 360.036 331.799 355.992C330.892 353.721 331.909 352.4 333.993 351.491C337.043 350.162 339.994 348.603 343.064 347.323C347.794 345.353 348.966 340.708 348.713 336.894C348.549 334.416 344.753 331.92 342.198 329.929C339.428 327.768 336.245 326.118 333.174 324.366C330.779 322.999 328.377 321.498 325.779 320.708C324.726 320.388 322.561 321.447 321.931 322.495C320.621 324.679 319.707 326.494 316.681 325.054C315.992 324.726 314.468 325.102 313.984 325.691C313.523 326.253 313.537 327.825 314.012 328.415C315.325 330.048 316.955 331.437 318.524 332.852C319.647 333.863 320.875 334.758 322.055 335.704C320.802 336.841 319.585 338.022 318.287 339.104C316.973 340.198 314.793 340.96 314.397 342.287C313.737 344.495 313.091 344.396 311.245 343.831C309.504 343.298 307.491 343.191 305.701 343.5C304.928 343.633 303.779 345.366 303.893 346.23C304.434 350.325 305.351 354.37 306.155 358.546C304.13 357.923 302.109 357.061 300.008 356.769C299.115 356.645 297.143 358.011 297.205 358.202C298.944 363.59 295.321 363.496 291.842 363.677C291.247 363.708 290.455 364.003 290.124 364.451C286.998 368.673 282.068 368.942 277.632 370.365C273.416 371.719 269.218 373.911 265.966 368.676C265.74 368.31 264.864 368.347 264.291 368.197C264.201 368.785 263.998 369.381 264.04 369.958C264.211 372.319 264.592 374.675 264.635 377.038C264.672 379.135 265.528 380.44 267.236 378.786C271.119 375.025 275.152 377.281 279.157 377.954C279.863 378.072 280.448 378.923 281.089 379.436C280.493 379.811 279.944 380.367 279.295 380.53C275.164 381.571 273.36 384.253 273.565 388.407C273.707 391.278 272.628 393.236 269.86 394.45C269.008 394.824 268.13 396.385 268.179 397.357C268.427 402.334 268.463 407.411 269.561 412.229C270.688 417.181 273.59 419.831 277.885 418.294C278.812 417.962 279.919 417.98 280.926 418.061C284.641 418.357 286.223 416.514 286.695 412.987C287.138 409.662 292.128 405.709 295.5 405.788C296.159 405.803 297.082 406.194 297.416 406.712C300.59 411.616 303.855 416.477 306.682 421.58C308.021 423.998 311.705 424.46 311.577 427.89C315.679 428.269 314.792 430.678 313.901 433.283C313.608 434.143 313.643 435.508 314.152 436.118C314.512 436.55 315.94 436.17 316.868 436.015C317.485 435.911 318.109 435.298 318.648 435.391C319.705 435.573 320.706 436.089 321.73 436.466C321.278 437.587 321.076 439.452 320.333 439.7C316.869 440.859 317.763 442.9 318.778 445.157C319.232 446.167 319.673 447.198 319.967 448.261C320.461 450.056 320.393 452.177 321.357 453.635C322.908 455.982 322.682 457.098 320.116 458.262C317.824 459.302 315.443 460.515 313.661 462.232C310.484 465.297 311.401 469.41 312.155 473.112C312.825 476.406 315.608 473.741 317.306 474.359C317.664 474.489 318.129 474.431 318.41 474.64C321.839 477.182 324.725 475.841 327.769 473.701C328.703 473.043 330.97 472.862 331.666 473.504C337.42 478.81 337.351 478.885 344.352 475.981C344.588 475.883 344.81 475.705 345.052 475.677C345.646 475.604 346.249 475.594 346.849 475.559C346.834 476.144 347.041 476.869 346.772 477.293C344.312 481.156 346.193 482.587 349.902 482.996C350.78 483.092 351.684 482.974 352.576 482.954C352.473 483.495 352.369 484.037 352.266 484.577C351.098 484.915 349.857 485.105 348.778 485.626C347.202 486.388 345.287 487.074 344.376 488.388C343.655 489.43 343.708 491.661 344.368 492.827C345.072 494.073 346.891 494.687 348.222 495.577C348.842 494.518 349.405 493.42 350.104 492.415C350.539 491.789 351.178 491.307 351.725 490.76C352.231 491.525 353.12 492.263 353.175 493.059C353.387 496.097 353.808 498.729 356.881 500.529C357.832 501.085 357.793 503.466 358.007 505.041C358.053 505.377 356.878 506.208 356.841 506.175C355.853 505.28 354.702 504.437 354.057 503.312C351.691 499.19 350.815 498.844 346.448 500.869C345.287 501.407 344.127 501.95 342.973 502.505C338.758 504.537 338.309 506.337 341.458 509.681C343.028 511.348 344.057 512.723 342.326 514.933C341.956 515.405 342.388 516.833 342.85 517.568C344.246 519.781 346.074 521.741 347.306 524.029C349.844 528.741 351.034 529.267 355.535 526.304C357.436 525.053 358.206 525.605 358.988 527.346C360.089 529.797 361.337 532.184 362.411 534.647C362.897 535.759 363.592 537.914 363.389 538.017C361.461 538.996 359.411 539.873 357.298 540.313C354.707 540.853 351.972 540.729 349.413 541.357C348.612 541.553 347.674 543.265 347.686 544.272C347.711 546.393 354.247 551.655 356.23 551.635C354.594 556.023 354.069 560.486 355.676 565.047C356.702 567.963 358.517 569.243 361.577 567.743C363.962 566.574 366.259 566.442 368.33 568.384C371.5 571.357 374.759 574.25 377.743 577.402C378.976 578.705 379.266 580.941 380.554 582.146C383.268 584.682 384.635 588.137 385.123 591.282C385.486 593.621 385.685 594.545 387.876 594.981C388.701 595.146 389.55 595.655 390.184 596.233C393.374 599.14 398.376 599.718 400.386 604.156C400.509 604.427 401.108 604.736 401.37 604.654C406.108 603.18 410.868 604.407 415.613 604.348C417.776 604.321 419.888 602.747 422.084 602.078C423.884 601.53 425.776 601.284 427.627 600.904C426.274 602.431 424.879 603.922 423.59 605.501C422.993 606.233 422.099 607.247 422.254 607.924C422.417 608.633 423.603 609.293 424.474 609.604C425.265 609.887 426.329 609.926 427.111 609.638C432.81 607.536 437.822 609.604 442.914 611.875C447.58 613.956 452.251 616.304 457.172 617.456C462.178 618.629 466.739 621.111 472.396 620.828C476.775 620.608 481.368 623.448 485.767 625.181C490.299 626.968 492.359 626.687 496.027 623.189C496.359 622.873 496.852 622.725 497.271 622.5C498.32 625.913 502.552 622.404 503.904 625.536C504.128 626.058 505.945 626.423 506.697 626.1C511.561 624.006 516.269 626.151 521.043 626.335C524.425 626.466 526.001 627.57 525.851 631.335C525.708 634.985 526.8 635.257 530.466 634.256C532.121 633.804 534.55 633.63 535.74 634.518C539.55 637.362 543.279 637.013 547.315 635.51C549.588 634.664 551.919 633.965 554.249 633.283C558.31 632.091 562.389 630.963 565.578 630.058C566.452 632.777 566.494 635.735 567.963 636.917C571.602 639.844 575.933 640.95 580.488 638.223C582.007 637.315 583.734 636.6 585.458 636.218C590.82 635.028 595.594 630.042 601.769 633.644C602.317 633.963 603.429 633.229 604.296 633.111C605.283 632.978 606.634 632.542 607.231 633.006C610.666 635.673 614.019 634.878 617.528 633.311C618.278 632.977 619.322 632.99 620.147 633.19C623.467 633.993 627.181 631.73 630.283 634.541C630.633 634.858 631.744 634.4 632.481 634.217C635.209 633.538 637.933 632.839 640.652 632.121C646.622 630.548 646.605 630.542 646.289 624.405C646.26 623.836 646.407 622.999 646.783 622.743C647.113 622.517 648.091 622.737 648.418 623.094C650.37 625.218 652.426 624.495 654.755 623.806C658.208 622.784 661.466 621.396 665.487 622.573C670.255 623.968 675.385 624.152 680.369 624.788C683.14 625.141 685.734 625.012 687.249 621.985C687.537 621.409 688.663 621.236 689.419 620.914C690.968 620.256 692.509 619.57 694.09 618.997C695.094 618.632 696.153 618.387 697.206 618.197C698.663 617.934 700.252 618.059 701.586 617.521C707.518 615.135 713.348 612.498 719.286 610.128C720.76 609.54 723.187 608.82 723.989 609.521C726.717 611.902 729.309 611.444 732.216 610.404C732.887 610.164 733.736 610.443 734.502 610.439C741.012 610.411 747.522 610.373 754.032 610.338L784.566 595.848C788.002 592.871 791.641 590.092 794.805 586.85C797.023 584.577 799.252 581.909 800.31 578.996C802.375 573.31 803.624 567.327 805.211 561.465C804.895 561.323 801.539 556.341 798.679 556.521C793.94 556.822 788.782 556.55 786.209 562.083C785.95 562.64 784.208 563.055 783.484 562.751C780.58 561.528 778.307 561.957 775.708 563.867C771.44 567.005 770.385 566.338 768.306 561.612C767.568 559.938 765.574 558.815 764.131 557.42C765.314 556.859 767.036 555.842 768.891 555.213C771.181 554.438 772.728 552.955 771.873 550.716C771.196 548.942 769.55 547.344 767.955 546.196C767.155 545.622 765.507 546.244 764.241 546.294C763.176 546.335 761.238 546.531 761.188 546.313C760.828 544.748 760.67 543.068 760.896 541.489C760.945 541.15 762.905 541.254 763.844 540.837C765.723 540.002 767.854 539.297 769.24 537.903C771.238 535.892 772.574 535.157 774.804 537.602C776.786 539.774 784.223 540.359 786.798 538.891C787.245 538.637 787.786 537.971 787.747 537.543C787.509 534.91 787.17 532.283 786.741 529.674C786.63 528.997 786.075 527.836 785.73 527.839C782.224 527.862 782.377 525.019 781.55 522.859C780.544 520.235 778.369 514.832 778.64 515.92C779.84 515.56 781.071 515.28 782.234 514.824C785.371 513.592 787.654 514.26 789.891 517.006C791.971 519.561 794.865 521.442 797.3 523.728C797.891 524.282 798.003 525.313 798.48 526.027C799.223 527.139 800.084 529.072 800.907 529.077C804.542 529.102 805.11 531.831 806.19 534.209C807.037 536.073 808.006 537.897 808.677 539.822C809.548 542.323 810.463 544.094 813.567 542.274C814.115 541.951 815.46 542.825 816.345 543.309C816.733 543.522 816.794 544.274 817.17 544.567C818.583 545.67 820.066 546.686 821.521 547.733C822.382 546.396 823.907 545.072 823.934 543.72C823.968 541.97 823.242 539.744 822.028 538.565C820.921 537.491 821.149 537.133 821.155 535.779C821.174 531.646 820.419 527.487 819.652 523.396C819.532 522.75 817.84 522.219 816.793 521.962C813.212 521.075 812.543 519.897 814.628 517.045C816.006 515.159 816.515 513.566 815.113 511.516C813.678 509.414 812.088 510.915 810.458 510.879C808.2 510.826 805.96 509.607 803.756 508.774C803.678 508.743 803.835 507.239 804.264 506.892C805.14 506.184 806.535 506.022 807.233 505.217C808.048 504.28 808.347 502.895 808.871 501.702C807.848 501.317 806.743 501.066 805.831 500.503C805.11 500.059 804.105 499.215 804.124 498.575C804.242 494.555 807.233 492.82 810.881 494.467C812.744 495.308 814.594 496.2 816.507 496.911C818.479 497.644 820.102 497.311 820.486 494.865C820.813 492.781 821.058 490.684 821.339 488.592C819.404 488.701 817.451 489.02 815.54 488.859C813.468 488.684 811.075 488.549 809.54 487.421C808.812 486.886 809.5 484.007 809.995 482.322C810.748 479.754 812.01 477.337 812.807 474.779C813.104 473.823 812.703 472.649 812.619 471.575C811.68 471.781 810.636 471.791 809.824 472.23C807.576 473.442 805.536 475.101 803.199 476.066C801.405 476.806 799.127 478.411 797.422 475.724C795.055 471.994 795.208 469.484 797.771 467.371C798.945 466.403 800.229 465.496 801.159 464.322C803.125 461.837 804.37 459.153 802.919 455.835C801.911 453.532 801.846 451.472 804.852 450.252C805.981 449.794 806.669 448.25 807.558 447.204L805.909 443.729C803.577 443.215 801.248 445.155 798.744 442.908Z" fill="#52843E"/>
<path opacity="0.13" d="M14.9014 246.038C15.2647 246.158 15.6848 246.196 15.981 246.41C18.2883 248.069 21.04 251.789 21.2194 244.985C21.2346 244.386 23.6061 243.654 24.965 243.326C27.6131 242.688 30.4638 242.671 32.9737 241.719C38.1047 239.769 43.057 237.353 48.0992 235.164C51.8781 233.524 52.696 234.131 52.4858 238.119C52.4239 239.283 52.7717 240.472 52.9314 241.648C54.1117 241.269 55.5237 241.183 56.434 240.463C63.0034 235.262 63.7782 235.7 67.3778 243.887C68.277 245.931 69.5165 247.826 71.3068 249.565C71.2777 247.361 71.1806 245.155 71.2574 242.954C71.2815 242.266 71.6066 241.428 72.0819 240.941C74.7693 238.183 82.8287 238.392 85.366 241.323C86.6567 242.815 87.5989 243.92 89.6438 242.156C91.6931 240.386 93.6397 241.032 95.0728 243.328C95.9508 244.734 96.9049 246.095 97.8969 247.424C99.3431 249.359 100.938 249.826 103.531 249.136C105.931 248.498 108.838 248.768 111.282 249.475C118.721 251.629 121.925 250.238 124.629 243.152C125.218 241.612 125.955 240.094 126.855 238.716C128.442 236.284 130.782 235.861 132.607 238.038C135.498 241.489 139.408 241.619 143.269 242.444C145.356 242.89 147.442 244.003 149.174 245.291C151.806 247.246 154.082 246.672 157.146 243.745C160.221 240.806 163.525 237.88 167.233 235.892C171.335 233.69 172.902 234.762 175.018 238.958C176.786 242.459 177.635 246.193 182.248 248.157C185.538 249.559 187.937 249.971 190.687 248.301C193.635 246.513 196.201 245.668 199.294 248.222C201.326 249.898 203.865 251.072 206.344 252.055C207.941 252.69 209.965 253.08 211.569 252.675C214.193 252.011 214.788 253.803 215.52 255.286C216.921 258.13 218.445 259.681 222.074 258.54C223.92 257.96 226.286 258.952 228.401 259.324C231.278 259.833 231.029 262.208 231.547 264.311C231.75 265.134 233.286 265.927 234.349 266.189C240.114 267.611 241.188 270.658 237.177 275.153C234.943 277.657 232.213 279.724 230.02 282.258C229.048 283.38 228.377 285.179 228.406 286.655C228.452 288.95 227.928 290 225.489 289.922C222.214 289.818 220.696 291.602 220.309 294.814C220.168 295.985 219.391 297.579 218.436 298.068C212.838 300.935 207.137 303.61 201.397 306.187C198.853 307.329 196.097 307.994 193.514 309.06C192.418 309.513 191.423 310.343 190.557 311.183C189.281 312.417 188.359 314.103 186.933 315.081C183.606 317.365 182.074 319.978 183.213 324.187C183.527 325.35 182.262 327.603 181.082 328.36C179.161 329.59 178.771 330.65 179.489 332.722C180.857 336.678 179.914 338.042 175.774 337.78C172.556 337.576 170.865 338.733 169.705 341.736C169.161 343.146 167.333 344.086 166.024 345.165C163.935 346.884 161.844 348.611 159.652 350.197C158.454 351.065 156.894 352.443 155.768 352.219C151.149 351.307 147.919 353.956 144.535 356.102C143.715 356.622 143.277 358.316 143.293 359.462C143.33 361.954 142.541 363.705 140.119 364.52C137.777 365.307 137.042 366.931 136.509 369.332C136.081 371.266 134.318 373.105 132.691 374.425C132.297 374.745 129.835 373.088 128.801 371.917C127.056 369.946 125.364 370.432 123.728 371.623C120.769 373.774 118.564 373.411 116.214 370.514C113.987 367.764 110.828 367.177 107.535 368.718C102.901 370.887 98.0624 372.762 93.7751 375.489C88.0154 379.152 82.3033 378.347 76.2821 376.905C74.8112 376.552 73.1083 377.141 71.5161 377.328C71.2793 377.355 71.0605 377.656 70.8351 377.655C66.7881 377.611 63.5646 378.242 64.5233 383.659C64.7107 384.711 56.5315 387.404 55.2001 387.017C54.1797 386.722 53.012 386.908 52.0146 386.572C51.0513 386.247 49.5031 385.583 49.4534 384.971C49.2027 381.777 47.4053 381.883 45.2294 382.676C42.082 383.822 39.5161 382.693 37.009 380.9C35.3011 379.679 34.8737 378.673 36.6264 376.984C37.4202 376.22 38.0551 373.858 37.7168 373.601C36.3226 372.544 34.2459 371.087 32.9365 371.482C29.7304 372.452 26.966 372.413 24.1278 370.709C23.6392 370.415 22.6413 370.208 22.3437 370.477C19.4765 373.072 16.2974 373.006 12.8233 372.079C12.1036 371.888 10.3461 372.764 10.3293 373.199C10.1862 376.884 7.01503 377.062 4.76943 378.179C2.14346 379.484 -0.65082 380.445 -3.32222 381.661C-7.26324 383.457 -14.4409 382.841 -16.9349 379.608C-17.9877 378.244 -17.8395 375.007 -16.9481 373.291C-15.1974 369.925 -16.8729 367.69 -18.3578 365.199C-18.9348 364.229 -19.6837 363.364 -20.2846 362.408C-22.3431 359.13 -22.7862 356.345 -18.1195 354.94C-17.3445 354.706 -16.6061 353.922 -16.1411 353.204C-15.6295 352.415 -15.4549 351.41 -15.1327 350.499C-16.1759 350.476 -17.2589 350.269 -18.2519 350.484C-19.2232 350.691 -20.1232 351.292 -21.0202 351.783C-23.5425 353.164 -24.7276 352.664 -24.845 349.569C-24.8813 348.615 -26.0597 347.128 -26.9837 346.88C-32.3703 345.424 -34.0257 340.816 -30.5059 336.46C-29.9469 335.768 -29.3008 335.121 -28.601 334.577C-26.1429 332.664 -26.534 330.731 -28.9679 329.481C-31.3896 328.237 -32.5453 326.825 -31.7718 324.058C-31.2348 322.139 -32.1623 321.331 -34.1428 321.114C-39.2366 320.559 -44.2647 320.15 -48.8767 323.073C-51.621 317.29 -54.3653 311.507 -57.1096 305.724C-57.3891 302.612 -55.8251 300.667 -53.1433 299.398C-47.8361 296.887 -42.6001 294.214 -37.2122 291.888C-34.2164 290.594 -32.8189 288.637 -31.968 285.481C-29.6547 276.899 -26.3532 268.855 -16.7133 265.862C-16.2328 265.714 -15.8033 265.402 -15.3524 265.162C-11.5208 263.117 -7.68438 261.082 -3.86244 259.02C-0.319906 257.109 2.45299 252.907 7.43668 255.265C7.66282 255.372 8.11018 254.956 8.47203 254.834C12.2802 253.545 12.353 250.183 12.815 247.035C13.5135 246.697 14.2074 246.368 14.9014 246.038Z" fill="#52843E"/>
<path opacity="0.13" d="M233.367 318.153C233.529 315.581 232.611 314.053 230.018 313.369C229.001 313.101 228.21 311.976 227.316 311.242C228.232 310.35 229.002 309.131 230.096 308.638C232.276 307.659 234.359 307.221 235.108 304.194C235.802 301.394 237.875 301.505 239.747 303.846C240.429 304.698 241.594 305.162 242.538 305.805C242.733 304.741 243.185 303.649 243.081 302.615C242.543 297.365 242.666 297.239 247.748 299.121C252.188 300.766 252.21 300.7 252.022 295.869C251.982 294.855 252.328 293.345 253.024 292.915C253.757 292.463 255.245 292.768 256.179 293.214C257.54 293.865 258.592 295.209 259.975 295.753C261.387 296.306 263.312 296.876 264.541 296.345C269.102 294.381 272.71 295.879 276.14 298.727C278.193 300.433 280.122 302.295 282.246 303.905C287.758 308.086 287.69 317.34 281.879 320.981C278.21 323.28 274.21 325.044 270.488 327.265C267.917 328.801 265.584 330.733 263.106 332.433C262.284 332.999 261.301 333.866 260.464 333.79C256.26 333.404 253.943 335.8 251.888 338.931C251.291 339.841 250.182 340.96 249.266 340.997C247.501 341.071 245.708 340.442 243.927 340.105C244.502 338.796 244.964 337.42 245.692 336.201C246.129 335.47 246.992 334.996 247.637 334.38C248.352 333.697 249.587 333.01 249.626 332.275C249.717 330.504 249.333 328.683 248.91 326.939C248.84 326.654 247.55 326.449 246.889 326.568C245.26 326.861 243.689 327.472 242.06 327.761C238.891 328.324 236.129 327.663 234.684 324.45C233.26 321.281 231.881 322.242 230.404 324.34C230.184 324.653 229.981 324.98 229.793 325.314C228.607 327.414 227.16 329.58 224.44 328.318C221.767 327.08 222.934 324.592 223.543 322.562C225.268 316.805 227.281 315.903 233.367 318.153Z" fill="#52843E"/>
</svg>
