<svg width="25" height="24" viewBox="0 0 25 24" fill="none" xmlns="http://www.w3.org/2000/svg">
<path d="M3.55273 8.70938C3.55273 7.23584 3.55273 6.49907 3.94537 6.06935C4.08477 5.91678 4.2542 5.79466 4.44302 5.71066C4.97486 5.47406 5.67382 5.70705 7.07174 6.17302C8.13899 6.52877 8.67262 6.70665 9.21183 6.68823C9.40987 6.68147 9.60674 6.65511 9.79958 6.60952C10.3246 6.48541 10.7926 6.1734 11.7287 5.54937L13.111 4.62778C14.3101 3.82843 14.9096 3.42876 15.5978 3.3366C16.286 3.24444 16.9695 3.47229 18.3366 3.92799L19.5014 4.31624C20.4914 4.64625 20.9864 4.81126 21.2696 5.20409C21.5527 5.59692 21.5527 6.11871 21.5527 7.16229V15.2907C21.5527 16.7642 21.5527 17.501 21.1601 17.9307C21.0207 18.0833 20.8512 18.2054 20.6624 18.2894C20.1306 18.526 19.4316 18.293 18.0337 17.827C16.9664 17.4713 16.4328 17.2934 15.8936 17.3118C15.6956 17.3186 15.4987 17.3449 15.3059 17.3905C14.7808 17.5146 14.3128 17.8266 13.3767 18.4507L11.9944 19.3722C10.7953 20.1716 10.1958 20.5713 9.50766 20.6634C8.81947 20.7556 8.13592 20.5277 6.76882 20.072L5.60405 19.6838C4.61402 19.3538 4.119 19.1888 3.83587 18.7959C3.55273 18.4031 3.55273 17.8813 3.55273 16.8377V8.70938Z" stroke="white" stroke-width="1.5"/>
<path d="M9.55273 6.63867V20.5" stroke="white" stroke-width="1.5"/>
<path d="M15.5527 3V17" stroke="white" stroke-width="1.5"/>
</svg>
