<?xml version="1.0" encoding="utf-8"?>
<!-- Generator: Adobe Illustrator 19.0.0, SVG Export Plug-In . SVG Version: 6.00 Build 0)  -->
<svg version="1.1" id="Layer_1" xmlns="http://www.w3.org/2000/svg" xmlns:xlink="http://www.w3.org/1999/xlink" x="0px" y="0px"
	 viewBox="-293 385 25 24" style="enable-background:new -293 385 25 24;" xml:space="preserve">
<style type="text/css">
	.st0{fill:none;stroke:#06223C;stroke-width:1.5;}
</style>
<path class="st0" d="M-289.4,393.7c0-1.5,0-2.2,0.4-2.6c0.1-0.2,0.3-0.3,0.5-0.4c0.5-0.2,1.2,0,2.6,0.5c1.1,0.4,1.6,0.5,2.1,0.5
	c0.2,0,0.4,0,0.6-0.1c0.5-0.1,1-0.4,1.9-1.1l1.4-0.9c1.2-0.8,1.8-1.2,2.5-1.3s1.4,0.1,2.7,0.6l1.2,0.4c1,0.3,1.5,0.5,1.8,0.9
	c0.3,0.4,0.3,0.9,0.3,2v8.1c0,1.5,0,2.2-0.4,2.6c-0.1,0.2-0.3,0.3-0.5,0.4c-0.5,0.2-1.2,0-2.6-0.5c-1.1-0.4-1.6-0.5-2.1-0.5
	c-0.2,0-0.4,0-0.6,0.1c-0.5,0.1-1,0.4-1.9,1.1l-1.4,0.9c-1.2,0.8-1.8,1.2-2.5,1.3c-0.7,0.1-1.4-0.1-2.7-0.6l-1.2-0.4
	c-1-0.3-1.5-0.5-1.8-0.9c-0.3-0.4-0.3-0.9-0.3-2V393.7z"/>
<path class="st0" d="M-283.4,391.6v13.9"/>
<path class="st0" d="M-277.4,388v14"/>
</svg>
