<svg width="564" height="380" viewBox="0 0 564 380" fill="none" xmlns="http://www.w3.org/2000/svg">
<path opacity="0.978" d="M65.3154 260.631C95.1569 258.461 124.046 262.608 151.994 273.073C188.451 288.651 211.595 315.301 221.497 353.094C189.945 326.703 153.671 310.173 112.689 303.515L112.647 303.508L112.604 303.504C101.967 302.655 91.3842 302.966 80.8555 304.438L80.8574 306.515C128.803 313.129 170.277 332.792 205.311 365.512C186.033 375.922 165.344 380.284 143.217 378.599C117.843 376.036 94.5271 367.756 73.2539 353.75C42.197 331.51 15.6823 304.806 -6.29395 273.634C17.2684 266.984 41.1375 262.65 65.3154 260.631Z" stroke="black" stroke-opacity="0.13" stroke-width="2.0965"/>
<path opacity="0.985" d="M475.044 154.017C503.968 153.418 532.827 154.486 561.62 157.217C561.775 157.438 561.891 157.68 561.973 157.947C539.933 202.986 511.779 243.727 477.507 280.171C453.713 304.262 426.178 322.876 394.894 336.02C360.9 348.492 326.193 350.948 290.745 343.389C285.843 342.234 281.073 340.725 276.433 338.864C320.749 281.97 377.756 243.678 447.48 223.973L447.177 221.916C408.348 222.633 372.23 232.875 338.846 252.639L337.263 253.585C304.829 272.925 275.954 296.75 250.639 325.057C257.241 265.005 286.647 219.807 338.914 189.373L340.175 188.645C364.826 175.199 390.979 165.97 418.638 160.955C437.459 157.639 456.261 155.325 475.044 154.017Z" stroke="black" stroke-opacity="0.13" stroke-width="2.0965"/>
<path opacity="0.981" d="M127.935 1.68066C168.956 30.2175 202.201 65.916 227.673 108.786L228.892 110.853C253.334 155.981 256.093 202.297 237.18 249.888C232.638 259.254 227.146 267.969 220.705 276.037C221.304 236.643 214.462 198.581 200.18 161.86L200.175 161.85L200.171 161.839L199.379 159.961C191.094 140.631 179.539 123.527 164.716 108.656L163.055 109.901C190.454 159.773 201.429 213.131 195.988 270.005C152.955 248.027 126.121 213.438 115.438 166.16L114.936 163.876C108.101 126.283 108.412 88.7243 115.866 51.1943L115.867 51.1865L115.869 51.1787C118.938 34.4098 122.961 17.9102 127.935 1.68066Z" stroke="black" stroke-opacity="0.13" stroke-width="2.0965"/>
</svg>
