<svg width="63" height="63" viewBox="0 0 63 63" fill="none" xmlns="http://www.w3.org/2000/svg">
<path d="M31.5 15.375C40.4056 15.375 47.625 22.5944 47.625 31.5C47.625 37.9952 43.7839 43.5919 38.25 46.1465V49.874C38.25 53.6019 35.2279 56.624 31.5 56.624C27.7721 56.624 24.75 53.6019 24.75 49.874V46.1465C19.2161 43.5919 15.375 37.9952 15.375 31.5C15.375 22.5944 22.5944 15.375 31.5 15.375ZM35.25 47.1846C34.0465 47.4712 32.7912 47.625 31.5 47.625C30.2088 47.625 28.9535 47.4712 27.75 47.1846V49.874C27.75 51.9451 29.4289 53.624 31.5 53.624C33.571 53.624 35.25 51.9451 35.25 49.874V47.1846ZM31.5 18.375C24.2513 18.375 18.375 24.2513 18.375 31.5L18.3789 31.8389C18.5558 38.8184 24.1816 44.4442 31.1611 44.6211L31.5 44.625C38.6354 44.625 44.4414 38.931 44.6211 31.8389L44.625 31.5C44.625 24.3646 38.931 18.5586 31.8389 18.3789L31.5 18.375ZM12 33H6.375V30H12V33ZM56.625 33H51V30H56.625V33ZM15.8545 13.7334L17.7109 15.5889L18.7715 16.6504L16.6504 18.7715L15.5889 17.7109L13.7334 15.8545L12.6729 14.7939L14.7939 12.6729L15.8545 13.7334ZM50.3271 14.7939L49.2666 15.8545L47.4111 17.7109L46.3496 18.7715L44.2285 16.6504L45.2891 15.5889L47.1455 13.7334L48.2061 12.6729L50.3271 14.7939ZM33 12H30V6.375H33V12Z" fill="#182D10"/>
</svg>
