<svg width="60" height="60" viewBox="0 0 60 60" fill="none" xmlns="http://www.w3.org/2000/svg">
<path d="M30 7.5L35.0892 20.4038C35.559 21.595 35.7939 22.1905 36.1535 22.6927C36.4723 23.1379 36.8621 23.5277 37.3073 23.8465C37.8095 24.2061 38.405 24.441 39.5962 24.9108L52.5 30L39.5962 35.0892C38.405 35.559 37.8095 35.7939 37.3073 36.1535C36.8621 36.4723 36.4723 36.8621 36.1535 37.3073C35.7939 37.8095 35.559 38.405 35.0892 39.5962L30 52.5L24.9108 39.5962C24.441 38.405 24.2061 37.8095 23.8465 37.3073C23.5277 36.8621 23.1379 36.4723 22.6927 36.1535C22.1905 35.7939 21.595 35.559 20.4038 35.0892L7.5 30L20.4038 24.9108C21.595 24.441 22.1905 24.2061 22.6927 23.8465C23.1379 23.5277 23.5277 23.1379 23.8465 22.6927C24.2061 22.1905 24.441 21.595 24.9108 20.4038L30 7.5Z" stroke="#182D10" stroke-width="3" stroke-linecap="round"/>
</svg>
