<svg width="50" height="50" viewBox="0 0 50 50" fill="none" xmlns="http://www.w3.org/2000/svg">
<path d="M47.5 3L30 18L20 8L2.5 23M6.25 48C4.17893 48 2.5 46.3211 2.5 44.25V39.25C2.5 37.1789 4.17893 35.5 6.25 35.5C8.32107 35.5 10 37.1789 10 39.25V44.25C10 46.3211 8.32107 48 6.25 48ZM23.75 48C21.6789 48 20 46.3211 20 44.25V31.75C20 29.6789 21.6789 28 23.75 28C25.8211 28 27.5 29.6789 27.5 31.75V44.25C27.5 46.3211 25.8211 48 23.75 48ZM41.25 48C39.1789 48 37.5 46.3211 37.5 44.25V36.75C37.5 34.6789 39.1789 33 41.25 33C43.3211 33 45 34.6789 45 36.75V44.25C45 46.3211 43.3211 48 41.25 48Z" stroke="#182D10" stroke-width="3" stroke-linecap="square" stroke-linejoin="round"/>
</svg>
