<svg xmlns="http://www.w3.org/2000/svg" width="56.453" height="65.454" viewBox="0 0 56.453 65.454">
  <g id="Reporting_forms" data-name="Reporting forms" transform="translate(-10.837 -4.588)">
    <path id="Path_47546" data-name="Path 47546" d="M67.19,8.063a3.374,3.374,0,0,0-3.375-3.375h-49.5a3.374,3.374,0,0,0-3.375,3.375v58.5a3.374,3.374,0,0,0,3.375,3.375h49.5a3.374,3.374,0,0,0,3.375-3.375Zm-2.25,0v58.5a1.125,1.125,0,0,1-1.125,1.125h-49.5a1.125,1.125,0,0,1-1.125-1.125V8.063a1.125,1.125,0,0,1,1.125-1.125h49.5A1.125,1.125,0,0,1,64.94,8.063Z" transform="translate(0 0)" fill="#fff" stroke="#fff" stroke-width="0.2" fill-rule="evenodd"/>
    <path id="Path_47547" data-name="Path 47547" d="M61.688,14.062A10.125,10.125,0,1,0,71.814,24.187,10.13,10.13,0,0,0,61.688,14.062Zm7.8,11.251a7.874,7.874,0,0,1-12.511,5.181l5.181-5.181Zm-8.922-8.922v7.33L55.382,28.9a7.874,7.874,0,0,1,5.181-12.511Zm2.25,0a7.891,7.891,0,0,1,6.672,6.672H62.813Z" transform="translate(-11.373 -2.624)" fill="#fff" stroke="#fff" stroke-width="0.2" fill-rule="evenodd"/>
    <path id="Path_47548" data-name="Path 47548" d="M21.438,16.313h9a1.125,1.125,0,1,0,0-2.25h-9a1.125,1.125,0,1,0,0,2.25Z" transform="translate(-2.625 -2.625)" fill="#fff" stroke="#fff" stroke-width="0.2" fill-rule="evenodd"/>
    <path id="Path_47549" data-name="Path 47549" d="M21.438,22.563h18a1.125,1.125,0,0,0,0-2.25h-18a1.125,1.125,0,0,0,0,2.25Z" transform="translate(-2.625 -4.374)" fill="#fff" stroke="#fff" stroke-width="0.2" fill-rule="evenodd"/>
    <path id="Path_47550" data-name="Path 47550" d="M21.438,28.813h18a1.125,1.125,0,1,0,0-2.25h-18a1.125,1.125,0,1,0,0,2.25Z" transform="translate(-2.625 -6.124)" fill="#fff" stroke="#fff" stroke-width="0.2" fill-rule="evenodd"/>
    <path id="Path_47551" data-name="Path 47551" d="M40.564,33.938a1.125,1.125,0,0,0-1.125-1.125h-18a1.125,1.125,0,0,0-1.125,1.125v4.5a1.125,1.125,0,0,0,1.125,1.125h18a1.125,1.125,0,0,0,1.125-1.125Zm-2.25,1.125v2.25H22.563v-2.25Z" transform="translate(-2.625 -7.874)" fill="#fff" stroke="#fff" stroke-width="0.2" fill-rule="evenodd"/>
    <path id="Path_47552" data-name="Path 47552" d="M27.063,71.438a1.125,1.125,0,0,0-1.125-1.125h-4.5a1.125,1.125,0,0,0-1.125,1.125v9a1.125,1.125,0,0,0,1.125,1.125h4.5a1.125,1.125,0,0,0,1.125-1.125Zm-2.25,1.125v6.75h-2.25v-6.75Z" transform="translate(-2.625 -18.372)" fill="#fff" stroke="#fff" stroke-width="0.2" fill-rule="evenodd"/>
    <path id="Path_47553" data-name="Path 47553" d="M39.563,62.059a1.127,1.127,0,0,0-1.125-1.125h-4.5a1.127,1.127,0,0,0-1.125,1.125V77.81a1.125,1.125,0,0,0,1.125,1.125h4.5a1.125,1.125,0,0,0,1.125-1.125Zm-2.25,1.125v13.5h-2.25v-13.5Z" transform="translate(-6.124 -15.746)" fill="#fff" stroke="#fff" stroke-width="0.2" fill-rule="evenodd"/>
    <path id="Path_47554" data-name="Path 47554" d="M52.063,68.313a1.125,1.125,0,0,0-1.125-1.125h-4.5a1.125,1.125,0,0,0-1.125,1.125V79.563a1.125,1.125,0,0,0,1.125,1.125h4.5a1.125,1.125,0,0,0,1.125-1.125Zm-2.25,1.125v9h-2.25v-9Z" transform="translate(-9.624 -17.497)" fill="#fff" stroke="#fff" stroke-width="0.2" fill-rule="evenodd"/>
    <path id="Path_47555" data-name="Path 47555" d="M64.563,62.067a1.125,1.125,0,0,0-1.125-1.125h-4.5a1.125,1.125,0,0,0-1.125,1.125V77.818a1.127,1.127,0,0,0,1.125,1.125h4.5a1.127,1.127,0,0,0,1.125-1.125Zm-2.25,1.125v13.5h-2.25v-13.5Z" transform="translate(-13.123 -15.749)" fill="#fff" stroke="#fff" stroke-width="0.2" fill-rule="evenodd"/>
    <path id="Path_47556" data-name="Path 47556" d="M77.063,65.188a1.125,1.125,0,0,0-1.125-1.125h-4.5a1.125,1.125,0,0,0-1.125,1.125v13.5a1.125,1.125,0,0,0,1.125,1.125h4.5a1.125,1.125,0,0,0,1.125-1.125Zm-2.25,1.125V77.563h-2.25V66.313Z" transform="translate(-16.623 -16.622)" fill="#fff" stroke="#fff" stroke-width="0.2" fill-rule="evenodd"/>
    <path id="Path_47557" data-name="Path 47557" d="M21.438,50.687H50.689a1.125,1.125,0,1,0,0-2.25H21.438a1.125,1.125,0,0,0,0,2.25Z" transform="translate(-2.625 -12.248)" fill="#fff" stroke="#fff" stroke-width="0.2" fill-rule="evenodd"/>
    <path id="Path_47558" data-name="Path 47558" d="M21.438,56.937h40.5a1.125,1.125,0,0,0,0-2.25h-40.5a1.125,1.125,0,0,0,0,2.25Z" transform="translate(-2.625 -13.998)" fill="#fff" stroke="#fff" stroke-width="0.2" fill-rule="evenodd"/>
    <path id="Path_47559" data-name="Path 47559" d="M75.063,48.438h-6.75a1.125,1.125,0,1,0,0,2.25h6.75a1.125,1.125,0,1,0,0-2.25Z" transform="translate(-15.748 -12.248)" fill="#fff" stroke="#fff" stroke-width="0.2" fill-rule="evenodd"/>
  </g>
</svg>
